<svg xmlns="http://www.w3.org/2000/svg" xmlns:xlink="http://www.w3.org/1999/xlink" width="52" height="43" viewBox="0 0 52 43"><defs><clipPath id="a"><rect width="52" height="43" fill="#259424"/></clipPath></defs><g clip-path="url(#a)"><path d="M44.766,3.665C39.7,1.294,33.711,0,25.988,0S12.277,1.294,7.21,3.665C2.055,6.077.038,9.506,0,13.816A14.181,14.181,0,0,0,2.54,21.7l10.5-5.446c-.622-1.127-2.591-5.724-2.591-5.724-.435-1.027-.292-1.557.556-1.758A65.447,65.447,0,0,1,25.988,7.262a65.432,65.432,0,0,1,14.98,1.509c.848.2.991.732.557,1.758,0,0-1.969,4.6-2.591,5.724l10.5,5.446a14.181,14.181,0,0,0,2.54-7.883c-.038-4.31-2.055-7.739-7.21-10.151" transform="translate(0 0)" fill="#259424"/><path d="M42.04,24.377C35.8,19.169,36.5,16.14,36.5,11.32h-5.5l-.037,5.1H21.888l-.038-5.1h-5.5c0,4.82.7,7.849-5.542,13.057S6,39.538,8.054,43.85H44.79c2.054-4.312,3.487-14.265-2.75-19.473M26.422,39.02a8.758,8.758,0,1,1,8.719-8.758,8.739,8.739,0,0,1-8.719,8.758" transform="translate(-0.462 -0.784)" fill="#259424"/></g></svg>