<svg xmlns="http://www.w3.org/2000/svg" xmlns:xlink="http://www.w3.org/1999/xlink" width="300.561" height="25" viewBox="0 0 300.561 25"><defs><clipPath id="a"><rect width="32" height="4" fill="none"/></clipPath><clipPath id="b"><rect width="18" height="4" fill="none"/></clipPath></defs><g transform="translate(-812.8 -3556)"><path d="M6.68.68A1.061,1.061,0,0,1,5.9,1,1.061,1.061,0,0,1,5.12.68,1.061,1.061,0,0,1,4.8-.1V-14.3a1.061,1.061,0,0,1,.32-.78,1.061,1.061,0,0,1,.78-.32,1.061,1.061,0,0,1,.78.32A1.061,1.061,0,0,1,7-14.3v4.46q0,.18.14.2a99.372,99.372,0,0,1,9.92,2.98,1,1,0,0,1,.59.54,1.062,1.062,0,0,1,.05.82,1,1,0,0,1-.53.59.991.991,0,0,1-.79.05A96.094,96.094,0,0,0,7.16-7.48Q7-7.52,7-7.36V-.1A1.061,1.061,0,0,1,6.68.68ZM24.64-7.64a.9.9,0,0,1-.66-.28.926.926,0,0,1-.28-.68.926.926,0,0,1,.28-.68.9.9,0,0,1,.66-.28H38.16a1.085,1.085,0,0,1,.81.34,1.067,1.067,0,0,1,.31.82Q38.82-.2,27.82.82A1.05,1.05,0,0,1,27.1.59a1.064,1.064,0,0,1-.4-.65.867.867,0,0,1,.18-.7.817.817,0,0,1,.62-.32q8.54-.78,9.52-6.42a.081.081,0,0,0-.04-.1.215.215,0,0,0-.12-.04Zm1.52-7.06H37.04a.926.926,0,0,1,.68.28.9.9,0,0,1,.28.66.926.926,0,0,1-.28.68.926.926,0,0,1-.68.28H26.16a.926.926,0,0,1-.68-.28.926.926,0,0,1-.28-.68.9.9,0,0,1,.28-.66A.926.926,0,0,1,26.16-14.7ZM47.84-1.28q4.94-.7,7.35-3.2t2.75-7.36a.141.141,0,0,0-.16-.16H46.1a.966.966,0,0,1-.71-.29A.966.966,0,0,1,45.1-13a.966.966,0,0,1,.29-.71A.966.966,0,0,1,46.1-14H57.9a.118.118,0,0,0,.1-.06q.04-.06,0-.1-.1-.18-.3-.53t-.3-.53a.777.777,0,0,1-.06-.62.794.794,0,0,1,.4-.48.875.875,0,0,1,.66-.06.786.786,0,0,1,.5.42l.78,1.44a4.141,4.141,0,0,1,.5,2.16q-.26,5.92-3.2,9.08T48.2.68a1,1,0,0,1-.76-.19,1.045,1.045,0,0,1-.42-.67.843.843,0,0,1,.17-.71A.969.969,0,0,1,47.84-1.28ZM61.78-16.26q.56,1,.84,1.52a.821.821,0,0,1,.05.65.821.821,0,0,1-.43.49.9.9,0,0,1-.66.03.821.821,0,0,1-.5-.43q-.26-.5-.82-1.5a.851.851,0,0,1-.07-.64.692.692,0,0,1,.41-.48.875.875,0,0,1,.66-.06A.856.856,0,0,1,61.78-16.26ZM76.14.62a1.026,1.026,0,0,1-.79-.3,1.068,1.068,0,0,1-.33-.8V-13.8a1.055,1.055,0,0,1,.33-.77,1.055,1.055,0,0,1,.77-.33,1.055,1.055,0,0,1,.77.33,1.055,1.055,0,0,1,.33.77V-1.7q0,.18.16.14,3.92-.9,4.72-6.02a.969.969,0,0,1,.39-.65.935.935,0,0,1,.73-.19,1.033,1.033,0,0,1,.68.38.919.919,0,0,1,.2.74,9.845,9.845,0,0,1-2.61,5.69A8,8,0,0,1,76.14.62ZM68.16.3a1.121,1.121,0,0,1-.84.11,1.07,1.07,0,0,1-.68-.51.92.92,0,0,1-.1-.77,1.063,1.063,0,0,1,.48-.63,4.743,4.743,0,0,0,1.7-1.69,7.52,7.52,0,0,0,.78-2.72,42.471,42.471,0,0,0,.22-4.99v-2.9a1.071,1.071,0,0,1,.32-.77,1.045,1.045,0,0,1,.78-.33,1.045,1.045,0,0,1,.78.33,1.071,1.071,0,0,1,.32.77v2.9a36.348,36.348,0,0,1-.36,5.76,8.943,8.943,0,0,1-1.15,3.36A6.607,6.607,0,0,1,68.16.3ZM97.42-4.36q-2.4,0-2.4,1.66,0,1.9,2.4,1.9a2.25,2.25,0,0,0,1.68-.54,2.479,2.479,0,0,0,.52-1.76v-.44a.3.3,0,0,0-.16-.26A4.206,4.206,0,0,0,97.42-4.36ZM97.52,1A5.092,5.092,0,0,1,94.2.03,3.336,3.336,0,0,1,93.02-2.7a3.1,3.1,0,0,1,1.17-2.57,5.239,5.239,0,0,1,3.33-.93,5.6,5.6,0,0,1,1.92.34q.18.04.18-.1v-4.56a.159.159,0,0,0-.18-.18H94.52a.87.87,0,0,1-.64-.26.87.87,0,0,1-.26-.64.87.87,0,0,1,.26-.64.87.87,0,0,1,.64-.26h4.92a.159.159,0,0,0,.18-.18V-14.7a.966.966,0,0,1,.29-.71.966.966,0,0,1,.71-.29.966.966,0,0,1,.71.29.966.966,0,0,1,.29.71v2.02q0,.18.16.18h2.34a.87.87,0,0,1,.64.26.87.87,0,0,1,.26.64.87.87,0,0,1-.26.64.87.87,0,0,1-.64.26h-2.34q-.16,0-.16.18V-4.8a.311.311,0,0,0,.12.28,29.1,29.1,0,0,1,2.66,2.36.938.938,0,0,1,.28.69.938.938,0,0,1-.28.69.873.873,0,0,1-.69.26,1.011,1.011,0,0,1-.69-.3q-.08-.08-1.34-1.28-.1-.06-.14.06Q101.06,1,97.52,1ZM90.18.9A1.086,1.086,0,0,1,89.4.72a.987.987,0,0,1-.44-.66A32.027,32.027,0,0,1,88.2-7.2a32.027,32.027,0,0,1,.76-7.26.987.987,0,0,1,.44-.66,1.086,1.086,0,0,1,.78-.18.806.806,0,0,1,.62.37.9.9,0,0,1,.14.71A31.847,31.847,0,0,0,90.2-7.2a31.847,31.847,0,0,0,.74,7.02.9.9,0,0,1-.14.71A.806.806,0,0,1,90.18.9Zm27.88-13.08-3.64,3.54a.058.058,0,0,0-.02.04.018.018,0,0,0,.02.02h.38a4.2,4.2,0,0,1,3.02,1.03A3.884,3.884,0,0,1,118.9-4.6a4.534,4.534,0,0,1-1.39,3.54A5.616,5.616,0,0,1,113.6.2a10.721,10.721,0,0,1-2.82-.38,1.269,1.269,0,0,1-.71-.49,1.4,1.4,0,0,1-.27-.85.631.631,0,0,1,.31-.56.708.708,0,0,1,.65-.08,8.61,8.61,0,0,0,2.84.56,3.168,3.168,0,0,0,2.29-.78,2.938,2.938,0,0,0,.81-2.22,2.036,2.036,0,0,0-.87-1.81A5.188,5.188,0,0,0,113-7h-.56a.807.807,0,0,1-.59-.25.807.807,0,0,1-.25-.59,1.858,1.858,0,0,1,.6-1.42l3.68-3.48a.058.058,0,0,0,.02-.04.018.018,0,0,0-.02-.02H110.6a.87.87,0,0,1-.64-.26.87.87,0,0,1-.26-.64.87.87,0,0,1,.26-.64.87.87,0,0,1,.64-.26h7.2a.87.87,0,0,1,.64.26.87.87,0,0,1,.26.64A1.994,1.994,0,0,1,118.06-12.18ZM128.6-8.14a2.953,2.953,0,0,0-2.21.87A3.11,3.11,0,0,0,125.54-5a3.486,3.486,0,0,0,.86,2.48,2.878,2.878,0,0,0,2.2.92,2.981,2.981,0,0,0,2.28-.87A3.555,3.555,0,0,0,131.7-5a3.094,3.094,0,0,0-.85-2.29A3.042,3.042,0,0,0,128.6-8.14Zm0,8.34q-5.3,0-5.3-6.6,0-4.22,1.6-6.31a5.446,5.446,0,0,1,4.6-2.09,9.975,9.975,0,0,1,1.88.18,1.059,1.059,0,0,1,.67.41,1.24,1.24,0,0,1,.25.77.63.63,0,0,1-.28.54.767.767,0,0,1-.64.12A8.225,8.225,0,0,0,129.5-13a3.356,3.356,0,0,0-2.59,1.13,5.429,5.429,0,0,0-1.23,3.23q0,.04.02.04h.04a4.542,4.542,0,0,1,3.36-1.2,4.722,4.722,0,0,1,3.51,1.3A4.75,4.75,0,0,1,133.9-5a5.041,5.041,0,0,1-1.44,3.82A5.345,5.345,0,0,1,128.6.2Zm10.66-.36a1.21,1.21,0,0,1-.7-.5,1.487,1.487,0,0,1-.26-.86.608.608,0,0,1,.31-.55.725.725,0,0,1,.65-.07,8.075,8.075,0,0,0,2.64.54q3.4,0,3.4-3.3,0-2.78-2.6-2.78a3.618,3.618,0,0,0-1.64.36,4.284,4.284,0,0,1-1.7.52.893.893,0,0,1-.67-.28.851.851,0,0,1-.25-.66l.3-5.72a1.236,1.236,0,0,1,.38-.81,1.135,1.135,0,0,1,.82-.33H146a.87.87,0,0,1,.64.26.87.87,0,0,1,.26.64.87.87,0,0,1-.26.64.87.87,0,0,1-.64.26h-5.04q-.16,0-.16.18l-.2,3.8a.018.018,0,0,0,.02.02h.02l.04-.02a5.108,5.108,0,0,1,2.42-.58,4.337,4.337,0,0,1,3.24,1.18A4.535,4.535,0,0,1,147.5-4.9a4.888,4.888,0,0,1-1.42,3.81A6.024,6.024,0,0,1,141.9.2,9.564,9.564,0,0,1,139.26-.16ZM154.48,1.6a1.038,1.038,0,0,1-.76-.32,1.038,1.038,0,0,1-.32-.76V-14.46a1.1,1.1,0,0,1,.34-.8,1.1,1.1,0,0,1,.8-.34h12.12a1.1,1.1,0,0,1,.8.34,1.1,1.1,0,0,1,.34.8V.52a1.038,1.038,0,0,1-.32.76,1.038,1.038,0,0,1-.76.32h-.02a1,1,0,0,1-.74-.3,1,1,0,0,1-.3-.74A.141.141,0,0,0,165.5.4h-9.8q-.14,0-.14.16a.989.989,0,0,1-.31.74,1.039,1.039,0,0,1-.75.3Zm1.08-15.18v4.7q0,.18.16.18h9.76a.159.159,0,0,0,.18-.18v-4.7a.159.159,0,0,0-.18-.18h-9.76Q155.56-13.76,155.56-13.58Zm0,6.86v5.16a.141.141,0,0,0,.16.16h9.76q.18,0,.18-.16V-6.72a.159.159,0,0,0-.18-.18h-9.76Q155.56-6.9,155.56-6.72Zm21.36,4.86a.058.058,0,0,0-.02.04.018.018,0,0,0,.02.02h5.28a.87.87,0,0,1,.64.26.87.87,0,0,1,.26.64.87.87,0,0,1-.26.64.87.87,0,0,1-.64.26h-7.4a.87.87,0,0,1-.64-.26.87.87,0,0,1-.26-.64,1.818,1.818,0,0,1,.7-1.46,30.264,30.264,0,0,0,4.93-4.67,5.669,5.669,0,0,0,1.29-3.37q0-2.56-2.72-2.56a7.54,7.54,0,0,0-2.96.7.679.679,0,0,1-.64-.04.589.589,0,0,1-.3-.54,1.616,1.616,0,0,1,.26-.9,1.276,1.276,0,0,1,.72-.54,10.488,10.488,0,0,1,3.22-.52,5,5,0,0,1,3.47,1.11,3.95,3.95,0,0,1,1.23,3.09,6.771,6.771,0,0,1-1.27,3.85A27.207,27.207,0,0,1,176.92-1.86Zm12-3.16q0,.02-.01.02t-.01.02a.018.018,0,0,0,.02.02h4.3q.18,0,.18-.16V-11.4a.018.018,0,0,0-.02-.02q-.04,0-.04.02ZM187.58-3.2a.846.846,0,0,1-.62-.26.846.846,0,0,1-.26-.62,2.742,2.742,0,0,1,.5-1.6l5.58-8.04a1.938,1.938,0,0,1,1.7-.88,1.038,1.038,0,0,1,.76.32,1.038,1.038,0,0,1,.32.76v8.4q0,.16.18.16h1.28a.846.846,0,0,1,.62.26.846.846,0,0,1,.26.62.846.846,0,0,1-.26.62.846.846,0,0,1-.62.26h-1.28a.159.159,0,0,0-.18.18v1.94a1.038,1.038,0,0,1-.32.76,1.038,1.038,0,0,1-.76.32,1.038,1.038,0,0,1-.76-.32,1.038,1.038,0,0,1-.32-.76V-3.02a.159.159,0,0,0-.18-.18Zm30.44-5.64q-.18,0-.18.16v1.52q0,.16.18.16h.82a.9.9,0,0,1,.65.26.854.854,0,0,1,.27.64.854.854,0,0,1-.27.64.9.9,0,0,1-.65.26h-.82a.159.159,0,0,0-.18.18v3.66q0,.76-.02,1.19a3.168,3.168,0,0,1-.14.81,1.342,1.342,0,0,1-.28.54,1.424,1.424,0,0,1-.52.29,2.632,2.632,0,0,1-.77.15q-.41.02-1.11.02-.88,0-1.6-.04a.992.992,0,0,1-.96-.96.74.74,0,0,1,.25-.61.826.826,0,0,1,.63-.23q.62.04,1.32.04.78,0,.92-.15a1.927,1.927,0,0,0,.14-.99V-5.02a.159.159,0,0,0-.18-.18H209.4a.87.87,0,0,1-.64-.26.87.87,0,0,1-.26-.64.87.87,0,0,1,.26-.64A.87.87,0,0,1,209.4-7h6.12q.18,0,.18-.16V-8.68q0-.16-.18-.16H209.4a.87.87,0,0,1-.64-.26.87.87,0,0,1-.26-.64.87.87,0,0,1,.26-.64.87.87,0,0,1,.64-.26h3.48q.16,0,.16-.18v-1.86a.141.141,0,0,0-.16-.16h-2.66a.814.814,0,0,1-.61-.26.864.864,0,0,1-.25-.62.864.864,0,0,1,.25-.62.814.814,0,0,1,.61-.26h2.66q.16,0,.16-.18v-.74a1.038,1.038,0,0,1,.32-.76,1.038,1.038,0,0,1,.76-.32,1.038,1.038,0,0,1,.76.32,1.038,1.038,0,0,1,.32.76v.74a.159.159,0,0,0,.18.18h2.8a.814.814,0,0,1,.61.26.864.864,0,0,1,.25.62.864.864,0,0,1-.25.62.814.814,0,0,1-.61.26h-2.8q-.18,0-.18.16v1.86a.159.159,0,0,0,.18.18h3.46a.9.9,0,0,1,.65.26.854.854,0,0,1,.27.64.854.854,0,0,1-.27.64.9.9,0,0,1-.65.26ZM203.67.91a1.014,1.014,0,0,1-1.42,0,.966.966,0,0,1-.29-.71V-14.26a1.111,1.111,0,0,1,.33-.8,1.062,1.062,0,0,1,.79-.34h3.68a1.1,1.1,0,0,1,.8.34,1.1,1.1,0,0,1,.34.8V-1.14a1.1,1.1,0,0,1-.34.8,1.1,1.1,0,0,1-.8.34H204.1q-.14,0-.14.16V.2A.966.966,0,0,1,203.67.91Zm.29-14.29v4.36q0,.18.16.18h1.66a.159.159,0,0,0,.18-.18v-4.36a.159.159,0,0,0-.18-.18h-1.66Q203.96-13.56,203.96-13.38Zm0,6.5v4.92a.141.141,0,0,0,.16.16h1.66q.18,0,.18-.16V-6.88q0-.16-.18-.16h-1.66A.141.141,0,0,0,203.96-6.88Zm8.96,4.3a.956.956,0,0,1,.27.7.929.929,0,0,1-.31.68.927.927,0,0,1-.68.25.962.962,0,0,1-.68-.29q-.92-1-1.66-1.68a.98.98,0,0,1-.3-.66.836.836,0,0,1,.26-.66,1.087,1.087,0,0,1,.71-.3.935.935,0,0,1,.71.26Q211.98-3.6,212.92-2.58Zm12.42,3.92a1.063,1.063,0,0,1-1.48,0,1,1,0,0,1-.3-.74V-14.66a1.111,1.111,0,0,1,.33-.8,1.062,1.062,0,0,1,.79-.34h5.74a1.1,1.1,0,0,1,.8.34,1.1,1.1,0,0,1,.34.8v5.22a1.1,1.1,0,0,1-.34.8,1.1,1.1,0,0,1-.8.34h-4.6a.159.159,0,0,0-.18.18V.6A1,1,0,0,1,225.34,1.34Zm.3-15.26v1.1a.159.159,0,0,0,.18.18h3.5a.159.159,0,0,0,.18-.18v-1.1a.159.159,0,0,0-.18-.18h-3.5A.159.159,0,0,0,225.64-13.92Zm0,2.84v1.12q0,.16.18.16h3.5q.18,0,.18-.16v-1.12q0-.16-.18-.16h-3.5Q225.64-11.24,225.64-11.08Zm14.08-4.72a1.062,1.062,0,0,1,.79.34,1.111,1.111,0,0,1,.33.8v13.3a4.1,4.1,0,0,1-.45,2.45,3.758,3.758,0,0,1-2.39.47q-.48,0-1.7-.06a.982.982,0,0,1-.65-.28.946.946,0,0,1-.29-.66.943.943,0,0,1,.08-.42q.1-.14-.08-.14h-5.32a.124.124,0,0,0-.14.14.83.83,0,0,1-.25.61.83.83,0,0,1-.61.25h-.14a.966.966,0,0,1-.71-.29A.966.966,0,0,1,227.9,0V-6.02a1.1,1.1,0,0,1,.34-.8,1.1,1.1,0,0,1,.8-.34h6.32a1.1,1.1,0,0,1,.8.34,1.1,1.1,0,0,1,.34.8v4.88a1.112,1.112,0,0,1-.26.72q-.08.12.08.12,1,.06,1.32.06a1.761,1.761,0,0,0,.96-.15q.16-.15.16-.91V-8.12a.159.159,0,0,0-.18-.18h-4.8a1.1,1.1,0,0,1-.8-.34,1.1,1.1,0,0,1-.34-.8v-5.22a1.1,1.1,0,0,1,.34-.8,1.1,1.1,0,0,1,.8-.34ZM234.5-1.72v-.96a.159.159,0,0,0-.18-.18h-4.24a.159.159,0,0,0-.18.18v.96q0,.16.18.16h4.24Q234.5-1.56,234.5-1.72Zm0-2.8v-.86a.159.159,0,0,0-.18-.18h-4.24a.159.159,0,0,0-.18.18v.86q0,.16.18.16h4.24Q234.5-4.36,234.5-4.52Zm4.26-5.44v-1.12q0-.16-.18-.16h-3.7q-.18,0-.18.16v1.12q0,.16.18.16h3.7Q238.76-9.8,238.76-9.96Zm0-2.86v-1.1a.159.159,0,0,0-.18-.18h-3.7a.159.159,0,0,0-.18.18v1.1a.159.159,0,0,0,.18.18h3.7A.159.159,0,0,0,238.76-12.82Zm8.03,6.36a1.039,1.039,0,0,1-.75.3,1,1,0,0,1-.74-.3,1,1,0,0,1-.3-.74V-9.72a1.062,1.062,0,0,1,.34-.79,1.111,1.111,0,0,1,.8-.33h2.46a.123.123,0,0,0,.1-.05.081.081,0,0,0,.02-.09q-.7-1.5-.98-2a.242.242,0,0,0-.24-.12h-.4a1,1,0,0,1-.69-.26.97.97,0,0,1-.33-.64.764.764,0,0,1,.21-.63.8.8,0,0,1,.61-.27,80.123,80.123,0,0,0,13.56-1.06.922.922,0,0,1,.71.13.967.967,0,0,1,.43.59.814.814,0,0,1-.09.67.84.84,0,0,1-.57.39l-1.8.3q-.02,0-.02.03t.02.03h.04a.937.937,0,0,1,.65.5.911.911,0,0,1,.03.82q-.26.62-.66,1.48-.08.18.08.18h2.18a1.111,1.111,0,0,1,.8.33,1.062,1.062,0,0,1,.34.79V-7.2a1.006,1.006,0,0,1-.3.74,1,1,0,0,1-.74.3,1.039,1.039,0,0,1-.75-.3.989.989,0,0,1-.31-.74V-9.02a.159.159,0,0,0-.18-.18H247.28a.159.159,0,0,0-.18.18V-7.2A.989.989,0,0,1,246.79-6.46Zm7.59-6.92q-.18,0-.1.16.52,1,1.02,2.2a.257.257,0,0,0,.24.18h1.3a.26.26,0,0,0,.24-.14q.68-1.38,1.18-2.62.04-.16-.1-.16Q256.04-13.5,254.38-13.38Zm-4.48.22a.1.1,0,0,0-.09.05.09.09,0,0,0-.01.09q.44.84.96,2.04a.26.26,0,0,0,.24.14h2.16q.18,0,.1-.16-.64-1.44-.98-2.1a.252.252,0,0,0-.26-.14Q251.3-13.2,249.9-13.16Zm1.6,11.1a.064.064,0,0,0,.04-.06.115.115,0,0,0-.04-.08A18.375,18.375,0,0,1,249-4.12a.752.752,0,0,1-.25-.64.77.77,0,0,1,.35-.6,1.066,1.066,0,0,1,.74-.21,1.229,1.229,0,0,1,.74.31,16.684,16.684,0,0,0,2.86,2.04.229.229,0,0,0,.26,0,13.786,13.786,0,0,0,3.32-2.8q.1-.14-.06-.14h-8.2a.84.84,0,0,1-.6-.25A.792.792,0,0,1,247.9-7a.824.824,0,0,1,.26-.6.824.824,0,0,1,.6-.26h9.88a.824.824,0,0,1,.6.26.824.824,0,0,1,.26.6,2.4,2.4,0,0,1-.5,1.52,15.749,15.749,0,0,1-3.32,3.2q-.04.02-.04.09a.085.085,0,0,0,.06.09,28.381,28.381,0,0,0,5.96,1.7.789.789,0,0,1,.56.38.73.73,0,0,1,.08.66,1.14,1.14,0,0,1-.51.62,1.056,1.056,0,0,1-.77.14,26.426,26.426,0,0,1-7.26-2.32.39.39,0,0,0-.3,0,24.978,24.978,0,0,1-6.92,2.3,1.021,1.021,0,0,1-.75-.13,1.118,1.118,0,0,1-.49-.61.748.748,0,0,1,.07-.66.758.758,0,0,1,.55-.38A23.316,23.316,0,0,0,251.5-2.06Zm21.38-9.5a.894.894,0,0,1-.66-.26.894.894,0,0,1-.26-.66.894.894,0,0,1,.26-.66.894.894,0,0,1,.66-.26h7.96q.16,0,.16-.18v-1.54a1.038,1.038,0,0,1,.32-.76,1.038,1.038,0,0,1,.76-.32,1.038,1.038,0,0,1,.76.32,1.038,1.038,0,0,1,.32.76v1.54a.159.159,0,0,0,.18.18h.74a.894.894,0,0,1,.66.26.894.894,0,0,1,.26.66.894.894,0,0,1-.26.66.894.894,0,0,1-.66.26h-.74a.159.159,0,0,0-.18.18V-1.24a12.661,12.661,0,0,1-.07,1.58,1.435,1.435,0,0,1-.41.84,1.4,1.4,0,0,1-.86.4,15.637,15.637,0,0,1-1.62.06q-.92,0-2.48-.06a.964.964,0,0,1-.67-.3,1,1,0,0,1-.29-.66A.806.806,0,0,1,277-.02a.806.806,0,0,1,.64-.24q1.4.06,2.22.06a1.928,1.928,0,0,0,.99-.14q.15-.14.15-.9V-11.38q0-.18-.16-.18Zm4.94,6.54a.976.976,0,0,1,.09.76,1.021,1.021,0,0,1-.47.62.921.921,0,0,1-.74.09.947.947,0,0,1-.6-.47,37.806,37.806,0,0,0-2.32-3.7.97.97,0,0,1-.17-.75.9.9,0,0,1,.41-.63.939.939,0,0,1,.75-.16,1,1,0,0,1,.65.42Q276.66-7.02,277.82-5.02Zm-11.12-1-.1-.28a2.167,2.167,0,0,1,.26-1.98,21.932,21.932,0,0,0,2.84-7,1.088,1.088,0,0,1,.44-.66.956.956,0,0,1,.76-.16,1.008,1.008,0,0,1,.66.42.956.956,0,0,1,.16.76,24.414,24.414,0,0,1-.9,3.28.906.906,0,0,0-.06.32V.76a.989.989,0,0,1-.31.74,1.039,1.039,0,0,1-.75.3,1,1,0,0,1-.74-.3,1.006,1.006,0,0,1-.3-.74v-7.9q0-.04-.03-.04a.068.068,0,0,0-.05.02q-.38.66-.82,1.3a.558.558,0,0,1-.58.24A.575.575,0,0,1,266.7-6.02Zm22.98,2.86a.982.982,0,0,1-.72-.3.982.982,0,0,1-.3-.72v-7.78a1.111,1.111,0,0,1,.33-.8,1.062,1.062,0,0,1,.79-.34h5.94a.159.159,0,0,0,.18-.18V-15.3a1.045,1.045,0,0,1,.33-.78,1.071,1.071,0,0,1,.77-.32,1.071,1.071,0,0,1,.77.32,1.045,1.045,0,0,1,.33.78v2.02a.159.159,0,0,0,.18.18h5.94a1.1,1.1,0,0,1,.8.34,1.1,1.1,0,0,1,.34.8v7.78a.966.966,0,0,1-.31.72,1.015,1.015,0,0,1-.73.3.973.973,0,0,1-.73-.3,1.024,1.024,0,0,1-.29-.74.141.141,0,0,0-.16-.16h-4.86a.159.159,0,0,0-.18.18V.9a1.045,1.045,0,0,1-.33.78,1.086,1.086,0,0,1-1.54,0A1.045,1.045,0,0,1,295.9.9V-4.18a.159.159,0,0,0-.18-.18h-4.86a.141.141,0,0,0-.16.16,1.024,1.024,0,0,1-.29.74A.973.973,0,0,1,289.68-3.16Zm13.44-8.08h-4.84q-.18,0-.18.16v4.76a.159.159,0,0,0,.18.18h4.84a.159.159,0,0,0,.18-.18v-4.76Q303.3-11.24,303.12-11.24Zm-12.42.16v4.76a.159.159,0,0,0,.18.18h4.84a.159.159,0,0,0,.18-.18v-4.76q0-.16-.18-.16h-4.84Q290.7-11.24,290.7-11.08Z" transform="translate(808 3579)" fill="#f4cb02"/><g transform="translate(921 3556)" clip-path="url(#a)"><g transform="translate(-921 -3542)"><circle cx="2" cy="2" r="2" transform="translate(921 3542)" fill="#ed0000"/></g><g transform="translate(-907 -3542)"><circle cx="2" cy="2" r="2" transform="translate(921 3542)" fill="#ed0000"/></g><g transform="translate(-893 -3542)"><circle cx="2" cy="2" r="2" transform="translate(921 3542)" fill="#ed0000"/></g></g><g transform="translate(986 3556)" clip-path="url(#b)"><g transform="translate(-921 -3542)"><circle cx="2" cy="2" r="2" transform="translate(921 3542)" fill="#ed0000"/></g><g transform="translate(-907 -3542)"><circle cx="2" cy="2" r="2" transform="translate(921 3542)" fill="#ed0000"/></g></g></g></svg>