<?xml version="1.0" encoding="UTF-8"?><svg id="_レイヤー_2" xmlns="http://www.w3.org/2000/svg" viewBox="0 0 201.71 20.57"><defs><style>.cls-1{fill:#383838;}</style></defs><g id="_レイヤー_1-2"><path class="cls-1" d="m3.16,14.13c-.12-.3-.25-.59-.4-.88.38-.58.74-1.18,1.07-1.79.33-.61.63-1.24.9-1.89l.05-.23-.1-.23c-.2-.25-.43-.47-.69-.68s-.54-.38-.84-.51l-.18-.03-.17.07c-.11.08-.21.18-.31.28-.1.1-.19.21-.26.32l-.1.18-.02.21c0,.11.01.22.03.34.02.12.05.23.09.34.05.16.07.31.08.47,0,.16-.01.32-.05.47-.18.9-.45,1.78-.81,2.62-.36.84-.8,1.64-1.33,2.4l-.08.08-.03.1c.02.11.04.21.07.31s.06.19.11.28l.18-.08.14-.13c.29-.33.58-.66.85-.99.28-.33.54-.68.79-1.03.12.29.21.59.27.91.06.31.08.64.08.96-.02.26-.05.53-.1.81-.05.27-.12.54-.2.79-.05.13-.06.25-.03.38.02.12.08.23.16.33.15.22.34.41.55.59.21.17.44.32.68.45h.15s.07-.15.07-.15c.04-.72.06-1.44.08-2.16.01-.72.01-1.44,0-2.16.04-.13.09-.25.15-.37.06-.12.14-.22.23-.31.27,0,.54-.06.79-.16.25-.1.49-.22.7-.38.22-.17.45-.33.68-.47.24-.14.48-.28.72-.4.27.79.59,1.57.95,2.34.36.77.76,1.51,1.2,2.23.22.36.47.69.75.99.28.31.58.58.91.83.2.15.41.27.64.36.22.1.45.17.68.23h.17s.13-.11.13-.11c.08-.11.16-.22.23-.34.07-.12.13-.24.17-.37.04-.09.05-.19.05-.29s-.02-.2-.07-.29c-.07-.16-.14-.33-.21-.49-.07-.16-.14-.32-.21-.47-.21-.47-.4-.96-.56-1.46-.16-.5-.29-1.01-.38-1.53-.03-.18-.08-.36-.16-.53-.08-.17-.18-.33-.31-.46.02.19.04.39.08.59.03.21.07.41.12.61.11.55.19,1.09.24,1.64.05.55.07,1.1.05,1.67-.74-.81-1.36-1.7-1.87-2.67-.51-.97-.89-1.98-1.15-3.03.16-.04.32-.08.48-.12.15-.05.31-.1.46-.16.26-.08.52-.18.78-.31.26-.12.5-.26.72-.42.08-.05.13-.13.14-.23s-.01-.18-.08-.24c-.12-.15-.25-.3-.4-.44-.15-.14-.3-.27-.46-.39-.1-.07-.22-.11-.35-.1-.13,0-.24.05-.33.14-.19.16-.39.31-.6.45-.21.14-.43.26-.66.37-.05-.4-.09-.8-.12-1.2-.02-.4-.03-.8,0-1.2.03-.2,0-.39-.09-.57-.09-.18-.22-.33-.39-.44-.3-.2-.62-.37-.96-.5-.34-.13-.68-.24-1.04-.32l-.2.02-.14.1-.15.19-.14.21-.06.18.05.19c.11.17.23.34.35.5.12.16.26.3.4.43.14.12.25.26.33.41.09.16.14.32.17.49.05.37.12.75.2,1.13.08.38.17.75.28,1.13-.31.23-.62.46-.93.69-.31.23-.61.47-.9.7-.33.29-.61.62-.85.98-.24.36-.44.74-.59,1.14-.08-.3-.18-.6-.3-.9Zm7.15-5.65c.14.13.26.26.38.41.11.12.23.22.36.29.13.08.28.13.43.16h.16s.13-.1.13-.1l.11-.21v-.23c0-.12-.03-.23-.1-.33-.07-.1-.16-.19-.27-.26-.1-.05-.21-.1-.33-.15-.12-.05-.24-.08-.36-.11-.16-.03-.33-.03-.5,0-.17.03-.33.09-.47.19.16.09.31.2.45.33Z"/><path class="cls-1" d="m19.5,7.27l.05.15.27.23.12.2c.03.08.04.16.04.25l-.11.75c-.35.12-.7.23-1.06.33-.36.1-.73.19-1.1.27l-.12.07-.08.11-.05.14c.29.08.59.13.91.16.31.02.62.01.92-.03l.52-.14-.11.93c-.32.07-.64.14-.96.21-.32.06-.64.12-.96.18-.07.08-.13.17-.17.27s-.07.19-.09.29c.36-.05.71-.11,1.05-.19.35-.08.69-.18,1.03-.3v.46l-1.18.83-1.16.83-1.05.21-.12.06-.08.13-.22.74.16.09.19-.03c.53-.22,1.06-.43,1.59-.64.53-.21,1.07-.41,1.62-.59-.64.69-1.26,1.4-1.85,2.13-.6.73-1.17,1.47-1.73,2.21-.09.09-.2.15-.33.18-.13.03-.26.03-.4,0,0,.08,0,.17.01.26.02.09.05.18.1.27.05.1.14.18.25.23.11.05.22.05.34,0,.09-.05.18-.1.27-.15l.24-.21c.37-.39.76-.78,1.16-1.17.4-.39.81-.77,1.22-1.16-.06.29-.12.58-.16.86-.04.28-.08.57-.1.86,0,.18.02.37.05.56.03.19.09.38.17.56.09.2.21.38.35.55.14.17.31.31.5.43.1.04.2.05.3.04.1,0,.19-.03.27-.07.65-.34,1.24-.75,1.79-1.24s1.03-1.03,1.44-1.63l3.91,1.72h.19s.18-.05.18-.05c.14-.1.24-.23.31-.38.07-.15.11-.31.11-.48-.1-.35-.25-.66-.44-.95-.2-.29-.43-.54-.69-.76l-.23-.08-.23-.03c-.24,0-.48,0-.72,0-.24-.01-.49-.04-.73-.09l-.98-.18c.06-.17.12-.35.18-.52.05-.17.11-.35.18-.52.1-.06.21-.13.31-.18.11-.06.21-.13.31-.2l.12-.18-.04-.2c-.15-.2-.32-.37-.53-.51-.21-.14-.43-.24-.66-.31-.16-.04-.31-.06-.45-.06-.15,0-.29,0-.44.03,0,.13,0,.26.02.38.02.13.06.25.1.37-.25.28-.51.54-.8.78-.29.24-.59.44-.91.62l-.49-.08h-.17s-.17.05-.17.05l-.6.25.26-.89c.36-.36.74-.7,1.13-1,.39-.31.81-.59,1.24-.87.49-.1.98-.18,1.48-.25.49-.06.98-.11,1.48-.14.07-.06.11-.14.12-.23,0-.09-.03-.16-.1-.22-.18-.19-.39-.36-.62-.49-.23-.14-.47-.23-.72-.29l-.21-.02-.19.03c-.39.2-.79.39-1.18.57-.4.18-.79.36-1.18.53l.12-.92c.38-.22.78-.41,1.18-.58.41-.17.82-.31,1.25-.42l.05-.04.03-.07v-.06s-.05-.06-.05-.06l-.4-.27-.18-.08-.19.03c-.26.09-.52.19-.77.3-.25.11-.5.21-.76.31l.15-.82,2.16-.63.08-.06.04-.1-.02-.1-.06-.08-.64-.36-.19-.06-.21.03-.96.37.19-.59c.02-.1,0-.2-.03-.31-.04-.1-.1-.18-.19-.24-.26-.19-.55-.33-.85-.43-.31-.1-.63-.14-.96-.13l-.17.05-.13.12-.33.36-.06.14Zm1.26,8.47c.31.09.61.19.9.31l.9.44c-.32.3-.66.57-1.03.81-.36.24-.75.45-1.15.63l-.23.06-.23-.03c-.1-.4-.16-.8-.17-1.2-.01-.4,0-.81.06-1.22.32.05.63.13.94.21Zm3.27-1.18c-.08.15-.16.29-.25.44-.08.15-.17.28-.27.41l-1.07-.19,1.59-.66Zm-5.17-2.07c.21-.17.43-.33.66-.47l-.03.62-1.24.38c.2-.18.41-.36.62-.53Z"/><path class="cls-1" d="m30.89,17.6c.67-.67,1.39-1.32,2.13-1.93.75-.61,1.52-1.18,2.32-1.71l-.07,2.05c0,.19,0,.38,0,.57s-.04.38-.08.57c-.02.16-.03.33-.02.51,0,.18.02.35.05.51.08.28.21.55.38.79.17.25.37.46.61.64l.29-.23c.07-.09.13-.19.18-.31.05-.11.06-.23.04-.33v-2.21s.45.26.45.26l.16.05.16-.05c.37-.23.72-.49,1.05-.79.32-.3.62-.62.9-.97.23.25.45.49.67.74s.44.5.66.75c.25.33.51.63.79.92.28.28.59.55.92.79l.1.06h.12s.09-.08.09-.08l.05-.12.16-.56c.03-.12.04-.24.04-.36s-.01-.24-.04-.36c-.07-.23-.16-.46-.25-.68-.09-.23-.19-.45-.29-.66-.06-.11-.14-.21-.23-.3-.09-.09-.18-.16-.28-.21l-.97-.51-.94-.48c.07-.16.14-.33.2-.5.06-.17.11-.34.16-.51.07-.36.19-.72.36-1.05.16-.34.36-.65.6-.94l.05-.12-.02-.14c-.17-.29-.38-.57-.62-.82-.24-.26-.5-.48-.79-.67l-.18-.05-.18.06c-.16.11-.31.23-.46.35s-.29.25-.43.39c-.3.28-.62.55-.95.81-.33.26-.67.49-1.02.71v-2.05s-.01-.18-.01-.18l-.08-.17-.53-.63c.31-.06.62-.13.94-.2s.64-.14.96-.23l.11-.06.1-.09v-.08s-.01-.06-.01-.06c-.17-.22-.37-.41-.6-.58-.23-.17-.47-.31-.72-.42-.09-.04-.18-.06-.27-.06-.09,0-.18,0-.27.02-.16.05-.33.09-.49.14-.16.05-.32.1-.47.16-.57.19-1.13.35-1.7.49-.57.13-1.15.23-1.74.29-.09,0-.19,0-.29.03-.1.02-.2.05-.29.08l-.23.08-.2.12c.21.23.45.41.71.55.26.14.54.23.83.29l.57-.18c-.3.53-.56,1.08-.79,1.64-.22.57-.41,1.14-.55,1.72-.05.22-.09.44-.11.68-.02.23-.01.46.01.68.03.19.07.38.12.57s.13.37.23.55c-.14.13-.27.26-.39.41-.12.15-.23.3-.33.46l-.77.38-.3.05-.22.33-.02.08.03.08c.07.1.14.21.2.33.06.12.11.24.14.37.03.11.07.21.12.31.05.1.13.19.22.26l.21-.07Zm5.85-5.88c.4-.23.82-.42,1.26-.58.44-.16.89-.28,1.35-.38-.19.4-.37.81-.53,1.24s-.31.85-.42,1.26c-.09-.07-.19-.13-.29-.18-.1-.05-.21-.08-.31-.1l-.6-.08h-.05s-.04.04-.04.04v.05s.01.04.01.04c.15.16.32.31.5.45.18.15.37.28.57.4l-.22.64-.21.66c-.09.26-.23.49-.4.69s-.38.37-.61.5v-4.66Zm-3.68-.35c.02-.23.06-.46.1-.69.29.04.58.06.85.08.28.01.56.02.85,0,.1,0,.2-.02.3-.07.1-.05.19-.1.27-.16l-.04,1.34-.48-.36-.15-.06-.15.02c-.27.09-.54.19-.81.29-.26.1-.52.21-.78.31,0-.24,0-.47.02-.7Zm1.56-2.71c.3-.02.59-.05.88-.08l-.04,1.46-.48-.23c-.3.07-.6.16-.89.25-.29.1-.58.2-.86.31.05-.28.12-.57.21-.85.08-.28.18-.56.3-.82.29,0,.59-.02.88-.04Zm-.38,4.32c.37-.32.77-.62,1.18-.92l-.04,1.2c-.36.18-.72.38-1.08.58s-.7.42-1.04.64l-.08-.49c.34-.36.69-.69,1.07-1.01Zm-1.2.03c-.01-.17-.02-.35,0-.52.18-.07.37-.13.56-.16.19-.04.38-.05.57-.05-.18.2-.36.4-.54.61s-.35.42-.51.65c-.04-.17-.06-.35-.08-.52Z"/><path class="cls-1" d="m50.95,14.25c.1-.51.11-1.02.02-1.53.26-.13.51-.25.77-.38s.52-.24.79-.36c.11.21.19.43.25.66.06.23.09.46.1.7l-.89.38c-.04-.09-.07-.19-.11-.29-.04-.1-.08-.19-.12-.27l-.19.08-.08.19.05.08v.11c0,.38-.04.76-.11,1.13-.07.37-.16.74-.28,1.11l-.06.23.08.22c.09.15.21.26.35.35.14.09.29.14.46.16l.1-.17.07-.2c.07-.41.1-.82.09-1.24-.01-.41-.07-.83-.17-1.24.15-.08.29-.16.42-.23s.28-.13.42-.2c.08,1.01.11,2.02.08,3.03-.03,1.01-.1,2.02-.22,3.03v.09l.03.09c.31-.16.59-.35.84-.57.25-.23.46-.49.64-.78.05-.38.09-.76.1-1.13.01-.37.02-.75.02-1.13.12.18.26.35.42.5.16.15.33.28.53.39l.21.05.21-.03.14-.06.13-.12c.2-.21.35-.45.44-.72.09-.27.12-.56.08-.85,0-.26,0-.51.05-.77.04-.26.1-.51.18-.75l.07-.21-.05-.21c-.09-.14-.19-.26-.3-.38-.11-.11-.23-.23-.36-.33.25-.15.5-.27.77-.38.26-.11.54-.2.83-.26l.15-.05.11-.13c.05-.08.08-.17.07-.27,0-.1-.05-.18-.11-.25-.13-.14-.25-.27-.37-.4-.12-.13-.24-.26-.37-.39-.14-.13-.29-.21-.45-.26-.16-.05-.33-.05-.51-.03-.37.07-.75.16-1.11.25-.37.09-.74.19-1.1.3.18-.25.37-.48.56-.7.19-.22.4-.44.63-.65-.04-.14-.1-.26-.19-.38-.09-.12-.2-.21-.33-.29.2.02.4.02.59,0,.19-.02.38-.06.57-.12l.12-.09-.02-.16c-.1-.14-.22-.26-.36-.38-.14-.12-.29-.22-.44-.3l-.62.19-.64.19c.05-.12.08-.24.09-.37.01-.13.02-.26,0-.38-.2-.2-.42-.37-.67-.51-.25-.14-.51-.24-.79-.31l-.17-.02-.17.06-.2.12-.17.16-.05.09.03.1c.17.22.35.43.53.62.18.2.37.39.57.58-.34.11-.68.21-1.03.29-.35.09-.69.16-1.04.23l-.07-.04-.14.22c-.04.07-.06.16-.08.25l.02.07h.08c.54-.02,1.07-.08,1.59-.14.52-.07,1.05-.14,1.58-.23l.08.4c-.23.35-.47.69-.73,1.03-.26.34-.53.67-.81,1-.28.1-.57.2-.85.31-.28.1-.57.22-.85.33l-.09-.11-.09-.11-.23.25c-.07.09-.13.18-.18.29.03.36.02.73-.03,1.09-.05.36-.13.72-.23,1.07l-.08.21.05.22c.07.15.16.28.25.42.1.13.2.26.32.38.28-.44.48-.91.58-1.42Zm-2.73-.3c.34-.28.69-.54,1.07-.78l.12-.12v-.18c-.01-.11-.06-.21-.13-.29-.07-.09-.16-.15-.26-.2-.15,0-.29.04-.43.09-.14.05-.28.11-.4.18.15-.36.35-.69.57-1.01.23-.32.47-.62.74-.89l.09-.08.02-.11c-.05-.2-.16-.36-.33-.49s-.37-.18-.58-.16c.19-.33.36-.67.5-1.04.14-.36.25-.73.32-1.11-.13-.15-.27-.29-.44-.41-.16-.12-.34-.22-.53-.3l-.14.13-.12.17-.04.15v.15s.01.38.01.38c-.3.59-.65,1.16-1.05,1.7-.4.54-.84,1.03-1.33,1.49l-.14.09-.16.05c-.04.18-.05.37-.05.56,0,.19.03.38.09.56l.09.14.17.05c.21-.05.41-.13.62-.21.2-.09.4-.19.59-.32-.03.33-.12.63-.28.91-.16.28-.36.51-.61.7l-.11.1-.03.12c0,.12.02.23.05.33.03.1.08.2.13.29l.12.08.14-.02c.23-.14.45-.29.67-.46.22-.17.43-.36.63-.56-.05.21-.13.42-.21.63-.09.21-.18.41-.28.62.28-.33.59-.63.93-.92Zm.66.98c-.11.21-.21.41-.29.62-.06.12-.14.21-.24.29-.1.07-.2.12-.32.15-.09-.12-.2-.21-.32-.29-.12-.07-.26-.12-.4-.14h-.11s-.08.08-.08.08l-.12.23c-.06.09-.1.19-.12.3s0,.22.03.33c.09.26.22.49.4.7.17.21.37.39.6.51l.12-.13.02-.16c0-.15.02-.31.05-.45.03-.15.09-.29.17-.44l.2.12.2.06h.21l.21-.05.17-.14.03-.23c-.04-.18-.06-.36-.07-.55,0-.18,0-.37.01-.56.02-.15.03-.29.03-.44s0-.29-.03-.44c-.12.2-.23.4-.34.61Zm-2.12,4.18c.07-.15.12-.31.14-.47-.05-.17-.11-.34-.19-.51s-.18-.31-.3-.45c-.22-.25-.42-.51-.61-.8-.19-.29-.35-.58-.49-.88-.1.17-.18.35-.23.54-.05.19-.09.39-.11.59-.03.43.05.84.22,1.22.17.39.43.71.77.98l.24.12c.09.03.18.04.28.04.12-.11.21-.24.29-.39Zm5.42-9.16c-.15.04-.29.09-.43.16l-.19.04-.21-.04-.14-.07-.15.17-.11.2-.02.13.03.12.1.13.12.12.14.05.14-.06c.17-.19.36-.37.55-.53s.39-.32.6-.46c-.15,0-.29.02-.44.06Zm1.57,1.89c-.17-.08-.35-.13-.54-.15.44-.15.88-.3,1.33-.42.45-.13.9-.24,1.36-.34.16-.03.32-.01.46.04.15.05.27.14.37.26-.09.24-.21.46-.37.66-.16.21-.34.39-.55.54l-.19-.1c-.24.06-.47.13-.7.21-.23.08-.46.16-.68.25l-.08-.62c-.11-.15-.25-.26-.42-.34Zm1.4,1.15c0,.34,0,.68-.01,1.04-.02.36-.05.71-.1,1.05-.02.11-.05.21-.1.31-.05.1-.1.2-.15.3l-.41-.25c0-.39-.02-.78-.03-1.18-.01-.39-.04-.77-.08-1.13l.88-.15Z"/><path class="cls-1" d="m66.55,7.9c-.14-.17-.28-.33-.44-.49l-.08-.02-.06.03-.16.22-.05.12v.12c.08.17.13.35.16.52.04.17.06.35.07.53v.31c0,.1,0,.21-.01.32-.04.35-.11.69-.22,1.03-.11.34-.25.67-.41.98l-.05.11v.14c.05.17.11.33.21.49.09.15.21.28.34.4l.18.04.12-.12c.19-.52.36-1.04.49-1.57.14-.53.26-1.07.36-1.61.02-.12.05-.23.09-.33.04-.1.09-.21.16-.31.21-.15.42-.28.64-.4.21-.12.44-.23.68-.32-.09.34-.17.68-.23,1.03-.06.35-.12.69-.18,1.04v.16s.03.16.03.16l.11.23.21.15.24.1c.09.02.18.02.28.01l.59-.07c-.31.47-.66.91-1.05,1.32-.39.41-.82.76-1.27,1.07-.09.06-.18.12-.27.16-.09.05-.18.09-.27.14l-.41.16-.09.07-.06.11-.05.3.05.08.06.03.06-.02c.34-.18.69-.34,1.05-.48.36-.14.73-.25,1.11-.33-.12.32-.25.64-.4.96-.15.32-.31.63-.48.93-.26-.08-.53-.15-.79-.21-.26-.05-.53-.1-.79-.15h-.16s-.16.03-.16.03c-.09.04-.18.08-.26.14l-.21.19.03.08.03.02h.05s.16,0,.16,0l.15.03c.26.1.51.2.75.31.25.1.49.22.74.33-.22.35-.45.68-.7,1-.25.32-.51.63-.79.93-.1.05-.21.09-.32.1-.11,0-.23,0-.33-.04l-.23-.07-.08-.03-.08.05c-.03.13-.04.25-.04.36s.02.23.05.35l.12.14h.19c.64-.22,1.24-.51,1.81-.88.57-.36,1.1-.79,1.58-1.27.38.21.75.45,1.11.72.36.27.7.55,1.03.85.25.22.5.42.77.62.27.19.54.37.83.53.12.07.24.11.38.12.13,0,.26,0,.38-.04l.16-.13.08-.17c.03-.11.03-.22.02-.33s-.05-.21-.1-.31c-.19-.3-.39-.6-.61-.89-.21-.29-.44-.57-.66-.83l-.18-.14-.22-.05c-.12,0-.23-.01-.35-.04-.11-.03-.23-.06-.33-.11-.25-.13-.5-.25-.75-.37-.26-.12-.51-.23-.77-.33.23-.3.44-.62.62-.96.19-.34.35-.68.49-1.04l.14-.17.18-.13.08-.1v-.11c-.11-.24-.25-.46-.42-.66-.17-.21-.36-.38-.57-.53h-.08s-.07.03-.07.03c-.21.25-.46.44-.75.59-.29.15-.6.25-.92.29.45-.4.91-.79,1.39-1.16.48-.37.98-.72,1.48-1.05l.23-.14c.08-.04.17-.07.27-.09.17-.05.34-.1.51-.15s.32-.13.46-.22l.1-.08.03-.13c-.03-.21-.1-.4-.23-.58s-.28-.32-.47-.43l-.18-.04-.17.04c-.35.16-.68.32-1.01.5s-.65.37-.97.58c.15-.39.33-.77.53-1.13.2-.36.41-.72.65-1.05l.05-.12v-.15c-.09-.26-.23-.49-.43-.69-.2-.2-.43-.33-.7-.4h-.14s-.12.07-.12.07l-.12.16-.11.16c-.05.09-.12.17-.18.24s-.15.13-.24.18c-.25.15-.49.3-.73.47-.24.17-.48.34-.72.53-.11-.18-.23-.36-.37-.53Zm-5.48,3.42l-.07.12c-.03.1-.05.21-.05.31,0,.11,0,.22,0,.34l.06.08h.1c.3-.15.6-.3.9-.42.3-.13.61-.25.93-.37-.25.84-.55,1.65-.92,2.45-.36.79-.78,1.56-1.26,2.3-.07.1-.16.19-.27.26-.1.07-.22.12-.33.14l-.09.03-.05.08c0,.11-.02.23-.03.36,0,.13,0,.25,0,.37l.03.06h.05c.11-.03.21-.07.31-.12.1-.05.18-.11.25-.18.27-.25.53-.51.77-.79.24-.28.46-.58.66-.89.06.36.11.73.14,1.09.03.36.05.73.05,1.11l-.02.22-.06.22-.06.21.03.23c.07.25.19.47.35.66.16.2.35.35.58.47l.14.05.16-.03.08-.08.05-.1v-.1c-.01-.16-.03-.31-.04-.45,0-.15,0-.29,0-.44.05-.77.13-1.52.24-2.28.1-.75.23-1.51.38-2.26-.15.26-.28.51-.41.77-.13.26-.25.52-.36.79-.14-.15-.25-.32-.33-.5-.09-.18-.15-.36-.2-.55.18-.33.37-.65.56-.96.19-.31.39-.62.59-.93.14-.2.28-.4.42-.6.14-.2.28-.4.42-.59l.11-.23-.05-.25c-.1-.18-.23-.34-.39-.46-.16-.13-.34-.22-.54-.29.26-.21.51-.44.73-.68.22-.25.43-.51.61-.78l.08-.24-.09-.23c-.24-.23-.49-.44-.77-.64-.27-.2-.56-.38-.86-.55l-.1-.03-.11.03-.25.17-.25.2-.03.08v.08s.16.52.16.52c.02.09.02.18,0,.27l-.08.24c-.23.48-.49.95-.79,1.39-.3.45-.63.87-1,1.26l-.11.08Z"/><path class="cls-1" d="m77.43,16.88c-.08.35-.15.7-.21,1.05-.02.13-.02.26,0,.38.02.13.07.25.13.36.08.16.18.33.28.49.1.16.22.31.35.44l.16.08h.18c.1,0,.19-.04.28-.1l.23-.21c.05-.09.09-.19.12-.29.02-.1.03-.21,0-.31-.09-.66-.15-1.31-.18-1.98-.03-.66-.02-1.32.03-1.98.16-.35.37-.67.62-.96.25-.3.52-.56.82-.8.21.05.42.1.63.13.21.03.42.06.63.08.18,0,.37,0,.56-.02.19-.02.38-.05.56-.08-.04.51-.1,1.02-.2,1.54-.1.52-.22,1.02-.38,1.51-.13.18-.28.34-.44.47-.17.13-.36.24-.57.32l-1.12.03-.13.18-.09.21v.18s.04.16.04.16c.14.19.28.37.42.53.15.16.31.31.48.45l.18.08.18-.03c.46-.26.96-.44,1.49-.56.53-.12,1.06-.18,1.6-.18.49.02.98.08,1.47.17.49.1.96.23,1.43.42h.22s.21-.07.21-.07c.17-.14.32-.29.44-.47.12-.18.2-.37.23-.58l.02-.19-.08-.18c-.11-.16-.23-.31-.37-.44-.14-.13-.29-.25-.45-.36-.12-.07-.25-.13-.38-.16-.14-.03-.27-.04-.41-.02-.6.07-1.2.16-1.79.27-.59.1-1.18.23-1.78.38.29-.33.54-.68.73-1.06.2-.38.35-.78.47-1.2.05-.22.09-.43.13-.64s.09-.41.16-.62l.71-.64.86-.29.16-.08.13-.12.08-.11.05-.11-.02-.1c-.09-.21-.22-.4-.38-.58-.16-.18-.33-.33-.53-.46l-.17-.05-.17.05-.37.15c.05-.46.1-.92.14-1.39.04-.47.07-.93.1-1.39l-.03-.21-.11-.16c-.21-.19-.43-.36-.67-.49-.24-.14-.49-.25-.75-.34-.1-.04-.2-.04-.31,0-.1.03-.19.09-.27.17-.13.13-.24.27-.34.43-.1.16-.19.32-.26.49l-.03.18.06.16.41.6.12.22.05.25c0,.37.01.75,0,1.12,0,.37-.02.75-.03,1.12l-2.09.81c-.12.05-.23.09-.35.14-.11.05-.23.11-.33.17-.21.12-.41.25-.59.4-.18.15-.35.31-.51.49l.05-.79c.15-.26.32-.52.51-.78.18-.26.37-.51.57-.75l.06-.13-.03-.14c-.09-.16-.2-.32-.33-.46-.13-.15-.26-.28-.41-.4l-.14-.07h-.16c-.1.04-.19.08-.28.12-.09.04-.18.1-.27.17-.39.32-.83.57-1.32.77-.49.19-.99.31-1.51.34l-.08.16c.2.28.45.52.75.71.3.19.62.31.98.37-.26.37-.52.75-.77,1.13s-.49.77-.72,1.16l-.16.16-.21.11-.23.07-.22.04c-.03.36,0,.7.1,1.05.09.34.24.66.45.96.06.08.15.13.25.14.1.01.2-.01.29-.08.32-.25.62-.52.89-.81.27-.3.52-.61.74-.95-.1.35-.19.69-.27,1.04Zm.85-8.23c.1-.02.21,0,.32.03.26.05.54.08.82.1.28.02.56.02.83.01.11,0,.21-.02.3-.05.09-.04.17-.09.23-.15l.07-.11v-.12c0-.16-.01-.33-.04-.49l-.08-.49-.02-.08-.06-.06c-.28-.13-.58-.24-.88-.34-.31-.1-.61-.18-.92-.23-.16-.04-.31-.05-.46-.04-.16,0-.31.03-.46.07-.13.29-.15.59-.07.88.08.3.25.54.51.72l-.21.23c-.06.08-.11.17-.16.26.09-.06.19-.1.29-.12Z"/><path class="cls-1" d="m94.09,11.8c.1.24.24.46.42.65-.27.16-.55.33-.83.51-.28.17-.55.36-.83.55-.26.06-.51.13-.75.21-.25.07-.5.15-.75.23l-.23.03-.23-.05h-.14s-.13.05-.13.05c-.12.15-.23.29-.33.44-.1.15-.21.29-.31.44l-.03.08v.05s.08.05.08.05h.08c.18.01.36.03.55.08.18.04.36.1.52.17l.19.03.19-.05c.38-.2.77-.39,1.16-.56.39-.17.78-.35,1.18-.52-.14.4-.26.81-.37,1.22s-.2.83-.27,1.24c-.05.22-.06.44-.04.66.02.22.07.44.15.65.15.36.35.68.6.97.26.29.55.53.89.71h.2s.18-.04.18-.04c.57-.44,1.14-.89,1.69-1.35.55-.46,1.09-.93,1.62-1.42.61.31,1.22.63,1.82.96.6.33,1.2.67,1.8,1.02l.23.07h.21l.4-.21c.05-.06.09-.14.11-.23.02-.09.01-.19-.01-.29-.13-.41-.32-.79-.57-1.14-.25-.35-.55-.65-.91-.91l-.21-.08h-.21c-.25.02-.49.03-.73,0-.24-.02-.48-.08-.72-.16-.27-.1-.55-.19-.83-.27-.28-.08-.57-.15-.85-.22l1.03-.62c.15-.1.31-.21.46-.32.15-.11.3-.23.44-.33l.06-.11-.05-.1c-.15-.15-.31-.27-.5-.36-.19-.1-.38-.17-.58-.23l-.21-.03-.21.03c-.09.03-.18.06-.25.11l-.2.16.11.23c.04.09.05.19.03.29-.01.1-.05.2-.12.29l-.64.83c-.28-.05-.56-.1-.84-.15-.28-.05-.56-.08-.85-.11h-.15l-.14.07-.23.22.03.1.08.06c.44.16.87.34,1.29.53.42.19.84.38,1.25.57-.39.28-.8.54-1.22.77-.42.23-.86.44-1.31.63-.1.04-.2.03-.3-.02-.1-.05-.16-.13-.19-.24-.15-.66-.2-1.32-.16-1.98.04-.67.18-1.32.42-1.96.4-.13.8-.25,1.21-.36.41-.11.82-.2,1.24-.27.61-.14,1.23-.21,1.85-.21.62,0,1.24.04,1.84.14h.21s.18-.1.18-.1l.15-.18v-.16s-.07-.14-.07-.14c-.14-.14-.28-.27-.42-.39-.15-.12-.3-.23-.46-.33l-.21-.08-.22.05c-.18.09-.37.17-.57.24-.2.07-.39.13-.59.17-.77.13-1.54.26-2.29.41-.75.15-1.51.31-2.26.49.73-.45,1.47-.87,2.22-1.26s1.52-.77,2.29-1.11c-.02-.14-.07-.27-.15-.39s-.19-.22-.31-.28l-.16-.03h-.16c-.48.1-.95.22-1.42.38-.46.16-.91.33-1.35.53l.03-1.04,2.11-.29c.26,0,.51-.03.78-.07.26-.04.52-.08.78-.14l.06-.05v-.09c-.1-.12-.2-.23-.31-.32s-.23-.18-.36-.27l-.19-.07-.22.03c-.18.09-.38.17-.58.24s-.41.13-.62.18l-1.44.37c.02-.17.01-.35-.02-.52-.03-.17-.09-.34-.17-.51l2.06-.33c.32,0,.64-.01.95-.06.31-.05.62-.13.92-.23l.09-.09-.03-.13c-.16-.17-.33-.33-.51-.46-.19-.14-.39-.26-.61-.36l-.16-.03-.17.03c-.23.13-.46.24-.7.33-.24.09-.49.16-.76.22l-1.64.4c-.11-.1-.22-.19-.33-.28-.11-.09-.23-.17-.35-.24l-.14-.05-.14.04c-.14.12-.26.25-.38.4-.11.15-.21.3-.28.45l-.08.19.06.19c.07.13.15.26.24.4.09.14.18.27.28.4l.11.23v.25s-.03,1.48-.03,1.48c0,.26.06.5.16.75Zm2.19-.55c.2,0,.41-.04.62-.1l-1.24.67v-.62c.22.04.43.05.63.04Z"/><path class="cls-1" d="m124.73,7.5l-.1-.05h-.12c-.16.07-.28.17-.37.31-.09.14-.12.3-.11.47l.21.52c.09.19.15.38.19.58.04.2.06.39.04.58-.11,1.45-.32,2.88-.61,4.3-.29,1.42-.68,2.81-1.15,4.19-.09.24-.22.46-.4.64-.18.19-.39.33-.63.43l-.26.04-.02.13c.29-.01.57-.06.86-.15.29-.09.56-.2.82-.34.2-.13.38-.28.53-.45s.27-.37.35-.6c.19-.5.36-1.01.52-1.53.16-.52.3-1.04.43-1.57.37.57.71,1.16,1.02,1.77.31.61.58,1.24.81,1.88.14.4.34.76.59,1.06.25.31.55.57.91.78.16-.1.31-.22.45-.35.14-.14.26-.29.37-.46.09-.16.15-.33.2-.5.05-.18.08-.36.08-.55l.04-.9.47.54.2.09.2-.09c.11-.07.22-.15.32-.25.1-.09.19-.2.28-.33.26-.42.5-.84.73-1.28.23-.44.45-.88.67-1.32.06.36.1.72.12,1.08s.02.73-.01,1.08l-.86.75-.18.17c-.04.07-.05.16-.05.26.01.2.04.4.08.59.04.19.08.4.14.61l.04.06h.08s.05-.04.05-.04c.13-.23.26-.45.4-.66.14-.21.27-.41.4-.61.3.26.57.54.82.85.24.31.45.64.62,1,.1.16.24.25.41.29.17.04.34.02.49-.05.17-.09.32-.19.44-.3.12-.11.23-.26.31-.43.07-.16.13-.33.17-.53s.06-.38.04-.57c-.03-.62-.05-1.22-.05-1.83,0-.6,0-1.2.01-1.8.27-.21.55-.42.85-.6.29-.19.59-.36.89-.52-.2.59-.36,1.18-.48,1.78-.12.6-.2,1.21-.25,1.83-.01.11.02.21.11.28.09.07.19.1.32.09.29-.06.58-.07.87-.04.29.03.58.1.87.21-.2.1-.39.23-.56.38s-.32.32-.45.5c.33-.07.66-.11.98-.12.32,0,.65.02.98.08.1,0,.19-.02.26-.05l.21-.14.17-.15.06-.16v-.2c-.03-.16-.07-.31-.13-.46-.06-.15-.14-.29-.26-.42-.09-.11-.2-.21-.34-.3-.14-.09-.3-.14-.47-.15l-1.83-.28c.19-.36.37-.73.54-1.12s.34-.77.49-1.14c.04-.1.05-.2.02-.3-.03-.1-.08-.19-.15-.26-.09-.06-.18-.1-.27-.14-.09-.04-.19-.06-.29-.08h-.2l-.16.09-.19.13c-.27.16-.54.32-.81.49-.27.17-.53.35-.78.54l.06-1.12c-.01-.09-.04-.18-.09-.27-.04-.09-.1-.17-.17-.23-.14-.1-.29-.2-.43-.31-.14-.11-.28-.22-.41-.33l-.14-.04-.14.06-.18.19-.18.21.21.32c-.03.46-.06.9-.09,1.33-.03.43-.05.87-.06,1.31l-1.12.84c.06-.26.1-.51.14-.76.04-.25.08-.51.12-.78l-.03-.17-.16-.09-.73-.04c.24-.53.45-1.06.63-1.6.18-.54.33-1.08.46-1.62.89-.34,1.79-.64,2.7-.88.91-.24,1.83-.43,2.76-.56l.04-.04.02-.04v-.08s-.02-.05-.02-.05c-.14-.11-.29-.23-.44-.35-.15-.12-.3-.23-.44-.33-.11-.09-.24-.14-.38-.15-.14-.01-.27.01-.4.09-.56.3-1.14.56-1.73.76-.59.21-1.21.38-1.84.53l.19-.77c.59-.29,1.17-.57,1.75-.85s1.17-.55,1.77-.81l.05-.03.03-.05v-.08s-.06-.05-.06-.05c-.19-.11-.39-.21-.6-.29-.21-.08-.43-.14-.64-.18l.95-.79.95-.82c-.11-.23-.27-.42-.47-.58-.2-.16-.42-.26-.67-.32-.36.13-.71.27-1.06.43-.35.16-.69.32-1.02.49.04-.16.09-.32.13-.49s.08-.34.11-.52c-.14-.11-.3-.21-.46-.28-.16-.07-.33-.11-.5-.13-.24.11-.46.28-.64.49-.19.21-.32.46-.39.73l.15.17c.1.09.17.19.2.31.04.12.03.24-.01.35-.27.06-.55.12-.83.18s-.56.13-.83.2l-.1-.23-.16-.16c-.09.17-.19.34-.31.49-.12.16-.25.3-.4.43.03.11.08.21.15.3l.24.24.15.05.13-.08c.23-.31.51-.57.84-.77.33-.2.69-.35,1.07-.45l-.43,1.96c-.32.07-.62.16-.92.27s-.59.24-.86.4l-.2.18-.16.23.16.05.14.05.23.04h.2c.21-.01.42-.04.62-.09.2-.04.39-.1.58-.17l-.26,1.2c-.3.21-.61.42-.93.6-.32.19-.66.35-1,.49-.14.06-.24.15-.28.29-.04.14-.04.27.02.4l.19.39c.29-.16.57-.3.85-.44.28-.14.57-.26.87-.38-.16.67-.35,1.34-.58,1.99-.23.65-.52,1.28-.86,1.88-.14.29-.34.53-.58.74-.24.21-.52.35-.82.44.03-1.12.03-2.25,0-3.39-.03-1.15-.08-2.28-.15-3.42-.01-.29-.01-.58.01-.88s.07-.59.14-.88c.07-.16.1-.32.09-.49-.01-.17-.08-.32-.19-.45-.11-.13-.24-.24-.37-.32s-.27-.16-.41-.21c-.16-.06-.32-.08-.47-.08-.16,0-.31.05-.45.12-.37.14-.76.27-1.16.39-.4.11-.79.21-1.18.28l-.52-.41Zm2.36-2.07c.03.12.07.25.13.38.1.14.21.28.33.4.12.12.25.23.4.31l.19.05.17-.08c.14-.1.27-.21.39-.34.11-.13.21-.26.3-.39.06-.13.11-.25.15-.38.04-.12.07-.25.09-.38l.09-.67c.44-.1.9-.2,1.38-.29.47-.09.94-.18,1.4-.25-.21.43-.44.84-.68,1.22s-.5.77-.78,1.14c.62-.3,1.2-.66,1.76-1.08.56-.42,1.07-.9,1.55-1.43.86-.06,1.73-.06,2.6-.01.87.05,1.75.14,2.62.27l.58-.49.1-.16-.08-.2c-.23-.21-.47-.42-.71-.6-.24-.19-.5-.35-.77-.49-.13-.07-.27-.11-.41-.13-.14-.01-.28,0-.41.06-.43.11-.87.22-1.31.31-.44.09-.9.19-1.35.29.2-.31.38-.64.54-.97.16-.33.3-.66.43-.99-.3-.11-.61-.21-.91-.29-.31-.08-.62-.13-.93-.16-.13-.04-.25-.06-.38-.05-.12,0-.25.03-.38.08-.09.03-.18.08-.27.14-.09.06-.17.14-.23.23l.15.28c.07.14.11.3.13.47.01.17,0,.34-.04.52-.07.19-.14.37-.2.56-.06.19-.13.38-.2.58-.56.07-1.11.16-1.65.27-.54.11-1.09.21-1.63.31-.04-.14-.09-.29-.13-.43-.04-.14-.1-.29-.17-.43-.09-.13-.18-.25-.29-.37-.11-.11-.23-.22-.35-.32-.13-.1-.27-.18-.42-.23-.15-.05-.3-.08-.46-.1-.14.37-.25.76-.31,1.16-.06.4-.1.8-.12,1.2-.43.1-.86.2-1.29.3-.43.1-.85.21-1.27.34-.1.01-.2.02-.29.02s-.19,0-.29-.02l-.23.21-.18.26c.39.06.76.13,1.13.21s.73.19,1.08.3c.23-.1.46-.2.7-.29.24-.09.48-.18.72-.27,0,.14.01.28.04.4Zm10.97,7.62c.98.32,1.98.55,3,.71.09-.07.18-.12.29-.14s.22-.03.33-.03c-.09-.33-.23-.63-.44-.89-.21-.26-.45-.48-.74-.66-.14-.07-.3-.13-.46-.17-.16-.04-.33-.06-.48-.04-.72.09-1.42.12-2.12.11-.69-.01-1.39-.09-2.09-.21l-.13.17c.92.46,1.87.85,2.85,1.16Zm-11.29,1.24c.4-.38.77-.8,1.1-1.26-.03.86-.08,1.71-.16,2.56-.08.85-.19,1.68-.33,2.51-.43-.37-.81-.8-1.13-1.28-.32-.48-.59-.99-.81-1.54.49-.29.93-.62,1.33-1Zm-1.18-4.84c0-.3,0-.6-.02-.9.31-.17.63-.32.96-.44.32-.12.65-.22.98-.29.04.3.09.6.13.89.04.29.08.59.11.89-.36.19-.72.34-1.07.45-.36.11-.73.21-1.12.28.03-.29.04-.58.04-.88Zm.81,2.69c.42-.64.89-1.25,1.41-1.8l.06,1.68c-.47.3-.93.63-1.36,1-.44.37-.86.74-1.26,1.13.34-.69.73-1.35,1.15-2Zm-.99.04c.05-.49.1-.98.14-1.48l1.05-.11c-.19.53-.39,1.05-.62,1.56-.23.51-.49,1-.77,1.47.09-.47.15-.95.2-1.44Zm7.92,5.1c.24-.28.5-.55.77-.83-.03.47-.05.95-.05,1.42,0,.47-.01.95-.01,1.42-.29-.11-.55-.27-.78-.47-.24-.2-.43-.42-.59-.67.2-.3.42-.59.67-.87Zm1.5-11.18c.26-.01.51-.06.76-.13.25-.07.48-.17.7-.3-.26.4-.55.78-.87,1.14-.32.36-.66.69-1.02,1.01l.43-1.72Z"/><path class="cls-1" d="m157,2.73c.01.43.02.86.02,1.28v1.3c-.37.11-.73.24-1.08.39-.35.14-.7.3-1.04.47l-.17.17-.11.24-.17.45.02.04h.04c.42-.13.82-.25,1.21-.37.39-.11.8-.21,1.21-.3-.04.53-.1,1.06-.18,1.6-.08.54-.18,1.06-.31,1.58-.29.14-.56.3-.82.46-.26.16-.49.35-.71.55l.21.05.24-.03c.56-.13,1.1-.27,1.63-.42.53-.15,1.06-.33,1.59-.53-.01.53-.06,1.06-.15,1.6s-.22,1.06-.41,1.58c-.54-.27-1.1-.51-1.68-.72-.57-.21-1.15-.39-1.74-.55-.2-.06-.4-.07-.61-.04-.21.03-.39.11-.55.26-.1.06-.18.13-.25.21s-.11.19-.14.3c.24.01.48.06.71.15.23.09.45.19.67.3.46.27.92.56,1.38.86.46.3.91.62,1.35.95-.34.56-.74,1.07-1.19,1.54-.45.47-.93.87-1.45,1.21-.2.17-.43.29-.69.35s-.52.08-.77.03c-.17-.03-.33-.08-.48-.16-.15-.08-.27-.18-.35-.31l-.09.3c-.06.11-.06.24-.02.37s.11.22.21.28l2.54,1.27c.2.1.42.13.67.09.24-.04.45-.14.62-.28.53-.52,1.03-1.05,1.51-1.59.48-.54.92-1.1,1.32-1.68.64.56,1.26,1.15,1.85,1.76.59.62,1.15,1.26,1.7,1.93.21.2.44.37.69.49.24.13.5.21.77.26l.75.11c.13.03.25.01.38-.04.12-.06.2-.15.23-.28.06-.11.1-.24.12-.37s.03-.26.03-.39c-.01-.37-.06-.74-.13-1.11-.07-.37-.19-.72-.34-1.06-.04-.11-.1-.22-.17-.32-.07-.1-.16-.19-.28-.26-.69-.53-1.4-1.04-2.13-1.54s-1.48-.96-2.23-1.39c.21-.43.41-.86.59-1.28.18-.42.34-.86.48-1.32.09-.21.19-.43.3-.63.11-.21.24-.42.39-.63.07-.13.11-.28.11-.44s-.04-.32-.11-.46c-.2-.27-.43-.51-.69-.72-.26-.21-.54-.37-.86-.48-.11-.06-.24-.09-.38-.09s-.27.04-.4.11l-1.07.47.32-1.2.34-1.2c.73-.09,1.46-.15,2.19-.19s1.46-.05,2.19-.02l.06-.24c-.1-.36-.27-.69-.5-1.01-.24-.31-.52-.57-.85-.75-.09-.06-.18-.09-.27-.09s-.18.02-.27.06c-.33.17-.67.33-1.02.47-.35.14-.71.27-1.06.39.1-.33.21-.66.32-.98.11-.32.24-.64.37-.96.07-.2.09-.41.05-.62-.04-.21-.14-.41-.31-.58-.36-.3-.75-.57-1.17-.79-.42-.23-.86-.42-1.32-.56-.14-.04-.28-.05-.42-.01-.14.04-.25.1-.35.2-.16.17-.3.35-.43.54-.13.19-.26.37-.39.56l.92,1.4Zm-8.96,3.48c-.56.17-1.1.37-1.63.58-.13.06-.25.13-.35.2-.11.08-.2.18-.27.29l-.09.17c.29,0,.56.04.83.13.26.09.52.2.76.34.3.14.6.24.91.3.31.06.63.08.96.06-.52.64-1.02,1.29-1.51,1.93s-.98,1.3-1.45,1.96c-.1.13-.21.24-.33.34-.12.1-.25.19-.4.26l-.54.26-.15.64c-.01.47.05.93.18,1.39.14.45.33.88.59,1.28.11.16.27.24.46.25.19,0,.35-.06.48-.2.44-.64.91-1.28,1.39-1.9.48-.62.98-1.23,1.49-1.82-.01,1-.07,2.01-.16,3.02-.09,1.01-.23,2.01-.4,3-.03.11-.03.24-.01.38.02.14.08.25.16.33.13.19.27.36.42.53.15.16.3.33.46.5.1.07.22.11.35.12.14,0,.25-.03.35-.12.17-.17.34-.35.49-.53.16-.18.29-.38.41-.59.07-.09.12-.18.14-.29s.02-.2.01-.29c-.14-.6-.27-1.21-.39-1.82-.11-.61-.2-1.21-.26-1.82-.07-.74-.11-1.49-.13-2.22-.01-.74,0-1.47.06-2.2.24-.23.48-.46.7-.69.22-.23.44-.47.66-.73-.23.11-.44.24-.64.39-.2.14-.39.29-.56.45l.17-1.59c.34-.11.67-.24.99-.39.31-.14.61-.31.88-.49.16-.1.29-.21.41-.33.11-.12.22-.25.32-.38.06-.1.09-.2.09-.3s-.04-.19-.11-.28c-.17-.24-.37-.46-.6-.66-.23-.19-.49-.34-.77-.44l-.3.09c.17-.52.37-1.02.59-1.51.22-.49.45-.98.7-1.45-.27-.47-.61-.89-1-1.26-.39-.37-.84-.66-1.34-.87-.1-.04-.2-.07-.31-.08-.11,0-.22.01-.33.05-.16.06-.3.14-.42.26-.12.11-.23.25-.31.41-.06.07-.09.16-.1.26,0,.1,0,.19.03.28l.45,1.35c-.1.49-.18.98-.23,1.48-.05.5-.09,1.01-.12,1.53-.57.11-1.14.26-1.7.43Z"/><path class="cls-1" d="m180.94,19.06l.09.09h.09c.27-.14.52-.32.74-.54.22-.21.39-.46.5-.73.29-.7.54-1.4.77-2.09.23-.69.43-1.41.6-2.14.52.64.96,1.34,1.33,2.07.37.74.67,1.51.9,2.31.11.36.28.71.49,1.04.21.34.46.64.73.91.09.07.19.11.31.12.12,0,.24-.01.35-.05.17-.1.32-.22.45-.37.13-.14.24-.3.34-.47.13-.27.21-.56.25-.86.04-.3.02-.6-.05-.9-.07-.37-.13-.74-.16-1.11-.04-.37-.05-.73-.05-1.11.14.24.3.47.46.67.16.2.35.39.57.56.09.07.19.09.3.06.11-.03.21-.09.28-.17.2-.42.4-.83.59-1.24s.36-.82.5-1.24c.42.1.83.14,1.25.12.42-.02.81-.1,1.18-.23-.29,1.1-.67,2.17-1.14,3.21-.47,1.04-1.02,2.04-1.63,3l.06.26c.42-.39.82-.8,1.21-1.25.39-.44.77-.89,1.13-1.35.13.03.24.08.33.15.09.07.18.16.25.26.34.49.72.94,1.14,1.35.42.42.85.79,1.31,1.12.11.04.23.06.33.05.11,0,.21-.03.31-.08.24-.13.46-.3.66-.53.19-.22.33-.47.42-.74.23-.73.48-1.45.74-2.16.26-.71.55-1.41.85-2.12l.14-.24.16-.24c.04-.14.05-.29.02-.45-.03-.16-.09-.3-.19-.43-.27-.34-.57-.67-.9-.98-.33-.31-.69-.58-1.07-.83-.09-.06-.18-.1-.29-.13-.11-.03-.21-.04-.31-.02-.19.04-.37.09-.55.13-.18.04-.36.09-.55.13l.3-1.18c.03-.13.03-.26,0-.4-.03-.14-.09-.26-.17-.38-.1-.13-.23-.24-.4-.33-.16-.09-.34-.15-.53-.16-.11-.01-.24-.02-.37-.02s-.27.01-.41.04c-.14.03-.28.09-.4.18-.12.09-.22.2-.29.33l-.06.19.06.15.32.6c-.06.26-.1.52-.14.79-.04.27-.06.54-.08.82-.46.13-.9.28-1.32.46-.42.18-.84.37-1.26.57.36-.82.69-1.63,1-2.45.31-.82.6-1.64.89-2.47.34-.16.69-.3,1.04-.43.35-.13.69-.26,1.02-.39.54.37,1.09.74,1.63,1.12.54.37,1.08.75,1.61,1.14.31.21.61.45.89.72.28.27.53.56.76.87l.34.04c.14-.14.3-.27.46-.39.16-.11.33-.21.5-.3.06-.17.08-.34.08-.5,0-.16-.04-.33-.1-.48-.07-.21-.18-.4-.33-.57-.15-.16-.33-.3-.53-.4-.59-.31-1.19-.61-1.8-.89-.62-.28-1.24-.54-1.87-.78.43-.09.86-.16,1.29-.24.43-.07.86-.13,1.29-.17l.05-.08-.03-.08c-.14-.19-.3-.35-.46-.49-.16-.14-.35-.26-.57-.37-.1-.07-.21-.11-.32-.12-.11,0-.23.01-.34.05-.4.16-.8.32-1.19.48-.39.16-.78.35-1.17.55-.26-.07-.52-.14-.77-.21-.26-.07-.52-.14-.77-.19l.09-.34c.63-.27,1.27-.52,1.92-.74.65-.22,1.31-.43,1.97-.61.09-.06.14-.14.16-.24.02-.1,0-.19-.08-.28-.09-.16-.2-.29-.35-.39-.15-.1-.31-.16-.48-.17l-1.29.11c.49-.34.97-.68,1.46-1.02.49-.34.97-.68,1.44-1.02l.15-.17.02-.24-.02-.13-.16-.17-.23-.13c-.27-.1-.55-.17-.84-.21-.29-.04-.58-.04-.88,0,.01.16,0,.32-.05.48-.05.16-.13.31-.23.44-.24.36-.52.69-.83.99-.31.3-.63.57-.96.82.06-.33.13-.66.2-.98.08-.32.15-.65.23-.98.04-.16.04-.31-.01-.45-.05-.14-.15-.27-.29-.39-.16-.16-.34-.3-.55-.43-.21-.13-.43-.22-.66-.28l-.16-.02-.16.09c-.09.07-.15.16-.2.26-.05.1-.1.2-.14.3l-.02.21.09.21.21.24-.04.45c-.24.03-.48.08-.71.15-.23.07-.44.16-.64.26-.09-.1-.18-.19-.29-.28s-.23-.14-.35-.17c-.1.24-.23.48-.38.72s-.33.46-.53.68c.03.19.07.37.13.54.06.17.14.34.24.52l.14.08.14-.05c.3-.39.64-.75,1.02-1.08.38-.34.78-.63,1.21-.89-.04.47-.1.94-.18,1.41-.08.47-.17.92-.27,1.36-.47.14-.92.31-1.35.5s-.85.4-1.25.63c.33.23.68.39,1.06.49.38.1.77.13,1.17.09l-.26.92c-.5.33-.99.66-1.47.98-.48.32-.96.66-1.45,1.02.01.14,0,.29-.04.43-.04.14-.09.26-.15.34l.04.11c.4-.2.81-.4,1.22-.59.42-.19.84-.36,1.27-.5-.24.59-.49,1.17-.74,1.75-.25.58-.53,1.16-.83,1.73-.14.32-.35.59-.61.82-.27.23-.56.4-.89.52-.07-1.16-.1-2.31-.08-3.45s.1-2.28.23-3.43c0-.74.07-1.47.21-2.18.14-.71.35-1.41.62-2.09.07-.13.1-.28.08-.44-.02-.16-.09-.31-.2-.44-.23-.26-.49-.49-.77-.69-.29-.2-.59-.39-.92-.56-.09-.03-.18-.05-.27-.05-.09,0-.19,0-.29.03-.53.19-1.05.39-1.56.61-.51.22-1.01.47-1.49.74l-.23.04-.25-.02-.11-.02-.52.49c.09.4.16.81.23,1.22.06.42.11.84.14,1.27.13,2.29-.03,4.57-.46,6.83-.44,2.26-1.14,4.43-2.09,6.51l.04.45Zm3.24-7.28l.34.49.15.06.13-.06c.34-.47.68-.93,1.01-1.39.33-.45.66-.92.99-1.41l-.09,3.78-.02,3.82c-.37-.7-.8-1.36-1.28-1.97-.48-.61-1.01-1.17-1.58-1.69l.34-1.65Zm10.79,3.2c.34-.69.64-1.4.9-2.13.26-.07.52-.14.78-.19.26-.06.53-.11.78-.15l-.06,1.27c-.03.34-.09.68-.19,1-.1.32-.21.63-.34.93-.16.34-.34.66-.55.95-.21.29-.44.55-.7.79-.29-.13-.58-.23-.87-.3-.29-.07-.59-.13-.89-.17.42-.64.79-1.31,1.14-2Zm-10.23-9.82c0-.13-.01-.26-.04-.39-.03-.13-.07-.26-.13-.39-.1-.17-.2-.34-.3-.52-.1-.17-.21-.34-.32-.52.54-.06,1.08-.14,1.62-.25s1.07-.22,1.6-.33c-.04.47-.08.95-.12,1.44-.04.49-.07.97-.1,1.44-.1-.01-.2-.01-.29,0-.09.01-.18.04-.27.06l-1.65.54v-1.1Zm-.19,4.21c.33-.47.69-.92,1.08-1.33.39-.42.82-.8,1.28-1.16l-.11,1.85c-.43.29-.85.59-1.25.9-.4.32-.79.64-1.18.97l.17-1.22Zm.17-2.28c.17.06.35.09.53.1.18,0,.35-.01.53-.05-.16.32-.34.62-.55.92-.21.3-.43.59-.66.86l.15-1.83Zm9.17-.13l.82.45c-.19.11-.38.23-.57.33s-.38.21-.57.31l.32-1.1Zm-1.7.99l-.3.86-1.33.28,1.63-1.14Z"/></g></svg>