<svg xmlns="http://www.w3.org/2000/svg" xmlns:xlink="http://www.w3.org/1999/xlink" width="353.581" height="384.393" viewBox="0 0 353.581 384.393"><defs><clipPath id="a"><rect width="45.667" height="81.134" fill="none"/></clipPath><clipPath id="c"><rect width="38.436" height="16.324" fill="none"/></clipPath><clipPath id="d"><rect width="97.968" height="88.059" fill="none"/></clipPath></defs><g transform="translate(-81.165 97.208)"><g transform="translate(136.934 50.483)"><path d="M126.564,193.827s-11.214,20.939-2.315,28.989,46.489,31.3,61.029,34.935,36.086,6.125,49.353,1.091c12.282-4.66,66.987-41.241,79.7-48.829S410.1,157.912,417.76,151.8c8.445-6.743-47.475-38.57-47.475-38.57Z" transform="translate(-120.816 -24.979)" fill="#c5c5c5"/><path d="M233.655,212.739l-35.478-22.871,135.359-79.449s15.308,8.608,17.643,10.65c1.387,1.214,4.163,8.9,4.959,13.713.546,3.288-.64,4.425-.64,4.425l-1.156-.987L288.01,175.337Z" transform="translate(-89.369 -26.12)" fill="#3c5e12"/><g transform="translate(90.182 164.749)"><path d="M232.774,176.893c-1.46-1.651-7.439-6.115-7.439-6.115-8.829-5.12-15.194-3.167-20.894-.12-10.047,5.824-17.249,18.28-18.96,28.016-1.893,10.779,1.19,17.352,8.19,22.2.558.387,1.342.892,3.26,2.006a23.933,23.933,0,0,0,7.618,2.92C224.807,229.6,246.437,192.335,232.774,176.893Zm-14.923,45.79c-10.48,6.052-19.009,1.191-19.041-10.851s8.438-26.719,18.917-32.767,19.009-1.193,19.043,10.851S228.331,216.633,217.851,222.683Z" transform="translate(-184.935 -167.617)" fill="#212121"/><path d="M213.717,176.508c10.48-6.052,19.009-1.193,19.043,10.851s-8.439,26.718-18.919,32.767-19.009,1.191-19.041-10.851S203.238,182.556,213.717,176.508Z" transform="translate(-180.924 -165.061)" fill="#333"/><path d="M213.209,181.366c7.691-4.442,13.951-.873,13.975,7.965s-6.193,19.609-13.885,24.05-13.952.875-13.976-7.965S205.517,185.806,213.209,181.366Z" transform="translate(-179.086 -162.805)" fill="#212121"/><g transform="translate(21.113 17.781)"><path d="M224.159,198.448a24.136,24.136,0,0,0,1.9-8.938,13.508,13.508,0,0,0-.571-4.025,8.78,8.78,0,0,0-1.127-2.36c-1.919-2.783-5.293-3.65-9.265-2.107a17.594,17.594,0,0,0-3.174,1.681,29.069,29.069,0,0,0-10.076,12.948c-.181.447-.347.9-.5,1.345l-.028.077a23.074,23.074,0,0,0-1.363,7.516c.014,5.122,2.177,6.938,2.561,7.418,2.176,2.131,5.553,2.481,9.4.641,3.795-1.581,9.287-6.89,12.252-14.2Zm-1.073-7.224a16.884,16.884,0,0,1-.627,4.436h-5.785l6.108-7.055A10.949,10.949,0,0,1,223.086,191.224Zm-1.384-5.035-6.609,7.633v-9.329C217.906,183.561,220.288,184.23,221.7,186.189Zm-9.784-.063v9.521h-7.4A22.564,22.564,0,0,1,211.918,186.125ZM203.58,206.6a9.879,9.879,0,0,1-.665-3.729,16.82,16.82,0,0,1,.629-4.435h6.784Zm1.627,2.286,6.7-7.736v8.065C209.216,210.423,206.841,210.233,205.208,208.884Zm9.872-1.67v-8.767h6.407A23.182,23.182,0,0,1,215.08,207.215Z" transform="translate(-199.946 -180.259)" fill="#a1a1a1"/><path d="M224.431,198.642a24.159,24.159,0,0,0,1.9-8.937,13.551,13.551,0,0,0-.572-4.025,8.718,8.718,0,0,0-1.127-2.36c-1.917-2.783-5.291-3.65-9.265-2.108a17.628,17.628,0,0,0-3.173,1.681,29.073,29.073,0,0,0-10.076,12.95c-.181.446-.349.895-.506,1.345l-.027.076a23.047,23.047,0,0,0-1.364,7.518c.014,5.121,2.177,6.937,2.561,7.418,2.177,2.129,5.553,2.481,9.4.641,3.793-1.581,9.286-6.892,12.251-14.2Zm-1.073-7.222a16.818,16.818,0,0,1-.627,4.435h-5.785l6.108-7.055A10.888,10.888,0,0,1,223.358,191.419Zm-1.384-5.035-6.609,7.632v-9.329C218.178,183.755,220.56,184.425,221.974,186.384Zm-9.782-.063v9.521h-7.405A22.547,22.547,0,0,1,212.192,186.321Zm-8.339,20.472a9.873,9.873,0,0,1-.665-3.727,16.824,16.824,0,0,1,.629-4.436H210.6Zm1.629,2.287,6.7-7.736v8.063C209.488,210.616,207.114,210.427,205.481,209.079Zm9.872-1.671v-8.765h6.405A23.188,23.188,0,0,1,215.353,207.408Z" transform="translate(-199.835 -180.18)" fill="#ccc"/></g><path d="M211.372,188.141a12.006,12.006,0,0,0-5.447,9.438c.008,3.468,2.466,4.868,5.484,3.124a12,12,0,0,0,5.447-9.436C216.848,187.8,214.391,186.4,211.372,188.141Z" transform="translate(-176.402 -159.579)" fill="#ccc"/></g><g transform="translate(213.462 93.8)"><path d="M320.424,126.449c-1.46-1.651-7.44-6.114-7.44-6.114-8.827-5.12-15.194-3.169-20.892-.121-10.047,5.824-17.251,18.28-18.96,28.016-1.864,10.613,1.1,17.148,7.868,21.974.655.467,1.664,1.117,3.581,2.231a23.945,23.945,0,0,0,7.618,2.92C312.457,179.153,334.086,141.89,320.424,126.449ZM305.5,172.239c-10.48,6.052-19.009,1.191-19.043-10.851s8.439-26.719,18.919-32.767,19.009-1.191,19.041,10.851S315.981,166.189,305.5,172.239Z" transform="translate(-272.585 -117.174)" fill="#212121"/><path d="M301.368,126.064c10.48-6.052,19.009-1.191,19.041,10.851s-8.438,26.718-18.917,32.767-19.009,1.191-19.043-10.851S290.888,132.112,301.368,126.064Z" transform="translate(-268.575 -114.618)" fill="#333"/><path d="M300.858,130.923c7.692-4.442,13.951-.875,13.975,7.964s-6.193,19.611-13.884,24.05-13.952.875-13.976-7.964S293.166,135.362,300.858,130.923Z" transform="translate(-266.736 -112.361)" fill="#212121"/><g transform="translate(21.112 17.781)"><path d="M311.809,148a24.187,24.187,0,0,0,1.9-8.938,13.544,13.544,0,0,0-.571-4.024,8.77,8.77,0,0,0-1.128-2.361c-1.917-2.783-5.291-3.648-9.265-2.107a17.677,17.677,0,0,0-3.173,1.681A29.069,29.069,0,0,0,289.492,145.2c-.181.447-.349.9-.506,1.346l-.027.076a23.037,23.037,0,0,0-1.364,7.516c.014,5.122,2.177,6.938,2.563,7.418,2.176,2.131,5.552,2.482,9.4.641,3.795-1.581,9.287-6.89,12.251-14.2Zm-1.073-7.224a16.832,16.832,0,0,1-.629,4.436h-5.785l6.108-7.055A10.873,10.873,0,0,1,310.736,140.78Zm-1.385-5.034-6.609,7.63v-9.328C305.556,133.117,307.937,133.785,309.351,135.746Zm-9.782-.063V145.2h-7.4A22.529,22.529,0,0,1,299.569,135.683Zm-8.339,20.472a9.88,9.88,0,0,1-.665-3.727,16.881,16.881,0,0,1,.629-4.436h6.784Zm1.629,2.286,6.7-7.736v8.065C296.867,159.979,294.491,159.789,292.858,158.44Zm9.872-1.67V148h6.407A23.185,23.185,0,0,1,302.73,156.77Z" transform="translate(-287.595 -129.815)" fill="#a1a1a1"/><path d="M312.081,148.2a24.144,24.144,0,0,0,1.9-8.938,13.508,13.508,0,0,0-.571-4.025,8.781,8.781,0,0,0-1.128-2.36c-1.917-2.783-5.291-3.65-9.265-2.107a17.545,17.545,0,0,0-3.173,1.681A29.061,29.061,0,0,0,289.764,145.4c-.181.446-.347.895-.5,1.345l-.028.077a23.068,23.068,0,0,0-1.364,7.516c.014,5.122,2.179,6.937,2.563,7.418,2.176,2.129,5.553,2.481,9.4.641,3.795-1.581,9.287-6.892,12.251-14.2Zm-1.073-7.224a16.877,16.877,0,0,1-.627,4.435h-5.786l6.11-7.054A10.941,10.941,0,0,1,311.008,140.975Zm-1.385-5.035-6.609,7.632v-9.329C305.828,133.312,308.209,133.981,309.623,135.94Zm-9.782-.063V145.4h-7.4A22.534,22.534,0,0,1,299.841,135.877ZM291.5,156.348a9.867,9.867,0,0,1-.665-3.727,16.832,16.832,0,0,1,.629-4.436h6.782Zm1.627,2.287,6.7-7.736v8.063C297.139,160.172,294.763,159.982,293.13,158.635Zm9.872-1.67V148.2h6.407A23.182,23.182,0,0,1,303,156.966Z" transform="translate(-287.484 -129.736)" fill="#ccc"/></g><path d="M299.023,137.7a12.011,12.011,0,0,0-5.449,9.438c.01,3.467,2.467,4.868,5.484,3.125a12.011,12.011,0,0,0,5.449-9.438C304.5,137.353,302.041,135.954,299.023,137.7Z" transform="translate(-264.053 -109.136)" fill="#ccc"/></g><g transform="translate(5.562)"><path d="M269.67,54.058c-13.277,6.085-31.783,19.133-51.583,30.565-16.425,10.27-40.848,50.483-46.222,56.205s-19.026,16.463-24.4,22.9-15.085,18.279-17.757,26.469c-1.868,5.73-3.8,15.7-4.656,26.152A85.045,85.045,0,0,1,132.9,231.78c.952,2.325,1.935,4.686,2.862,7.077,19.123,11.64,58.8,23.128,65.129,24l9.356-37.542L358.617,90.636s-36.984-30.565-65.892-39.552C291.567,50.723,280.884,48.917,269.67,54.058Z" transform="translate(-124.656 -50.483)" fill="#86bf28"/><path d="M388.238,118.868c-2.083-3.084-6.325-3.4-7.995-7.914-1.255-3.383-7.03-18.856-17.533-28.411-3.187-2.9-6.127-5.616-11.978-3.81-1.506.579-36.629,21.578-60.482,35.351-16.425,10.27-40.847,50.483-46.222,56.2s-39.244,41.386-45.72,46.42-14.259,8.781-21.311,5.966c-20.463-8.163-35.563-16.917-41.506-23.69-8.011-9.132,3.378-35.539,3.457-35.648-3.917,5.29-7.625,11.026-9.123,15.615-2.277,6.983-4.653,20.27-5.052,33.039-.069,2.214,1.124,9.3,5.581,12.521,11.917,8.6,9.958,7.229,26.245,16.68,5.415,3.142,25.853,13.505,35.164,14.667,14.19,1.767,24.054-.632,24.071-.646-.159-1.516-3.2-30.314,21.227-44.416s26.332,13.6,26.432,15.061l74.926-44.4c0-1.6-8.137-24.181,20.133-40.7,22.466-13.13,26.926,10.028,26.785,11.574a13.048,13.048,0,0,0,1.914-.893c.774-.447,1.509-1.018,1.6-1.612C389.058,148.511,390.318,121.954,388.238,118.868Z" transform="translate(-124.771 -39.237)" fill="#73b01d"/><path d="M387.252,141.95c.774-.447,1.509-1.018,1.6-1.612.2-1.308,1.464-27.866-.616-30.951s-6.325-3.4-7.995-7.913c0,.01,5.878,8.65-3.783,12.581-7.405,3.013-17.72-.191-35.264,15.9s-12.8,26.027-29.543,36.431-45.289,29.594-49.156,29.15-14.269-14.879-34.48-2.035c-15.269,9.7-18.027,24.068-28.807,28.812-12.764,5.616-62.118-17.834-73.055-35.542a148.218,148.218,0,0,0-1.381,15.734c-.069,2.214,1.124,9.3,5.581,12.521,11.917,8.6,9.958,7.229,26.245,16.68,5.415,3.142,25.853,13.505,35.164,14.667,14.19,1.767,24.054-.632,24.071-.646-.159-1.516-3.2-30.314,21.227-44.416s26.332,13.6,26.432,15.061l74.926-44.4c0-1.6-8.137-24.181,20.133-40.7,22.466-13.13,26.926,10.028,26.785,11.574A13.043,13.043,0,0,0,387.252,141.95Z" transform="translate(-124.771 -29.756)" fill="#69a318"/><path d="M223.689,191.485a1.826,1.826,0,0,0-1,.1,34.528,34.528,0,0,1,1,6.032l74.926-44.4c0-.443-.624-2.5-.927-5.582Z" transform="translate(-84.966 -10.994)" fill="#609419"/><g transform="translate(0 168.848)"><path d="M187.386,192.82a2.636,2.636,0,0,0-3.7-2.412h0c-2.152.947-6.924.962-12.466-.094a3.8,3.8,0,0,0-4.506,3.726v3.325a1.225,1.225,0,0,0,.91,1.184c6.947,1.858,12.743,2.366,16.061.906a6.179,6.179,0,0,0,3.7-5.651Z" transform="translate(-107.719 -162.543)" fill="#609419"/><path d="M215.663,211.572a73.987,73.987,0,0,1-23.9.6c-4.5-.56-14.418-3.194-21.46-9.13-4.715-3.973-2.294-7.66-5.989-11.938-2.218-2.57-14.154-9-16.682-10.431a9.622,9.622,0,0,0-8.416-.864c-3.5,1.048-3.108,5.167-8.861,1.017-3.422-2.47-4.919-7.221-5.4-10.3q-.12,1.954-.183,3.9c-.069,2.214,1.124,9.3,5.581,12.521,11.917,8.6,9.958,7.229,26.245,16.68,5.415,3.142,25.853,13.505,35.164,14.667,14.19,1.767,24.054-.632,24.071-.646A45.148,45.148,0,0,1,215.663,211.572Z" transform="translate(-124.771 -170.532)" fill="#609419"/></g><path d="M207.324,170.449c-9.492,6.253-17.318,15.356-19.47,23.7-3.473,13.459,2.765,25.608,2.765,25.608-.159-1.516-3.2-30.314,21.227-44.416s26.332,13.6,26.432,15.061C239.183,181.617,232.124,154.11,207.324,170.449Z" transform="translate(-99.556 -3.784)" fill="#8cc72a"/><g transform="translate(113.019 60.373)"><path d="M299.674,119.932c-16.6,9.629-68,39.469-73.094,42.669-6.08,3.821-19.487,13.4-21.3,16.632-1.025,1.833,3.048-.737,9.265-2.692,4.741-1.489,11.349-2.07,14.234-3.321,6.665-2.888,61.267-35.981,63.436-37.1,1.685-.873,4.577-8.533,8.712-14.563C302.12,119.818,302.9,118.06,299.674,119.932Z" transform="translate(-205.126 -82.952)" fill="#86bf28"/><path d="M301.3,93.418s8.031,9.089,8.83,15.013-10.386,7.836-12.673,7.935-.827-6.345,3.257-7.935S296.9,92.976,301.3,93.418Z" transform="translate(-168.031 -93.408)" fill="#86bf28"/></g><path d="M297.754,125.351c20.8-12.158,26.166,6.8,26.735,10.9,0,0-4.926-33.582-32.643-14.179s-14.224,43.984-14.224,43.984C277.617,164.456,269.485,141.873,297.754,125.351Z" transform="translate(-63.973 -23.837)" fill="#8cc72a"/><g transform="translate(140.202 97.937)"><path d="M224.453,202.658c.947-7.869,3.573-31.182,3.385-39.094-.283-12.037-3.149-15.584-3.177-15.618l.664-.57c.127.148,3.1,3.737,3.39,16.166.193,8.213-2.6,32.52-3.183,37.459L272.3,173.314c.371-2.584,4.056-28.418,4.056-37.48,0-9.371-3.972-15.159-4.011-15.217l.717-.5c.17.243,4.169,6.055,4.169,15.719,0,8.131-2.972,30.061-4.125,38.02Z" transform="translate(-224.453 -120.115)" fill="#679319"/></g><g transform="translate(129.817 48.167)"><path d="M219.84,167.836a1.845,1.845,0,0,1-2.484-2.584c4.483-7.065,12.1-18.778,19.241-28.4a133.828,133.828,0,0,1,17-18.892c4.158-3.883,53.054-31.306,55.433-33.057s10.694,10.065,11.131,24.728Z" transform="translate(-217.069 -84.729)" fill="#334445"/><path d="M264.538,136.86l-4.924-5.571v-25.83s.127-4.888-2.279-4.235c-1.274.346,13.363-7.876,10.881-6.241-4.772,3.145-4.034,8.727-4.034,8.727s.221,20.571.253,23.632S264.538,136.86,264.538,136.86Z" transform="translate(-200.733 -80.649)" fill="#73b01d"/></g><g transform="translate(179.093 105.432)"><path d="M260.94,128.087c-.263,2.281-2.449,4.985-4.882,6.04s-4.191.058-3.928-2.222,2.449-4.985,4.882-6.04S261.2,125.807,260.94,128.087Z" transform="translate(-252.103 -125.444)" fill="#659617"/><path d="M260.938,128.087c-.263,2.281-1.972.143-4.405,1.2s-4.668,4.9-4.405,2.619,2.449-4.985,4.882-6.04S261.2,125.807,260.938,128.087Z" transform="translate(-252.102 -125.444)" fill="#86bf28"/></g></g><g transform="translate(26.778 40.818)"><path d="M165.944,118.425s-19.307,12.592-23.2,24.052c-2.7,7.968,1.824,18.819-2.844,39.388-.736,3.242,6.986,8.889,10.284,10.943,4.377,2.724,13.609,6.767,18.549,2.374,16.9-15.035,30.446-17.382,39.878-20.549,16.609-5.578,25.148-20.245,25.148-20.245s-38.673-2.274-54.107-14.538C165.573,128.662,165.944,118.425,165.944,118.425Z" transform="translate(-139.855 -63.683)" fill="#90cc2c"/><path d="M160.465,116.633s-3.661,13.224,14.4,24.384,50.648,12.168,50.648,12.168Z" transform="translate(-131.601 -64.411)" fill="#73b01d"/><path d="M188.308,79.5s61.205,34.314,64.122,37.006-7,9.208-10.066,7.554-58.378-33.019-58.949-33.894S185.459,79.926,188.308,79.5Z" transform="translate(-122.18 -79.504)" fill="#90cc2c"/><path d="M313.967,124.609c-.01.089-.017.156-.022.2-.093.595-.828,1.166-1.6,1.613a13.254,13.254,0,0,1-1.7.813,9.16,9.16,0,0,1-1.588.8,17.851,17.851,0,0,1,1.377,5.411,13.038,13.038,0,0,0,1.914-.893c.774-.447,1.509-1.018,1.6-1.612.058-.378.205-2.859.333-6.27C314.174,124.65,314.069,124.632,313.967,124.609Z" transform="translate(-71.077 -61.169)" fill="#609419"/></g><g transform="translate(13.109 123.949)"><g transform="translate(41.017 38.201)"><path d="M161.669,186.65s9.04,4.573,17.674-.1c8.421-4.554,15.2-14.625,18.037-18.55,1.288-1.779.764-2.639-1.294-2.046C185.8,168.919,149.805,182.672,161.669,186.65Z" transform="translate(-159.299 -165.77)" fill="#f2f2f2"/><path d="M196.086,165.956l-.252.075c-3.374,4.681-9.339,12.528-16.491,16.4-8.635,4.668-17.674.1-17.674.1a6.934,6.934,0,0,1-1.014-.425c-1.923,1.92-1.98,3.547,1.014,4.551,0,0,9.04,4.573,17.674-.1,8.421-4.554,15.2-14.625,18.037-18.55C198.668,166.223,198.143,165.364,196.086,165.956Z" transform="translate(-159.298 -165.77)" fill="#d7dee3"/><path d="M176.711,175.4c-.961,2.018-3.826,3.82-6.4,4.025s-3.881-1.267-2.92-3.286,3.827-3.821,6.4-4.025S177.671,173.383,176.711,175.4Z" transform="translate(-156.137 -163.197)" fill="#fff"/></g><path d="M136.768,138.759s-12.244,22.747-3.457,35.648c5.744,8.431,6.941-10.889,6.162-24.3C139.059,143,139.014,137.633,136.768,138.759Z" transform="translate(-130.136 -138.609)" fill="#f2f2f2"/><path d="M134.624,168.772c-4.972-7.3-3.21-17.753-.743-25.453-2.969,7.708-6.4,20.609-.571,29.174,2.63,3.859,4.307,1.9,5.277-2.643C137.617,171.331,136.319,171.261,134.624,168.772Z" transform="translate(-130.136 -136.695)" fill="#d7dee3"/><path d="M132.422,153.09a8.745,8.745,0,0,0,.972,6.992c1.246,1.769,2.833,1.509,3.542-.582a8.745,8.745,0,0,0-.972-6.992C134.717,150.737,133.132,151,132.422,153.09Z" transform="translate(-129.346 -133.437)" fill="#fff"/></g><path d="M157.614,166.776c1.6,2.456.522,4.574-2.405,4.73a10.157,10.157,0,0,1-8.193-4.165c-1.6-2.457-.523-4.575,2.4-4.731A10.159,10.159,0,0,1,157.614,166.776Z" transform="translate(-110.467 -4.908)" fill="#69a11a"/><g transform="translate(55.508 52.842)"><path d="M169.139,116.357c-4.079,5.857-7.027,10.089-8.723,11.893-.738.788.963,11.255,20.926,22.778s43.471,14.466,44.119,13.774c3.481-3.706,14.955-21.882,27.071-37.02a3.914,3.914,0,0,0-1.094-5.829L193.546,88.53a3.553,3.553,0,0,0-4.529.828C181.693,98.339,174.43,108.762,169.139,116.357Z" transform="translate(-160.282 -88.053)" fill="#334445"/><g transform="translate(3.116)"><path d="M167.676,128.863,196.595,90.81l-3.949-2.28a3.553,3.553,0,0,0-4.529.828c-7.324,8.98-14.587,19.4-19.878,27-2.273,3.263-4.193,6.02-5.741,8.134Z" transform="translate(-162.497 -88.053)" fill="#515e5e"/><path d="M193.365,89.052a137.061,137.061,0,0,0-9.138,11.042c-7.152,9.633-14.775,21.36-19.255,28.424a1.844,1.844,0,0,0,2.481,2.584L216.8,102.581Z" transform="translate(-161.608 -87.647)" fill="#a5c7db"/><g transform="translate(11.213 13.878)"><path d="M170.645,114.081c-.061-.153-.1-.243-.1-.243S170.318,114.093,170.645,114.081Z" transform="translate(-170.469 -91.449)" fill="#719599"/><path d="M214.394,98.976l-1.828-1.056c-7.381,4.2-25.42,14.415-33.41,18.659-6.2,3.291-8.055,3.956-8.561,3.973.212.537.747,1.876,1.229,3.031Z" transform="translate(-170.419 -97.92)" fill="#515e5e"/></g><path d="M170.348,110.72a23.221,23.221,0,0,1,1.322-2c-.326,1.205-5.522,8.955,2.753,6.577.979-.281.567,2.1,2.383,1.851l-6.855,3.962s-5.322-1.7-1.515-7.474Z" transform="translate(-160.641 -79.659)" fill="#515e5e"/></g><g transform="translate(0 32.536)"><path d="M221.384,142.8a41.964,41.964,0,0,1-4.1-6.573c-2.376-5.57-9.93-10.764-16.871-11.6s-7.144.031-14.612-2.256c-5.408-1.657,23.29,20.771,32.756,24.42C219.4,145.619,220.345,144.28,221.384,142.8Z" transform="translate(-150.181 -106.678)" fill="#465b5e"/><path d="M225.461,155.4a96.9,96.9,0,0,0,6.059-8.148q-32.678-19.5-65.336-36.065a84.613,84.613,0,0,1-5.768,7.661c-.738.788.963,11.255,20.926,22.778S224.812,156.091,225.461,155.4Z" transform="translate(-160.282 -111.186)" fill="#465b5e"/><path d="M201.03,124.847a3.672,3.672,0,0,1,1.854-.442,9.6,9.6,0,0,1,4.6,1.464c5.539,3.2,10.22,10.508,10.22,15.962a7.887,7.887,0,0,1-.108,1.34c1.136-1.626,2.377-3.409,3.7-5.307a26.569,26.569,0,0,0-11.754-15.56c-3.921-2.263-7.771-2.636-10.564-1.023-2.432,1.4-3.771,4.089-3.771,7.56,0,6.973,5.393,15.55,12.277,19.525a14.9,14.9,0,0,0,5.009,1.872c.838-1.07,1.888-2.512,3.107-4.229-1.482.585-3.7.153-6.058-1.207-5.54-3.2-10.22-10.508-10.22-15.961C199.316,127.472,199.613,125.664,201.03,124.847Z" transform="translate(-146.087 -107.484)" fill="#465b5e"/></g><path d="M193.546,88.53a3.553,3.553,0,0,0-4.529.828c-7.324,8.98-14.587,19.4-19.878,27-4.079,5.857-7.027,10.089-8.723,11.893-.595.634.4,7.549,11.234,16.235,16.553-18.443,45.824-32.657,55.011-36.836Z" transform="translate(-160.282 -88.053)" fill="#c2e1eb" opacity="0.6" style="mix-blend-mode:overlay;isolation:isolate"/></g></g><g transform="translate(81.165 75.143)"><path d="M87.256,153.055l41.283-4.207L108.106,166.57,98.2,168.191,81.165,157.043Z" transform="translate(-81.165 -35.158)" fill="#c5c5c5"/><g transform="translate(5.796)"><path d="M126.648,105.668l-16.942-9.846L85.365,109.875l16.942,9.846Z" transform="translate(-85.254 -56.713)" fill="#d1d1d1"/><path d="M122.513,105.913,105.57,96.067,87.642,106.418l16.943,9.846Z" transform="translate(-84.329 -56.613)" fill="#86bf28"/><path d="M117.263,81.8,100.32,71.952l.1,33.919,16.942,9.846Z" transform="translate(-79.175 -66.416)" fill="#73b01d"/><path d="M85.286,78.008l16.943,9.846.294,103.843-16.942-9.846Z" transform="translate(-85.286 -63.955)" fill="#bbb"/><path d="M126.57,77.862l-16.943-9.846L85.286,82.069l16.943,9.846Z" transform="translate(-85.286 -68.016)" fill="#d1d1d1"/><path d="M97.627,192.913l24.339-14.052-.294-103.845L97.332,89.07Zm20.946-78.442-17.927,10.35-.1-33.919,17.929-10.35Z" transform="translate(-80.39 -65.171)" fill="#828282"/><path d="M103.654,121.188l8.116-4.686v-6.78l-8.116,4.686Z" transform="translate(-77.82 -51.063)" fill="#6e6e6e"/><g transform="translate(26.411 71.794)"><path d="M105.268,133.6l5.5-3.2,1.257-10.148-5.5,3.2Z" transform="translate(-103.575 -118.574)" fill="#424242"/><path d="M107.007,123.944l5.5-3.2-2.92-1.686-5.5,3.2Z" transform="translate(-104.055 -119.061)" fill="#6e6e6e"/><path d="M104.1,121.334l-.031,10.856,1.693.977,1.258-10.147Z" transform="translate(-104.064 -118.137)" fill="#636363"/><g transform="translate(3.569 5.759)"><path d="M108.443,123.408a1.3,1.3,0,0,1,1.314-.128l1.738,1.01a1.306,1.306,0,0,0-1.315.128,4.061,4.061,0,0,0-1.841,3.189,1.288,1.288,0,0,0,.539,1.183l-1.738-1.01a1.291,1.291,0,0,1-.537-1.183A4.061,4.061,0,0,1,108.443,123.408Z" transform="translate(-106.602 -123.155)" fill="#b3b3b3"/><path d="M109.678,124.126a4.061,4.061,0,0,0-1.841,3.189c0,1.173.834,1.643,1.854,1.053a4.056,4.056,0,0,0,1.841-3.186C111.528,124.011,110.7,123.538,109.678,124.126Z" transform="translate(-106.1 -122.863)" fill="#e6e6e6"/></g><g transform="translate(6.657 8.182)"><path d="M130.845,226.879c-14.768-4.985-11.266-33.413-11.577-45.019-.277-10.353.051-41.7-1.743-47.018-1.671-4.954-7.826-7.387-7.888-7.412a1.313,1.313,0,0,1,.942-2.45c.3.115,7.363,2.886,9.433,9.024,1.377,4.08,1.6,18.974,1.74,36.565.118,15.155.243,10.455.083,17.877-.266,12.111-.707,32.383,9.848,35.944,8.139,2.745,10.591-2.408,15.358-14.327,2.429-6.072,7.423-17.758,11.2-23.06a1.313,1.313,0,0,1,2.139,1.523c-3.633,5.121-8.512,16.536-10.9,22.511C144.949,222.365,141.681,230.533,130.845,226.879Z" transform="translate(-108.797 -124.878)" fill="#333"/></g><g transform="translate(53.797 63.727)"><path d="M145.28,174.3a1.971,1.971,0,0,1-1.63-3.073l1.81-2.677a8.052,8.052,0,0,1,4.117-3.12l2.889-.956a1.969,1.969,0,0,1,1.239,3.738l-2.889.956a4.1,4.1,0,0,0-2.093,1.587l-1.809,2.677A1.966,1.966,0,0,1,145.28,174.3Z" transform="translate(-141.907 -164.37)" fill="#e6e6e6"/><path d="M145.178,167.9s.042,1.333,3.137,2.376c.229.077-.115,1.221-.429,1.727a5.042,5.042,0,0,1-1.955,2.174c-1.314.571-3.857-1.551-3.6-2.362C142.558,171.1,143.791,167.841,145.178,167.9Z" transform="translate(-142.313 -162.935)" fill="#f2f2f2"/></g></g></g></g><path d="M206.394,212.062s4.408-17.172,1.723-16.514-14.3,19.515-14.3,19.515-4.844,5.316,4.022,4.747H203.2l-2.681,11.6s-2.062,9.9,4.469,0,9.384-14.768,9.384-14.768,4.472-5.456-2.234-4.747Z" transform="translate(-97.519 -169.853)" fill="#ffc800" fill-rule="evenodd"/><g transform="translate(333.991 -56.304)"><g clip-path="url(#a)"><g transform="translate(0 0)"><g clip-path="url(#a)"><g transform="translate(6.82 64.81)" opacity="0.4" style="mix-blend-mode:multiply;isolation:isolate"><g clip-path="url(#c)"><path d="M47.073,90.237c0,4.508-8.6,8.162-19.218,8.162S8.637,94.745,8.637,90.237s8.6-8.162,19.218-8.162,19.218,3.654,19.218,8.162" transform="translate(-8.637 -82.074)" fill="#a8c4e5"/></g></g><path d="M27.379,84.523h0a5.788,5.788,0,0,1-5.771-5.771V35.3a5.771,5.771,0,1,1,11.541,0V78.752a5.788,5.788,0,0,1-5.771,5.771" transform="translate(-4.545 -6.213)" fill="#346650"/><path d="M.238,46.323c1.969-10.867,6.39-27.285,16.237-42.65A7.916,7.916,0,0,1,30,3.927,129.53,129.53,0,0,1,45.454,46.756,14.712,14.712,0,0,1,33.609,63.762a56.158,56.158,0,0,1-22.164-.446A14.714,14.714,0,0,1,.238,46.323" transform="translate(0 0)" fill="#6da67a"/><path d="M35.837,4.973A129.529,129.529,0,0,1,51.294,47.8,14.712,14.712,0,0,1,39.449,64.808a57.594,57.594,0,0,1-11.684.869c18.2-9.105,15.256-33.385,8.072-60.7" transform="translate(-5.84 -1.046)" fill="#569162"/></g></g></g></g><g transform="translate(171.933 -97.208) rotate(14)"><g transform="translate(0 0)" clip-path="url(#d)"><path d="M66.044.33A36.82,36.82,0,0,0,24.357,37.656,25.207,25.207,0,1,0,48.881,71.515,36.809,36.809,0,1,0,66.044.33" transform="translate(0 0)" fill="#ebfbff"/><path d="M97.341,38.372a36.641,36.641,0,0,0-2.265-18.449c-15.888,33.474-43.607,34.7-43.607,34.7C39.977,74.968,15.314,72.661,1.779,69.535a25.21,25.21,0,0,0,46.806-1.347A36.827,36.827,0,0,0,97.341,38.372" transform="translate(0.297 3.327)" fill="#e4ebdd"/></g></g></g></svg>