<svg xmlns="http://www.w3.org/2000/svg" width="64" height="64" viewBox="0 0 64 64"><path d="M757.987,319.391l-.041-8.448a.7.7,0,0,0-.719-.687l-4.068-.025-.063,9.876h4.18a.7.7,0,0,0,.711-.715" transform="translate(-704.445 -290.215)" fill="#383838"/><path d="M61.485,19.544A32.008,32.008,0,1,0,2.593,44.638a1.035,1.035,0,1,0,1.9-.818A29.939,29.939,0,1,1,59.579,20.35,29.922,29.922,0,0,1,32,61.931c-.839,0-1.686-.035-2.517-.1a29.79,29.79,0,0,1-15.337-5.8c-.722-.537-1.428-1.114-2.1-1.715a9.633,9.633,0,0,1-1.813-1.968,4.175,4.175,0,0,1-.58-3.01,7.258,7.258,0,0,1,1.329-2.86,13.454,13.454,0,0,1,1.472-1.7l.253.3a1.067,1.067,0,0,0,1.337.25c1.364-.757,4.218-2.353,5.952-3.407l1.479.594a1.138,1.138,0,0,0,1.153-.182l2.652-2.213a1.138,1.138,0,0,0,.367-.568l1.223-4.378a1.138,1.138,0,0,1,.286-.493L33.6,28.14a1.138,1.138,0,0,1,1.116-.3l2.738.764a1.138,1.138,0,0,1,.526.32l2.058,2.205a1.138,1.138,0,0,0,.767.36l5.479.314a1.566,1.566,0,0,0,1.655-1.553l.068-10.429a1.566,1.566,0,0,0-1.6-1.575l-14,.29a1.566,1.566,0,0,0-.971.363L10.873,36.064a1.138,1.138,0,0,0-.145,1.6l.48.575a1.139,1.139,0,0,0,.45.327l1.675.673-2.205,2.54a1.067,1.067,0,0,0-.014,1.384l.011.013A15.665,15.665,0,0,0,9.3,45.263,9.286,9.286,0,0,0,7.62,48.955a6.3,6.3,0,0,0,.858,4.48,11.326,11.326,0,0,0,2.19,2.417c.717.642,1.472,1.258,2.243,1.833a31.835,31.835,0,0,0,16.4,6.2C30.2,63.962,31.1,64,32,64A32.017,32.017,0,0,0,61.485,19.544m-20.2,4.547L43.952,21.3a.257.257,0,0,1,.414.3l-1,1.921a.257.257,0,0,0,.11.348l1.443.742a.257.257,0,0,1,.056.418l-3.115,2.862a.257.257,0,0,1-.4-.319l1.191-2.036a.257.257,0,0,0-.095-.353l-1.211-.691a.257.257,0,0,1-.058-.4" fill="#383838"/></svg>