<svg xmlns="http://www.w3.org/2000/svg" width="1920" height="148" viewBox="0 0 1920 148"><g transform="translate(-382.626 -600.178)" opacity="0.3"><path d="M8065.665,1176.277h-32.523a.97.97,0,0,1,0-1.94h32.523a.97.97,0,0,1,0,1.94Z" transform="translate(-5764.009 -435.854)" fill="#78bd36"/><path d="M2138.993,1176.277H383.613a.97.97,0,1,1,0-1.94h1755.38a.97.97,0,1,1,0,1.94Z" transform="translate(0 -435.854)" fill="#78bd36"/><g transform="translate(1874.343 655.823)"><path d="M6557.487,1004.416c-.027,0-.055,0-.082,0a.97.97,0,0,1-.886-1.047l4.035-48.618a.97.97,0,0,1,1.933.16l-4.036,48.618A.969.969,0,0,1,6557.487,1004.416Z" transform="translate(-6526.456 -924.655)" fill="#78bd36"/><path d="M6605.823,1123.869a.969.969,0,0,1-.965-.89l-.849-10.2a.97.97,0,1,1,1.933-.161l.849,10.2a.97.97,0,0,1-.886,1.047C6605.878,1123.868,6605.851,1123.869,6605.823,1123.869Z" transform="translate(-6562.432 -1044.249)" fill="#78bd36"/><path d="M6475.436,899.811a.967.967,0,0,1-.711-.311l-4.039-4.364a.969.969,0,0,1-.25-.531l-3.93-29.729a.97.97,0,0,1,1.923-.254l3.89,29.424,2.922,3.158,2.146-3.841-4.38-33.134a.969.969,0,0,1,.371-.9l25.929-19.917.939-3.946-4.055-.109-26.425,20.3a.969.969,0,0,1-.961.127l-29.725-12.294-4.095,1.071,2.141,3.655,29.092,12.031a.97.97,0,1,1-.741,1.792l-29.393-12.156a.964.964,0,0,1-.467-.406l-2.952-5.041a.97.97,0,0,1,.591-1.429l5.648-1.477a.966.966,0,0,1,.616.042l29.508,12.2,26.254-20.167a.981.981,0,0,1,.617-.2l5.593.151a.97.97,0,0,1,.917,1.194l-1.3,5.443a.973.973,0,0,1-.353.545L6475,860.528l4.349,32.9a.976.976,0,0,1-.115.6l-2.954,5.288a.972.972,0,0,1-.847.5Z" transform="translate(-6432.531 -833.41)" fill="#78bd36"/><path d="M6571.232,929.744a4.384,4.384,0,1,1,4.043-2.68.97.97,0,0,1-1.787-.755,2.426,2.426,0,0,0,.192-.953,2.448,2.448,0,1,0-2.448,2.448.97.97,0,0,1,0,1.94Z" transform="translate(-6534.28 -899.74)" fill="#78bd36"/><path d="M6565.064,1161.028a.97.97,0,0,1-.97-.97v-3.789h-14.933v2.819h12.52a.97.97,0,0,1,0,1.94h-13.489a.97.97,0,0,1-.97-.97V1155.3a.97.97,0,0,1,.97-.97h16.872a.97.97,0,0,1,.97.97v4.758A.97.97,0,0,1,6565.064,1161.028Z" transform="translate(-6519.415 -1076.521)" fill="#78bd36"/></g><g transform="translate(1951.225 639.843)"><path d="M6852.791,1004.416c-.027,0-.054,0-.082,0a.969.969,0,0,1-.886-1.047l4.035-48.618a.97.97,0,0,1,1.933.16l-4.036,48.618A.97.97,0,0,1,6852.791,1004.416Z" transform="translate(-6821.064 -908.674)" fill="#78bd36"/><path d="M6891.174,1004.166a.971.971,0,0,1-.966-.89l-4.033-48.513a.97.97,0,1,1,1.933-.161l4.034,48.513a.97.97,0,0,1-.887,1.047C6891.228,1004.165,6891.2,1004.166,6891.174,1004.166Z" transform="translate(-6847.086 -908.564)" fill="#78bd36"/><path d="M6794.252,833.732h-.053l-5.937-.323a.968.968,0,0,1-.549-.208L6764.2,814.586a.97.97,0,1,1,1.2-1.521l23.271,18.422,4.3.234-1.133-4.252-26.2-20.745a.969.969,0,0,1-.357-.9l4.757-32.347-2.072-3.488-2.988,2.744-4.849,32.967a.969.969,0,0,1-.6.76l-29.9,11.859-2.195,3.619,4.081,1.135,29.264-11.607a.97.97,0,0,1,.715,1.8l-29.567,11.727a.968.968,0,0,1-.617.033l-5.628-1.565a.97.97,0,0,1-.57-1.437l3.028-4.991a.967.967,0,0,1,.472-.4l29.683-11.772,4.817-32.753a.971.971,0,0,1,.3-.573l4.122-3.784a.969.969,0,0,1,1.489.219l2.857,4.81a.971.971,0,0,1,.126.636l-4.727,32.134,26.019,20.6a.97.97,0,0,1,.335.511l1.56,5.853a.97.97,0,0,1-.937,1.22Z" transform="translate(-6724.965 -767.496)" fill="#78bd36"/><path d="M6866.534,929.744a4.384,4.384,0,1,1,4.043-2.68.97.97,0,0,1-1.787-.755,2.449,2.449,0,1,0-2.256,1.495.97.97,0,1,1,0,1.94Z" transform="translate(-6828.886 -883.759)" fill="#78bd36"/><path d="M6860.366,1161.028a.97.97,0,0,1-.97-.97v-3.789h-14.933v2.819h12.52a.97.97,0,0,1,0,1.94h-13.49a.97.97,0,0,1-.97-.97V1155.3a.97.97,0,0,1,.97-.97h16.873a.97.97,0,0,1,.97.97v4.758A.97.97,0,0,1,6860.366,1161.028Z" transform="translate(-6814.021 -1060.541)" fill="#78bd36"/></g><g transform="translate(400.366 634.276)"><path d="M515.793,923.2H456.763a.97.97,0,0,1-.959-1.113c3.981-26.732,7.456-53.9,10.328-80.751a.966.966,0,0,1,.99-.866c7.051.186,14.2.133,21.253-.158a.973.973,0,0,1,1,.852c.916,7.506,1.89,15.116,2.894,22.619a.97.97,0,0,1-1.923.257c-.966-7.215-1.9-14.529-2.789-21.754-6.506.25-13.089.3-19.6.146-2.817,26.215-6.206,52.726-10.078,78.829h57.9a.97.97,0,0,1,0,1.94Z" transform="translate(-455.794 -817.09)" fill="#78bd36"/><path d="M587.543,924.592a.993.993,0,0,1-.141-.01.97.97,0,0,1-.82-1.1c3.85-26.435,7.28-53.293,10.195-79.828a.968.968,0,0,1,.992-.864c7.054.207,14.208.207,21.263,0a.973.973,0,0,1,.992.864c1.685,15.339,3.552,30.882,5.551,46.2a.97.97,0,0,1-1.923.251c-1.962-15.034-3.8-30.286-5.458-45.349-6.5.174-13.083.174-19.588,0-2.9,26.268-6.3,52.846-10.105,79.008A.97.97,0,0,1,587.543,924.592Z" transform="translate(-554.864 -818.968)" fill="#78bd36"/><path d="M764.616,1086.153H721.324a.97.97,0,0,1-.97-.97v-28.8a.97.97,0,0,1,.97-.97h43.292a.97.97,0,0,1,.97.97v28.8A.97.97,0,0,1,764.616,1086.153Zm-42.323-1.94h41.353v-26.857H722.294Z" transform="translate(-656.21 -980.042)" fill="#78bd36"/><path d="M842.846,988.408a.97.97,0,0,1-.967-.914l-1.227-21.153h-4.626l-1.158,21.151a.97.97,0,0,1-1.937-.106l1.208-22.067a.97.97,0,0,1,.969-.917h6.459a.97.97,0,0,1,.968.914l1.28,22.067a.97.97,0,0,1-.912,1.024Z" transform="translate(-741.491 -911.094)" fill="#78bd36"/><g transform="translate(80.029 84.623)"><path d="M786.841,1102.674a.97.97,0,0,1-.97-.97v-7.172a.97.97,0,1,1,1.94,0v7.172A.97.97,0,0,1,786.841,1102.674Z" transform="translate(-785.871 -1093.563)" fill="#78bd36"/><path d="M826.818,1102.674a.97.97,0,0,1-.97-.97v-7.172a.97.97,0,0,1,1.94,0v7.172A.97.97,0,0,1,826.818,1102.674Z" transform="translate(-816.155 -1093.563)" fill="#78bd36"/><path d="M866.795,1102.674a.97.97,0,0,1-.97-.97v-7.172a.97.97,0,1,1,1.94,0v7.172A.97.97,0,0,1,866.795,1102.674Z" transform="translate(-846.44 -1093.563)" fill="#78bd36"/></g><path d="M725.786,765.14a.97.97,0,0,1-.867-1.4,5.763,5.763,0,0,0-1.4-6.753.97.97,0,0,1,.756-1.7,6.372,6.372,0,0,0,5.863-2.858,6.166,6.166,0,0,0,.078-6.407.97.97,0,1,1,1.65-1.019,8.058,8.058,0,0,1-.1,8.484,8.527,8.527,0,0,1-5.556,3.669,7.7,7.7,0,0,1,.447,7.454A.97.97,0,0,1,725.786,765.14Z" transform="translate(-658.346 -744.535)" fill="#78bd36"/><path d="M565.48,798.681a.97.97,0,0,1-.867-1.4,5.763,5.763,0,0,0-1.4-6.753.97.97,0,0,1,1.247-1.486,7.671,7.671,0,0,1,1.888,9.107A.97.97,0,0,1,565.48,798.681Z" transform="translate(-536.907 -778.076)" fill="#78bd36"/><path d="M605.5,765.14a.97.97,0,0,1-.868-.536,7.7,7.7,0,0,1,.447-7.454,8.524,8.524,0,0,1-5.556-3.669,8.057,8.057,0,0,1-.1-8.484.97.97,0,1,1,1.65,1.019,6.167,6.167,0,0,0,.078,6.407,6.371,6.371,0,0,0,5.863,2.858.97.97,0,0,1,.756,1.7,5.764,5.764,0,0,0-1.4,6.753.97.97,0,0,1-.867,1.4Z" transform="translate(-563.724 -744.536)" fill="#78bd36"/><path d="M482.9,765.14a.969.969,0,0,1-.868-.536,7.7,7.7,0,0,1,.447-7.454,8.525,8.525,0,0,1-5.556-3.669,8.058,8.058,0,0,1-.1-8.484.97.97,0,0,1,1.65,1.019,6.166,6.166,0,0,0,.078,6.407,6.371,6.371,0,0,0,5.862,2.858.97.97,0,0,1,.756,1.7,5.763,5.763,0,0,0-1.4,6.753.97.97,0,0,1-.867,1.4Z" transform="translate(-470.848 -744.536)" fill="#78bd36"/></g><path d="M2475.378,716.629a24.751,24.751,0,0,1-7.4-1.113,15.025,15.025,0,0,1-4.347-2.5l-.455-.334c-.167-.122-.365-.292-.615-.508a8.849,8.849,0,0,0-1.711-1.257,16.144,16.144,0,0,1-5.611.359c-7.4-.819-12.241-6.282-11.5-12.99a11.706,11.706,0,0,1,4.437-8.037,13.211,13.211,0,0,1,9.659-2.508,16.645,16.645,0,0,1,2.394.442c2.857-2.031,9.462-5.978,16.689-5.183a18.706,18.706,0,0,1,6.8,2.2,10.639,10.639,0,0,1,1.944-.932l0,0c.131-.077.263-.153.4-.222a8.437,8.437,0,0,1,12.052,5.925c5.838,2.093,9.469,7.129,8.883,12.427a10.919,10.919,0,0,1-5.075,7.921,15.39,15.39,0,0,1-10.175,2.3,16.733,16.733,0,0,1-2.777-.548,9.28,9.28,0,0,0-1.96,1.281,9.735,9.735,0,0,1-1.018.728A22,22,0,0,1,2475.378,716.629Zm-14.546-7.655c.9,0,1.859.758,2.992,1.734.2.173.391.337.494.412l.461.339a13.364,13.364,0,0,0,3.779,2.208c5.528,1.744,12,1.245,16.481-1.271.147-.082.47-.332.784-.573,1.478-1.139,2.6-1.923,3.607-1.63a14.735,14.735,0,0,0,2.526.505,13.448,13.448,0,0,0,8.893-1.995,9.013,9.013,0,0,0,4.216-6.516c.5-4.538-2.834-8.88-8.113-10.558a.97.97,0,0,1-.668-.8,6.5,6.5,0,0,0-9.363-5.039c-.1.048-.189.1-.281.157l-.088.052a.938.938,0,0,1-.168.077,8.743,8.743,0,0,0-2.083,1.061.97.97,0,0,1-1.032.044,17.066,17.066,0,0,0-6.566-2.243c-6.894-.76-13.284,3.31-15.711,5.095a.969.969,0,0,1-.847.15,14.728,14.728,0,0,0-2.525-.5,11.141,11.141,0,0,0-8.255,2.11,9.784,9.784,0,0,0-3.7,6.72c-.627,5.682,3.4,10.144,9.786,10.85a14.224,14.224,0,0,0,5.031-.339A1.529,1.529,0,0,1,2460.832,708.974Z" transform="translate(-1552.879 -62.666)" fill="#78bd36"/><g transform="translate(777.055 685.092)"><path d="M2006.811,993.253h-3.847a.97.97,0,0,1,0-1.94h3.847a.979.979,0,0,0,.925-1.3l-11.509-33.29a.979.979,0,0,0-1.867.052l-9.463,33.29a.978.978,0,0,0,.941,1.246h4.684a.97.97,0,1,1,0,1.94h-4.684a2.919,2.919,0,0,1-2.807-3.717l9.463-33.29a2.919,2.919,0,0,1,5.566-.156l11.509,33.29a2.919,2.919,0,0,1-2.758,3.872Z" transform="translate(-1982.917 -954.127)" fill="#78bd36"/><path d="M2035.5,1109.831a.97.97,0,0,1-.97-.97v-20.1a.97.97,0,1,1,1.94,0v20.1A.97.97,0,0,1,2035.5,1109.831Z" transform="translate(-2022.02 -1055.382)" fill="#78bd36"/></g><g transform="translate(809.4 685.092)"><path d="M2138.039,993.253h-3.846a.97.97,0,1,1,0-1.94h3.846a.979.979,0,0,0,.925-1.3l-11.509-33.29a.979.979,0,0,0-1.867.052l-9.463,33.29a.979.979,0,0,0,.941,1.246h4.684a.97.97,0,0,1,0,1.94h-4.684a2.918,2.918,0,0,1-2.807-3.716l9.463-33.29a2.919,2.919,0,0,1,5.566-.156l11.509,33.29a2.919,2.919,0,0,1-2.759,3.872Z" transform="translate(-2114.146 -954.127)" fill="#78bd36"/><path d="M2166.733,1109.831a.97.97,0,0,1-.97-.97v-20.1a.97.97,0,1,1,1.94,0v20.1A.97.97,0,0,1,2166.733,1109.831Z" transform="translate(-2153.248 -1055.382)" fill="#78bd36"/></g><g transform="translate(1430.191 685.092)"><path d="M4656.731,993.253h-3.847a.97.97,0,0,1,0-1.94h3.847a.979.979,0,0,0,.925-1.3l-11.509-33.29a.979.979,0,0,0-1.867.052l-9.463,33.29a.979.979,0,0,0,.941,1.246h4.684a.97.97,0,0,1,0,1.94h-4.684a2.918,2.918,0,0,1-2.807-3.716l9.463-33.29a2.918,2.918,0,0,1,5.565-.156l11.51,33.29a2.919,2.919,0,0,1-2.759,3.872Z" transform="translate(-4632.838 -954.127)" fill="#78bd36"/><path d="M4685.426,1109.831a.97.97,0,0,1-.97-.97v-20.1a.97.97,0,1,1,1.939,0v20.1A.97.97,0,0,1,4685.426,1109.831Z" transform="translate(-4671.941 -1055.382)" fill="#78bd36"/></g><g transform="translate(1286.434 685.091)"><path d="M4073.479,993.251h-3.846a.97.97,0,1,1,0-1.94h3.846a.979.979,0,0,0,.926-1.3l-11.509-33.29a.979.979,0,0,0-1.867.052l-9.463,33.29a.979.979,0,0,0,.942,1.246h4.684a.97.97,0,0,1,0,1.94h-4.684a2.918,2.918,0,0,1-2.807-3.717l9.463-33.29a2.919,2.919,0,0,1,5.566-.156l11.509,33.29a2.918,2.918,0,0,1-2.758,3.872Z" transform="translate(-4049.586 -954.124)" fill="#78bd36"/><path d="M4102.173,1109.831a.97.97,0,0,1-.97-.97v-20.1a.97.97,0,1,1,1.939,0v20.1A.97.97,0,0,1,4102.173,1109.831Z" transform="translate(-4088.688 -1055.381)" fill="#78bd36"/></g><g transform="translate(1462.535 685.092)"><path d="M4787.959,993.252h-3.847a.97.97,0,0,1,0-1.94h3.847a.979.979,0,0,0,.925-1.3l-11.51-33.29a.978.978,0,0,0-1.866.052l-9.463,33.29a.979.979,0,0,0,.941,1.246h4.684a.97.97,0,0,1,0,1.94h-4.684a2.919,2.919,0,0,1-2.807-3.717l9.463-33.29a2.918,2.918,0,0,1,5.565-.156l11.509,33.29a2.918,2.918,0,0,1-2.758,3.872Z" transform="translate(-4764.066 -954.125)" fill="#78bd36"/><path d="M4816.654,1109.831a.97.97,0,0,1-.97-.97v-20.1a.97.97,0,0,1,1.94,0v20.1A.97.97,0,0,1,4816.654,1109.831Z" transform="translate(-4803.169 -1055.382)" fill="#78bd36"/></g><g transform="translate(531.712 685.091)"><path d="M1021.422,993.251h-3.847a.97.97,0,1,1,0-1.94h3.847a.979.979,0,0,0,.925-1.3l-11.509-33.29a.979.979,0,0,0-1.867.052l-9.463,33.29a.979.979,0,0,0,.942,1.246h4.684a.97.97,0,0,1,0,1.94h-4.684a2.919,2.919,0,0,1-2.807-3.717l9.463-33.29a2.918,2.918,0,0,1,5.565-.156l11.509,33.29a2.918,2.918,0,0,1-2.758,3.872Z" transform="translate(-997.529 -954.124)" fill="#78bd36"/><path d="M1050.116,1109.831a.97.97,0,0,1-.97-.97v-20.1a.97.97,0,1,1,1.94,0v20.1A.97.97,0,0,1,1050.116,1109.831Z" transform="translate(-1036.631 -1055.381)" fill="#78bd36"/></g><g transform="translate(2047.989 685.685)"><g transform="translate(0 0)"><path d="M7147.959,995.7h-3.847a.97.97,0,0,1,0-1.94h3.847a.979.979,0,0,0,.925-1.3l-11.509-33.29a.979.979,0,0,0-1.867.052l-9.464,33.29a.98.98,0,0,0,.942,1.247h4.684a.97.97,0,0,1,0,1.94h-4.684a2.919,2.919,0,0,1-2.807-3.717l9.463-33.29a2.919,2.919,0,0,1,5.566-.156l11.509,33.29a2.918,2.918,0,0,1-2.758,3.872Z" transform="translate(-7124.067 -956.575)" fill="#78bd36"/><path d="M7176.654,1112.281a.97.97,0,0,1-.97-.97v-20.1a.97.97,0,0,1,1.94,0v20.1A.97.97,0,0,1,7176.654,1112.281Z" transform="translate(-7163.168 -1057.832)" fill="#78bd36"/></g><g transform="translate(22.917 0)"><path d="M7230.331,971.073a.971.971,0,0,1-.917-.653l-3.888-11.246a.979.979,0,0,0-1.867.052l-3.167,11.142a.97.97,0,1,1-1.866-.53l3.167-11.141a2.871,2.871,0,0,1,2.726-2.119h.088a2.868,2.868,0,0,1,2.752,1.965l3.888,11.245a.971.971,0,0,1-.917,1.287Z" transform="translate(-7218.59 -956.576)" fill="#78bd36"/></g><g transform="translate(54.65 0)"><path d="M7361.212,971.073a.971.971,0,0,1-.917-.653l-3.888-11.245a.979.979,0,0,0-1.867.052l-3.167,11.141a.97.97,0,1,1-1.866-.53l3.167-11.141a2.918,2.918,0,0,1,5.565-.155l3.888,11.245a.971.971,0,0,1-.916,1.287Z" transform="translate(-7349.47 -956.575)" fill="#78bd36"/></g><g transform="translate(31.733 0)"><path d="M7278.84,995.7h-3.847a.97.97,0,0,1,0-1.94h3.847a.98.98,0,0,0,.926-1.3l-11.51-33.29a.979.979,0,0,0-1.867.052l-9.463,33.29a.98.98,0,0,0,.941,1.247h4.685a.97.97,0,0,1,0,1.94h-4.685a2.919,2.919,0,0,1-2.807-3.717l9.463-33.29a2.87,2.87,0,0,1,2.726-2.119h.088a2.868,2.868,0,0,1,2.752,1.965l11.51,33.29a2.919,2.919,0,0,1-2.759,3.872Z" transform="translate(-7254.947 -956.576)" fill="#78bd36"/><path d="M7307.535,1112.281a.969.969,0,0,1-.97-.97v-20.1a.97.97,0,1,1,1.939,0v20.1A.97.97,0,0,1,7307.535,1112.281Z" transform="translate(-7294.05 -1057.832)" fill="#78bd36"/></g><g transform="translate(63.465 0)"><path d="M7409.721,995.7h-3.847a.97.97,0,0,1,0-1.94h3.847a.98.98,0,0,0,.925-1.3l-11.509-33.29a.979.979,0,0,0-1.867.052l-9.463,33.29a.979.979,0,0,0,.941,1.247h4.684a.97.97,0,0,1,0,1.94h-4.684a2.919,2.919,0,0,1-2.808-3.717l9.464-33.29a2.918,2.918,0,0,1,5.565-.156l11.509,33.29a2.919,2.919,0,0,1-2.758,3.872Z" transform="translate(-7385.828 -956.575)" fill="#78bd36"/><path d="M7438.415,1112.281a.97.97,0,0,1-.97-.97v-20.1a.97.97,0,0,1,1.94,0v20.1A.97.97,0,0,1,7438.415,1112.281Z" transform="translate(-7424.93 -1057.832)" fill="#78bd36"/></g></g><g transform="translate(1685.46 685.685)"><g transform="translate(0 0)"><path d="M5689.377,995.7h-3.846a.97.97,0,1,1,0-1.94h3.846a.979.979,0,0,0,.926-1.3l-11.509-33.29a.979.979,0,0,0-1.867.052l-9.463,33.29a.979.979,0,0,0,.941,1.247h4.684a.97.97,0,0,1,0,1.94H5668.4a2.919,2.919,0,0,1-2.807-3.717l9.463-33.29a2.919,2.919,0,0,1,5.566-.156l11.509,33.29a2.919,2.919,0,0,1-2.759,3.872Z" transform="translate(-5665.484 -956.576)" fill="#78bd36"/><path d="M5718.072,1112.281a.97.97,0,0,1-.97-.97v-20.1a.97.97,0,1,1,1.939,0v20.1A.97.97,0,0,1,5718.072,1112.281Z" transform="translate(-5704.587 -1057.832)" fill="#78bd36"/></g><g transform="translate(22.917 0)"><path d="M5771.748,971.073a.971.971,0,0,1-.917-.653l-3.888-11.245a.979.979,0,0,0-1.867.052l-3.167,11.141a.97.97,0,0,1-1.866-.53l3.167-11.141a2.919,2.919,0,0,1,5.566-.156l3.888,11.245a.971.971,0,0,1-.917,1.287Z" transform="translate(-5760.007 -956.575)" fill="#78bd36"/></g><g transform="translate(54.65 0)"><path d="M5902.629,971.073a.97.97,0,0,1-.917-.653l-3.888-11.246a.979.979,0,0,0-1.867.052l-3.167,11.142a.97.97,0,0,1-1.866-.53l3.167-11.141a2.871,2.871,0,0,1,2.726-2.119h.088a2.869,2.869,0,0,1,2.752,1.965l3.888,11.245a.971.971,0,0,1-.917,1.287Z" transform="translate(-5890.888 -956.576)" fill="#78bd36"/></g><g transform="translate(31.733 0)"><path d="M5820.258,995.7h-3.847a.97.97,0,0,1,0-1.94h3.847a.979.979,0,0,0,.925-1.3l-11.509-33.29a.979.979,0,0,0-1.867.052l-9.463,33.29a.979.979,0,0,0,.942,1.247h4.683a.97.97,0,1,1,0,1.94h-4.683a2.919,2.919,0,0,1-2.808-3.717l9.463-33.29a2.919,2.919,0,0,1,5.566-.156l11.509,33.29a2.919,2.919,0,0,1-2.758,3.872Z" transform="translate(-5796.365 -956.576)" fill="#78bd36"/><path d="M5848.952,1112.281a.97.97,0,0,1-.97-.97v-20.1a.97.97,0,1,1,1.939,0v20.1A.97.97,0,0,1,5848.952,1112.281Z" transform="translate(-5835.468 -1057.832)" fill="#78bd36"/></g><g transform="translate(63.465 0)"><path d="M5951.139,995.7h-3.847a.97.97,0,0,1,0-1.94h3.847a.979.979,0,0,0,.925-1.3l-11.509-33.29a.979.979,0,0,0-1.867.052l-9.463,33.29a.979.979,0,0,0,.941,1.247h4.684a.97.97,0,1,1,0,1.94h-4.684a2.919,2.919,0,0,1-2.807-3.717l9.463-33.29a2.919,2.919,0,0,1,5.566-.156l11.509,33.29a2.918,2.918,0,0,1-2.758,3.872Z" transform="translate(-5927.246 -956.576)" fill="#78bd36"/><path d="M5979.833,1112.281a.97.97,0,0,1-.97-.97v-20.1a.97.97,0,1,1,1.939,0v20.1A.97.97,0,0,1,5979.833,1112.281Z" transform="translate(-5966.348 -1057.832)" fill="#78bd36"/></g></g><g transform="translate(1502.013 683.845)"><path d="M4977.295,957.74h.046a4.233,4.233,0,0,0,4.321-4.329,4.38,4.38,0,0,0-4.373-4.427h-.006a4.26,4.26,0,0,0-4.33,4.433A4.136,4.136,0,0,0,4977.295,957.74Zm-1.714-6.15a2.35,2.35,0,0,1,1.709-.667,2.4,2.4,0,0,1,1.715.712,2.468,2.468,0,0,1,.718,1.766,2.291,2.291,0,0,1-2.4,2.4h-.029a2.208,2.208,0,0,1-2.4-2.392A2.529,2.529,0,0,1,4975.581,951.591Z" transform="translate(-4960.943 -948.984)" fill="#78bd36"/><path d="M4988.466,1102.166a.97.97,0,0,0-.97.97v16.489a.97.97,0,1,0,1.939,0v-16.489A.97.97,0,0,0,4988.466,1102.166Z" transform="translate(-4971.96 -1065.026)" fill="#78bd36"/><path d="M5071.21,1059.3a3.066,3.066,0,1,0-2.967-3.064A3.02,3.02,0,0,0,5071.21,1059.3Zm0-4.189a1.129,1.129,0,1,1-1.027,1.125A1.081,1.081,0,0,1,5071.21,1055.116Z" transform="translate(-5033.13 -1027.914)" fill="#78bd36"/><path d="M4970.3,1007.583a2.193,2.193,0,0,0-.265-2.728l-.046-.047a2.192,2.192,0,0,0-3.347.244.972.972,0,0,0-.083.136l-2.86,5.733a8.771,8.771,0,0,0-4.138.015l-3.5-5.742c-.013-.021-.027-.043-.042-.063a2.185,2.185,0,0,0-.86-.7,2.749,2.749,0,0,0,.34-3.485l-7.707-11.532a.924.924,0,0,0-.1-.129,2.811,2.811,0,0,0-.919-.644.969.969,0,0,0-.348-.08c-3.18-.13-3.864-.034-4.178.452L4939.8,991.5l-2.452-2.5a1.519,1.519,0,0,0-1.266-.711l-1.576-.019h-.051l-.57.023a2.808,2.808,0,0,0-1.978.828l-6.843,6.843a5.482,5.482,0,0,0-1.633,3.536,5.309,5.309,0,0,0,1.562,4.124l4.105,4.105a2.823,2.823,0,0,0,3.229.545l-.615,8.532a.97.97,0,0,0,.967,1.04h1.214l0,4.073c0,4.043,0,9.037.006,11.437a.97.97,0,0,0,.97.969h0a.969.969,0,0,0,.969-.971c0-2.4,0-7.394-.006-11.436l0-5.043a.97.97,0,0,0-.97-.969h-1.142l1.453-20.164a.97.97,0,1,0-1.935-.14l-.556,7.715-3.481-3.482,3.322-3.094a.97.97,0,0,0-1.322-1.42l-3.559,3.314-.025.024a1.652,1.652,0,0,0,0,2.335l4.049,4.049a1.01,1.01,0,0,1,.29.723.848.848,0,0,1-.25.6.909.909,0,0,1-1.239-.016l-4.105-4.106a3.393,3.393,0,0,1-1-2.637,3.547,3.547,0,0,1,1.068-2.28l6.843-6.843a.882.882,0,0,1,.628-.26h.039l.562-.022,1.328.016.036.039,3.235,3.3a.971.971,0,0,0,.692.291h0a.97.97,0,0,0,.691-.29l3.037-3.089c.479-.032,1.6-.021,2.6.015a.9.9,0,0,1,.107.083l7.652,11.45a.825.825,0,1,1-1.379.906l-6.325-9.8a.97.97,0,0,0-1.778.415l-.059.507a.95.95,0,0,0,0,.175l1.419,21.691h-1.148a.97.97,0,0,0-.97.969l0,4.385c0,4.143,0,9.563-.006,12.095a.97.97,0,0,0,.969.971h0a.97.97,0,0,0,.97-.969c0-2.532,0-7.952.006-12.1v-3.415h1.214a.97.97,0,0,0,.968-1.033l-1.287-19.659,4.4,6.821a2.768,2.768,0,0,0,1.576,1.162,2.193,2.193,0,0,0-.069,2.556l4.762,7.774a1.5,1.5,0,0,1,.222.86l-.172,3.653-.714,11.254a2.379,2.379,0,0,0,2.265,2.528l.111,0a2.381,2.381,0,0,0,2.36-2.089l.361-1.824.31,1.775a2.366,2.366,0,0,0,2.464,2.135h.015a2.383,2.383,0,0,0,2.267-2.481l-.493-11.262-.024-3.983a1.519,1.519,0,0,1,.169-.706Zm-5.739,6.855a3.469,3.469,0,0,0-.388,1.61l.025,4c0,.012,0,.024,0,.036l.493,11.28a.44.44,0,0,1-.413.458h-.008a.439.439,0,0,1-.458-.4c0-.03-.006-.059-.011-.088l-1.212-6.945a.97.97,0,0,0-.944-.8h-.011a.969.969,0,0,0-.951.781l-1.38,6.973a.807.807,0,0,0-.014.091.44.44,0,0,1-.877-.072l.715-11.269.173-3.669a3.433,3.433,0,0,0-.5-1.966l-4.776-7.8c-.01-.017-.021-.034-.033-.051a.253.253,0,0,1,.025-.321l.046-.047a.245.245,0,0,1,.18-.077h.02a.247.247,0,0,1,.171.085l3.856,6.318a.971.971,0,0,0,1.138.414,7.148,7.148,0,0,1,4.481,0,.97.97,0,0,0,1.178-.486l3.165-6.344a.247.247,0,0,1,.153-.066.24.24,0,0,1,.2.075l.046.047a.253.253,0,0,1,.025.322,1.012,1.012,0,0,0-.067.111Z" transform="translate(-4923.418 -978.745)" fill="#78bd36"/></g><g transform="translate(845.21 691.07)"><g transform="translate(0)"><g transform="translate(0 10.803)"><path d="M2260.658,1061.415a3.09,3.09,0,0,1-2.817-4.35c.007-.015.014-.03.021-.045l4.4-8.633,2.7-20.878a4.789,4.789,0,0,1,1.653-3.088,4.365,4.365,0,0,1,3.367-1.052,4.725,4.725,0,0,1,2.4,1.011,5.346,5.346,0,0,1,1.268,1.49l2.988,5.1,5.772,1.032.035.007a2.9,2.9,0,0,1,2.27,3.219,2.96,2.96,0,0,1-3.247,2.521l-.032,0-6.726-.925c-.31-.035-1.03-.151-3.252-3.009a.97.97,0,0,1,1.531-1.191,15.666,15.666,0,0,0,2.082,2.292l6.611.909a1.008,1.008,0,0,0,1.109-.84.981.981,0,0,0-.743-1.074l-6.191-1.107a.971.971,0,0,1-.666-.464l-3.214-5.484a3.424,3.424,0,0,0-.8-.955,2.751,2.751,0,0,0-1.412-.6,2.448,2.448,0,0,0-1.883.6,2.9,2.9,0,0,0-.987,1.849l-2.724,21.057a.96.96,0,0,1-.1.316l-4.464,8.757a1.15,1.15,0,0,0,2.052,1.026l5.147-8.806c.131-.483.633-2.789,1.07-4.867a.97.97,0,0,1,1.856-.143l5.161,13.689a1.062,1.062,0,0,0,1.972-.775l-5.787-17.315a.97.97,0,1,1,1.839-.615l5.792,17.328a3,3,0,0,1-5.6,2.146c-.008-.017-.015-.035-.022-.053l-4.008-10.631a9.262,9.262,0,0,1-.549,2.124l-5.2,8.9A3.1,3.1,0,0,1,2260.658,1061.415Z" transform="translate(-2257.572 -1023.341)" fill="#78bd36"/></g><path d="M2295.706,988.94a5.2,5.2,0,0,1-4.517-7.554,4.764,4.764,0,0,1,2.817-2.383,5.058,5.058,0,0,1,6.248,3.38,5.126,5.126,0,0,1-.308,3.956,4.76,4.76,0,0,1-4.24,2.6Zm-.272-8.217a2.825,2.825,0,0,0-2.522,1.553,3.2,3.2,0,0,0-.185,2.47,3.116,3.116,0,0,0,3.821,2.125,2.839,2.839,0,0,0,1.675-1.423,3.2,3.2,0,0,0,.185-2.47h0A3.19,3.19,0,0,0,2295.435,980.723Z" transform="translate(-2282.609 -978.784)" fill="#78bd36"/><path d="M2300.13,1110.411a.97.97,0,0,1-.9-.618l-.678-1.738a.97.97,0,1,1,1.807-.705l.678,1.738a.971.971,0,0,1-.9,1.323Z" transform="translate(-2288.563 -1075.711)" fill="#78bd36"/></g><g transform="translate(25.325 5.868)"><g transform="translate(50.024 4.503)"><path d="M2628.933,1042.9h-8.515a2.764,2.764,0,1,1,0-5.528h8.515a2.764,2.764,0,0,1,0,5.528Zm-8.515-3.589a.825.825,0,1,0,0,1.649h8.515a.825.825,0,0,0,0-1.649Z" transform="translate(-2605.699 -1033.537)" fill="#78bd36"/><path d="M2631.784,1062.311h-5.092a.97.97,0,0,1-.827-.464l-2.046-3.344a.969.969,0,0,1-.143-.506v-4.144a.97.97,0,1,1,1.94,0v3.871l1.619,2.648h4l1.62-2.648v-3.871a.97.97,0,1,1,1.939,0V1058a.969.969,0,0,1-.143.506l-2.046,3.344A.97.97,0,0,1,2631.784,1062.311Z" transform="translate(-2610.262 -1045.288)" fill="#78bd36"/><path d="M2652.127,1026.92a.97.97,0,0,1-.97-.97v-3.423a.97.97,0,1,1,1.94,0v3.423A.97.97,0,0,1,2652.127,1026.92Z" transform="translate(-2631.079 -1021.557)" fill="#78bd36"/><path d="M2635.148,1026.92a.97.97,0,0,1-.97-.97v-3.423a.97.97,0,1,1,1.94,0v3.423A.97.97,0,0,1,2635.148,1026.92Z" transform="translate(-2618.217 -1021.557)" fill="#78bd36"/><path d="M2638.575,1097.392h-4.744a.97.97,0,1,1,0-1.94h4.744a.97.97,0,0,1,0,1.94Z" transform="translate(-2617.219 -1077.536)" fill="#78bd36"/><path d="M2641.033,1109.427H2638.6a.97.97,0,1,1,0-1.94h2.429a.97.97,0,1,1,0,1.94Z" transform="translate(-2620.835 -1086.653)" fill="#78bd36"/><path d="M2582.452,1096.192a5.854,5.854,0,0,1-5.847-5.847V1080.04a4.127,4.127,0,0,0-4.122-4.122,4.08,4.08,0,0,0-2.564.894.97.97,0,0,1-1.207-1.518,6.062,6.062,0,0,1,9.833,4.747v10.305a3.908,3.908,0,1,0,7.815,0v-6.977a.97.97,0,1,1,1.94,0v6.977A5.854,5.854,0,0,1,2582.452,1096.192Z" transform="translate(-2568.346 -1061.268)" fill="#78bd36"/></g><path d="M2366.887,1041.841a14.378,14.378,0,0,1-2.483-.113,2.671,2.671,0,0,1-2.289-2.546l-.041-5.61a1.39,1.39,0,0,1,.031-.3,2.848,2.848,0,0,1-.029-.366l-.052-7.72c-.017-1.963,2.386-5.28,3.72-6.969a4.17,4.17,0,0,1-1.059-2.832,2.73,2.73,0,0,1,.941-2.27c.4-.3,1.119-.6,3.42-.6.893-2.092,1.586-3.573,2.061-4.407,1.678-2.945,4.581-4.517,8.875-4.805,2.961-.193,6.493-.314,6.528-.315h.051c.035,0,3.57.069,6.536.223,4.3.222,7.222,1.751,8.941,4.674.488.833,1.2,2.308,2.128,4.392,2.2-.006,2.9.271,3.286.555a2.73,2.73,0,0,1,.979,2.263,4.3,4.3,0,0,1-.913,2.732c1.44,1.789,3.573,4.847,3.589,7.267l.054,7.464a3.227,3.227,0,0,1-.024.389,1.28,1.28,0,0,1,.032.275l.038,5.62a2.691,2.691,0,0,1-2.226,2.565,33.04,33.04,0,0,1-4.726.13c-3.254.017-7.711.041-11.889.217a.97.97,0,0,1-.082-1.938c4.213-.178,8.691-.2,11.961-.219,1.99-.01,3.872-.021,4.25-.068.358-.1.775-.307.773-.674l-.037-5.533a1.458,1.458,0,0,1-.037-.177.983.983,0,0,1,0-.241l.013-.11a2.044,2.044,0,0,0,.02-.223l-.054-7.464c-.01-1.5-1.513-4.191-3.828-6.864a.97.97,0,0,1,.317-1.511c.061-.029.124-.057.188-.085a2.164,2.164,0,0,0,.215-.1,2.246,2.246,0,0,0,.432-1.437,1.1,1.1,0,0,0-.175-.7,8.032,8.032,0,0,0-2.752-.181.962.962,0,0,1-.914-.579c-1.008-2.3-1.8-3.949-2.285-4.78-1.381-2.349-3.722-3.531-7.369-3.72-2.8-.146-6.122-.214-6.446-.22-.325.011-3.645.129-6.441.311-3.643.245-5.969,1.462-7.318,3.83-.475.833-1.24,2.492-2.213,4.8a.967.967,0,0,1-.911.593,8.382,8.382,0,0,0-2.883.216,1.112,1.112,0,0,0-.162.7,2.259,2.259,0,0,0,.449,1.436,2.736,2.736,0,0,0,.474.22l.034.014a.97.97,0,0,1,.38,1.526c-2.608,3.089-4.007,5.709-4,6.606l.052,7.723a1.775,1.775,0,0,0,.022.195l.014.1a.974.974,0,0,1,0,.274c-.009.057-.021.113-.035.167l.041,5.542c0,.433.555.611.793.667.435.091,3.01.062,5.5.033,3.179-.036,7.135-.081,10.957.016a.97.97,0,1,1-.049,1.939c-3.786-.1-7.723-.052-10.886-.016C2368.913,1041.829,2367.771,1041.841,2366.887,1041.841Z" transform="translate(-2362.023 -1002.985)" fill="#78bd36"/><path d="M2383.25,1098.889a.97.97,0,0,1-.842-.487,3.883,3.883,0,0,1,3.345-5.814h.027a3.883,3.883,0,0,1,3.881,3.858.97.97,0,0,1-.963.976h-.007a.97.97,0,0,1-.969-.963,1.936,1.936,0,0,0-.578-1.372,1.943,1.943,0,0,0-3.308,1.4,1.934,1.934,0,0,0,.256.95.97.97,0,0,1-.84,1.453Z" transform="translate(-2377.077 -1070.864)" fill="#78bd36"/><path d="M2389.737,1109.4a3.862,3.862,0,0,1-2.2-.68.97.97,0,0,1,1.1-1.6,1.908,1.908,0,0,0,1.112.34,1.942,1.942,0,0,0,1.928-1.955.97.97,0,0,1,.963-.976h.006a.97.97,0,0,1,.97.963,3.882,3.882,0,0,1-3.855,3.907Z" transform="translate(-2381.035 -1079.909)" fill="#78bd36"/><path d="M2512.068,1098.326a.968.968,0,0,1-.774-.385,3.884,3.884,0,0,1,3.067-6.224h.027a3.889,3.889,0,0,1,3.885,3.858.97.97,0,0,1-.963.976h-.007a.97.97,0,0,1-.969-.963,1.947,1.947,0,0,0-1.945-1.932h-.013a1.944,1.944,0,0,0-1.533,3.115.97.97,0,0,1-.773,1.555Z" transform="translate(-2474.509 -1070.204)" fill="#78bd36"/><path d="M2520,1108.529a3.855,3.855,0,0,1-1.484-.3.97.97,0,0,1,.744-1.791,1.958,1.958,0,0,0,.754.147,1.94,1.94,0,0,0,1.932-1.955.97.97,0,0,1,.963-.976h.007a.97.97,0,0,1,.97.963,3.88,3.88,0,0,1-3.858,3.907Z" transform="translate(-2480.117 -1079.25)" fill="#78bd36"/><path d="M2439.562,1147.173a.97.97,0,0,1-.969-.963l-.038-5.6a.97.97,0,0,1,.963-.976l10.45-.071h.007a.97.97,0,0,1,.97.963l.038,5.6a.97.97,0,0,1-.964.976l-10.45.071Zm.939-5.61.025,3.664,8.51-.057-.025-3.664Z" transform="translate(-2419.999 -1106.446)" fill="#78bd36"/><path d="M2422.742,1093.669a.97.97,0,0,1-.006-1.94l17.24-.117h.006a.97.97,0,0,1,.007,1.94l-17.24.117Z" transform="translate(-2407.285 -1070.124)" fill="#78bd36"/><path d="M2422.835,1107.518a.97.97,0,0,1-.006-1.94l17.24-.117h.007a.97.97,0,0,1,.007,1.94l-17.24.117Z" transform="translate(-2407.357 -1080.616)" fill="#78bd36"/><path d="M2422.93,1121.368a.97.97,0,0,1-.006-1.94l17.24-.117h.006a.97.97,0,0,1,.006,1.94l-17.24.117Z" transform="translate(-2407.428 -1091.107)" fill="#78bd36"/><g transform="translate(8.18 3.551)"><path d="M2396.729,1030.585a.97.97,0,0,1-.844-1.445c1.664-2.961,3.661-6.42,4.317-7.557l.232-.4c.73-1.282,2.172-3.02,6.237-3.293,2.288-.149,4.951-.243,5.247-.254h.052c.118,0,2.916.058,5.251.18,1.949.1,4.72.542,6.282,3.2l.134.226c1.792,3.022,3.292,5.612,4.461,7.7a.97.97,0,0,1-.84,1.444l-26.979.182h-.007a.97.97,0,0,1-.006-1.94l25.329-.171c-1.019-1.788-2.234-3.873-3.627-6.223l-.138-.233c-1.069-1.817-2.981-2.154-4.71-2.243-2.213-.115-4.852-.171-5.162-.177-.31.011-2.955.106-5.16.25-3.078.207-4.093,1.288-4.679,2.317l-.238.412c-.655,1.135-2.648,4.587-4.306,7.538A.97.97,0,0,1,2396.729,1030.585Z" transform="translate(-2395.76 -1017.633)" fill="#78bd36"/></g><path d="M2382.141,1161.109a3.1,3.1,0,0,1-3.094-3.073l-.013-2.006a.97.97,0,0,1,1.94-.013l.013,2.006a1.156,1.156,0,0,0,1.154,1.146h.008l2.963-.02a1.154,1.154,0,0,0,1.146-1.162l-.014-2.085a.97.97,0,0,1,.963-.976h.007a.969.969,0,0,1,.969.963l.014,2.085a3.1,3.1,0,0,1-3.073,3.115l-2.963.02Z" transform="translate(-2374.909 -1118.087)" fill="#78bd36"/><path d="M2515.845,1160.2a3.094,3.094,0,0,1-3.094-3.073l-.014-2.006a.97.97,0,0,1,.963-.976h.007a.97.97,0,0,1,.969.963l.014,2.006a1.146,1.146,0,0,0,.344.814,1.161,1.161,0,0,0,.818.333l2.963-.02a1.156,1.156,0,0,0,1.147-1.162l-.014-2.085a.97.97,0,1,1,1.94-.013l.014,2.084a3.1,3.1,0,0,1-3.073,3.115l-2.963.02Z" transform="translate(-2476.197 -1117.402)" fill="#78bd36"/></g><g transform="translate(107.556 4.708)"><g transform="translate(5.548 7.925)"><path d="M2730.469,1037.616v1.535h-6.4v-8.264h6.245v1.534h-4.344v1.794h3.837v1.488h-3.837v1.913Z" transform="translate(-2724.071 -1030.887)" fill="#78bd36"/><path d="M2763.73,1030.887l-3.577,8.264h-1.889l-3.565-8.264h2.066l2.515,5.9,2.55-5.9Z" transform="translate(-2747.273 -1030.887)" fill="#78bd36"/></g><path d="M2726.613,1042.579a.97.97,0,0,1-.97-.97v-41.469h-22.516v41.469a.97.97,0,1,1-1.94,0V999.171a.97.97,0,0,1,.97-.97h24.456a.97.97,0,0,1,.97.97v42.438A.97.97,0,0,1,2726.613,1042.579Z" transform="translate(-2701.187 -998.201)" fill="#78bd36"/><path d="M2737.14,1080.34h-14.622a.97.97,0,1,1,0-1.94h14.622a.97.97,0,0,1,0,1.94Z" transform="translate(-2716.612 -1058.955)" fill="#78bd36"/><path d="M2737.14,1099.844h-14.622a.97.97,0,1,1,0-1.94h14.622a.97.97,0,0,1,0,1.94Z" transform="translate(-2716.612 -1073.731)" fill="#78bd36"/><path d="M2737.14,1119.348h-14.622a.97.97,0,1,1,0-1.94h14.622a.97.97,0,0,1,0,1.94Z" transform="translate(-2716.612 -1088.506)" fill="#78bd36"/></g></g><path d="M7266.667,745.587a24.759,24.759,0,0,1-7.4-1.113,15.023,15.023,0,0,1-4.346-2.5l-.456-.335c-.167-.122-.364-.292-.615-.508a8.829,8.829,0,0,0-1.711-1.257,16.135,16.135,0,0,1-5.611.359c-7.4-.819-12.241-6.281-11.5-12.99a11.709,11.709,0,0,1,4.437-8.037,13.21,13.21,0,0,1,9.659-2.508,16.741,16.741,0,0,1,2.395.442c2.857-2.031,9.459-5.979,16.689-5.183a18.706,18.706,0,0,1,6.8,2.2,10.645,10.645,0,0,1,1.944-.932l0,0c.131-.077.263-.153.4-.222a8.467,8.467,0,0,1,11.336,3.811,8.35,8.35,0,0,1,.715,2.114c5.839,2.093,9.469,7.129,8.883,12.426a10.916,10.916,0,0,1-5.075,7.922,15.383,15.383,0,0,1-10.174,2.3,16.667,16.667,0,0,1-2.776-.548,9.3,9.3,0,0,0-1.961,1.281,9.765,9.765,0,0,1-1.018.729A22.012,22.012,0,0,1,7266.667,745.587Zm-14.546-7.655c.9,0,1.858.758,2.992,1.734.2.173.391.336.494.411l.463.34a13.357,13.357,0,0,0,3.778,2.207c5.527,1.744,12,1.245,16.481-1.271.146-.082.47-.332.783-.573,1.478-1.139,2.6-1.923,3.607-1.63a14.736,14.736,0,0,0,2.526.505,13.447,13.447,0,0,0,8.893-2,9.014,9.014,0,0,0,4.216-6.516c.5-4.538-2.834-8.88-8.112-10.558a.971.971,0,0,1-.669-.8,6.5,6.5,0,0,0-9.362-5.039c-.1.048-.189.1-.281.157l-.088.051a.99.99,0,0,1-.167.077,8.729,8.729,0,0,0-2.084,1.061.968.968,0,0,1-1.031.044,17.064,17.064,0,0,0-6.567-2.244c-6.9-.76-13.284,3.31-15.711,5.095a.97.97,0,0,1-.847.15,14.781,14.781,0,0,0-2.525-.5,11.143,11.143,0,0,0-8.255,2.11,9.782,9.782,0,0,0-3.7,6.72c-.626,5.682,3.4,10.143,9.786,10.85a14.232,14.232,0,0,0,5.032-.339A1.512,1.512,0,0,1,7252.121,737.932Z" transform="translate(-5160.077 -84.815)" fill="#78bd36"/><path d="M4973.188,730.814a22,22,0,0,1-10.611-2.542,9.794,9.794,0,0,1-1.019-.729,9.251,9.251,0,0,0-1.96-1.281,16.682,16.682,0,0,1-2.776.548,15.384,15.384,0,0,1-10.174-2.3,10.918,10.918,0,0,1-5.075-7.922c-.586-5.3,3.044-10.333,8.882-12.426a8.438,8.438,0,0,1,12.052-5.924c.137.068.268.144.4.22l.006,0a10.628,10.628,0,0,1,1.945.932,18.7,18.7,0,0,1,6.795-2.2c7.229-.8,13.833,3.152,16.689,5.183a16.689,16.689,0,0,1,2.4-.443,13.21,13.21,0,0,1,9.659,2.508,11.706,11.706,0,0,1,4.437,8.038c.74,6.708-4.1,12.171-11.5,12.989a16.157,16.157,0,0,1-5.611-.359,8.852,8.852,0,0,0-1.71,1.256c-.251.216-.449.387-.614.507l-.457.335a15.031,15.031,0,0,1-4.347,2.5A24.779,24.779,0,0,1,4973.188,730.814Zm-13.614-6.5c.9,0,1.9.715,3.168,1.692.313.241.637.491.784.573,4.484,2.515,10.953,3.015,16.48,1.271a13.367,13.367,0,0,0,3.78-2.208l.463-.34c.1-.075.292-.238.493-.411,1.282-1.1,2.339-1.929,3.327-1.7a14.239,14.239,0,0,0,5.047.342c6.388-.706,10.413-5.168,9.786-10.849a9.785,9.785,0,0,0-3.7-6.72,11.143,11.143,0,0,0-8.254-2.11,14.753,14.753,0,0,0-2.526.5.971.971,0,0,1-.847-.15c-2.427-1.785-8.812-5.854-15.711-5.095a17.071,17.071,0,0,0-6.566,2.243.969.969,0,0,1-1.031-.044,8.761,8.761,0,0,0-2.083-1.061.913.913,0,0,1-.167-.077l-.092-.053c-.091-.054-.183-.108-.278-.156a6.5,6.5,0,0,0-9.363,5.039.969.969,0,0,1-.668.8c-5.279,1.678-8.614,6.019-8.112,10.557a9.014,9.014,0,0,0,4.216,6.516,13.445,13.445,0,0,0,8.892,1.995,14.7,14.7,0,0,0,2.525-.5A1.565,1.565,0,0,1,4959.573,724.315Zm-8.255-19.426h0Z" transform="translate(-3434.873 -73.596)" fill="#78bd36"/><g transform="translate(987.12 670.605)"><g transform="translate(0 0)"><path d="M2847.976,1051.033a.97.97,0,0,1-.97-.97v-38.128a.97.97,0,1,1,1.939,0v38.128A.97.97,0,0,1,2847.976,1051.033Z" transform="translate(-2843.543 -982.698)" fill="#78bd36"/><path d="M2986.084,1075.121a.97.97,0,0,1-.97-.97v-20.8a10.124,10.124,0,1,1,20.243,0v19.75a.97.97,0,1,1-1.939,0v-19.75a8.185,8.185,0,1,0-16.364,0v20.8A.97.97,0,0,1,2986.084,1075.121Z" transform="translate(-2948.166 -1006.964)" fill="#78bd36"/><path d="M2881.051,1075.121a.97.97,0,0,1-.97-.97v-20.8a10.124,10.124,0,1,1,20.243,0v19.75a.97.97,0,1,1-1.94,0v-19.75a8.185,8.185,0,1,0-16.364,0v20.8A.97.97,0,0,1,2881.051,1075.121Z" transform="translate(-2868.599 -1006.964)" fill="#78bd36"/><path d="M2922.647,923.039h-47.29a.97.97,0,0,1-.85-1.436l8.971-16.362a.97.97,0,1,1,1.7.932L2877,921.1h45.652a.97.97,0,0,1,0,1.94Z" transform="translate(-2864.286 -902.225)" fill="#78bd36"/><path d="M3088.207,923.038a.971.971,0,0,1-.89-1.354l7.052-16.362a.97.97,0,0,1,1.781.768l-7.052,16.362A.97.97,0,0,1,3088.207,923.038Z" transform="translate(-3025.529 -902.224)" fill="#78bd36"/><path d="M3092.985,920.621a.97.97,0,0,1-.458-1.825l35.306-18.874a.971.971,0,0,1,.915,0l33.878,18.111V914.8l-34.335-18.355L3099.9,911.622a.97.97,0,0,1-.915-1.71l28.847-15.421a.97.97,0,0,1,.915,0l35.305,18.874a.97.97,0,0,1,.512.855v5.431a.97.97,0,0,1-1.427.855l-34.848-18.63-34.849,18.63A.962.962,0,0,1,3092.985,920.621Z" transform="translate(-3029.148 -894.376)" fill="#78bd36"/><g transform="translate(78.37 36.03)"><g transform="translate(22.47)"><path d="M3264.525,1058.7h-14.919a.97.97,0,0,1-.97-.97v-13.776a.97.97,0,0,1,.97-.97h14.919a.97.97,0,0,1,.97.97v13.776A.97.97,0,0,1,3264.525,1058.7Zm-13.949-1.94h12.979v-11.836h-12.979Z" transform="translate(-3248.636 -1042.981)" fill="#78bd36"/><path d="M3280.373,1058.319a.97.97,0,0,1-.97-.97v-13.381a.97.97,0,0,1,1.94,0v13.381A.97.97,0,0,1,3280.373,1058.319Z" transform="translate(-3271.943 -1042.994)" fill="#78bd36"/></g><path d="M3171.848,1058.7h-14.919a.97.97,0,0,1-.97-.97v-13.776a.97.97,0,0,1,.97-.97h14.919a.97.97,0,0,1,.97.97v13.776A.97.97,0,0,1,3171.848,1058.7Zm-13.949-1.94h12.979v-11.836H3157.9Z" transform="translate(-3155.959 -1042.981)" fill="#78bd36"/><path d="M3187.7,1058.319a.97.97,0,0,1-.97-.97v-13.381a.97.97,0,0,1,1.939,0v13.381A.97.97,0,0,1,3187.7,1058.319Z" transform="translate(-3179.266 -1042.994)" fill="#78bd36"/></g><path d="M3092.985,1051.033a.97.97,0,0,1-.97-.97v-38.128a.97.97,0,0,1,1.94,0v38.128A.97.97,0,0,1,3092.985,1051.033Z" transform="translate(-3029.148 -982.698)" fill="#78bd36"/><path d="M3375.084,1051.033a.97.97,0,0,1-.97-.97v-38.128a.97.97,0,1,1,1.939,0v38.128A.97.97,0,0,1,3375.084,1051.033Z" transform="translate(-3242.852 -982.698)" fill="#78bd36"/><path d="M2896.559,927.963h-62.866a.969.969,0,0,1-.844-1.447l12.4-21.955a.97.97,0,0,1,.844-.493H2926.2a.97.97,0,1,1,0,1.94h-79.54l-11.3,20.016h61.205a.97.97,0,0,1,0,1.94Z" transform="translate(-2832.722 -901.718)" fill="#78bd36"/><path d="M3281.182,917.6a.97.97,0,0,1-.886-.574l-4.933-11.021h-14.985a.97.97,0,0,1,0-1.94h15.613a.97.97,0,0,1,.885.574l5.19,11.594a.97.97,0,0,1-.884,1.366Z" transform="translate(-3155.957 -901.718)" fill="#78bd36"/></g><path d="M2941.375,947.556h-50.106a.97.97,0,1,1,0-1.94h50.106a.97.97,0,0,1,0,1.94Z" transform="translate(-2876.339 -933.193)" fill="#78bd36"/><path d="M2951.543,925.29H2902.7a.97.97,0,0,1,0-1.94h48.841a.97.97,0,1,1,0,1.94Z" transform="translate(-2885.001 -916.325)" fill="#78bd36"/><path d="M2929.084,923.039a.971.971,0,0,1-.85-1.436l8.971-16.362a.97.97,0,1,1,1.7.932l-8.971,16.362A.97.97,0,0,1,2929.084,923.039Z" transform="translate(-2904.986 -902.225)" fill="#78bd36"/><path d="M2982.409,923.039a.97.97,0,0,1-.849-1.436l8.971-16.362a.97.97,0,0,1,1.7.932l-8.971,16.362A.969.969,0,0,1,2982.409,923.039Z" transform="translate(-2945.383 -902.225)" fill="#78bd36"/><path d="M3035.732,923.038a.971.971,0,0,1-.87-1.4l8.04-16.362a.97.97,0,1,1,1.74.856L3036.6,922.5A.97.97,0,0,1,3035.732,923.038Z" transform="translate(-2985.777 -902.224)" fill="#78bd36"/></g><g transform="translate(665.541 705.342)"><path d="M1636.612,1063.488a.97.97,0,0,1-.929-.693l-6.923-23.207h-70.428l-6.552,21.96h80.108a.97.97,0,1,1,0,1.94h-81.41a.97.97,0,0,1-.929-1.247l7.13-23.9a.97.97,0,0,1,.929-.692h71.874a.97.97,0,0,1,.929.692l7.13,23.9a.97.97,0,0,1-.652,1.207A.98.98,0,0,1,1636.612,1063.488Z" transform="translate(-1549.508 -1037.648)" fill="#78bd36"/><g transform="translate(28.711)"><path d="M1668.9,1063.488c-.032,0-.065,0-.1,0a.97.97,0,0,1-.869-1.061l2.377-23.9a.97.97,0,1,1,1.93.192l-2.377,23.9A.97.97,0,0,1,1668.9,1063.488Z" transform="translate(-1667.927 -1037.648)" fill="#78bd36"/><path d="M1779.891,1063.487a.97.97,0,0,1-.964-.874l-2.376-23.9a.97.97,0,1,1,1.93-.192l2.376,23.9a.97.97,0,0,1-.869,1.061C1779.956,1063.485,1779.923,1063.487,1779.891,1063.487Z" transform="translate(-1750.211 -1037.647)" fill="#78bd36"/></g><path d="M1656.522,1071.471h-67.39a.97.97,0,1,1,0-1.94h67.39a.97.97,0,0,1,0,1.94Z" transform="translate(-1578.79 -1061.801)" fill="#78bd36"/><path d="M1651.8,1101.956h-71.839a.97.97,0,1,1,0-1.94H1651.8a.97.97,0,0,1,0,1.94Z" transform="translate(-1571.84 -1084.894)" fill="#78bd36"/><path d="M1747.8,1147.5a.97.97,0,0,1-.97-.97v-9.073a.97.97,0,1,1,1.94,0v9.073A.97.97,0,0,1,1747.8,1147.5Z" transform="translate(-1698.992 -1112.52)" fill="#78bd36"/><path d="M1694.88,1159.263a.97.97,0,0,1-.97-.97v-5.307a.97.97,0,0,1,1.94,0v5.307A.97.97,0,0,1,1694.88,1159.263Z" transform="translate(-1658.899 -1124.287)" fill="#78bd36"/></g><g transform="translate(569.636 705.342)"><path d="M1241.052,1063.488a.97.97,0,0,1-.929-.693l-6.923-23.207h-70.429l-6.551,21.96h80.108a.97.97,0,1,1,0,1.94h-81.409a.97.97,0,0,1-.929-1.247l7.13-23.9a.97.97,0,0,1,.929-.692h71.875a.97.97,0,0,1,.929.692l7.129,23.9a.97.97,0,0,1-.652,1.207A.981.981,0,0,1,1241.052,1063.488Z" transform="translate(-1153.948 -1037.648)" fill="#78bd36"/><g transform="translate(28.711)"><path d="M1273.338,1063.488c-.032,0-.065,0-.1,0a.97.97,0,0,1-.869-1.061l2.377-23.9a.97.97,0,1,1,1.93.192l-2.377,23.9A.97.97,0,0,1,1273.338,1063.488Z" transform="translate(-1272.367 -1037.648)" fill="#78bd36"/><path d="M1384.331,1063.487a.97.97,0,0,1-.964-.874l-2.376-23.9a.97.97,0,1,1,1.93-.192l2.376,23.9a.97.97,0,0,1-.869,1.061C1384.4,1063.485,1384.363,1063.487,1384.331,1063.487Z" transform="translate(-1354.651 -1037.647)" fill="#78bd36"/></g><path d="M1260.962,1071.471h-67.39a.97.97,0,0,1,0-1.94h67.39a.97.97,0,1,1,0,1.94Z" transform="translate(-1183.23 -1061.801)" fill="#78bd36"/><path d="M1256.237,1101.956H1184.4a.97.97,0,1,1,0-1.94h71.839a.97.97,0,0,1,0,1.94Z" transform="translate(-1176.28 -1084.894)" fill="#78bd36"/><path d="M1352.244,1147.5a.97.97,0,0,1-.97-.97v-9.073a.97.97,0,0,1,1.94,0v9.073A.97.97,0,0,1,1352.244,1147.5Z" transform="translate(-1303.432 -1112.52)" fill="#78bd36"/><path d="M1299.32,1159.263a.97.97,0,0,1-.97-.97v-5.307a.97.97,0,1,1,1.94,0v5.307A.97.97,0,0,1,1299.32,1159.263Z" transform="translate(-1263.339 -1124.287)" fill="#78bd36"/></g><g transform="translate(1203.656 665.792)"><g transform="translate(10.115)"><path d="M3810.7,891.949a.97.97,0,0,1-.929-.693l-4.413-14.793h-45.124l-4.041,13.546h51.446a.97.97,0,1,1,0,1.94H3754.89a.97.97,0,0,1-.929-1.247l4.62-15.485a.97.97,0,0,1,.929-.693h46.57a.97.97,0,0,1,.929.693l4.619,15.485a.97.97,0,0,1-.929,1.247Z" transform="translate(-3753.92 -874.524)" fill="#78bd36"/><g transform="translate(18.603 0)"><path d="M3831.619,891.95a.932.932,0,0,1-.1-.005.97.97,0,0,1-.869-1.061l1.54-15.486a.97.97,0,1,1,1.93.192l-1.54,15.485A.97.97,0,0,1,3831.619,891.95Z" transform="translate(-3830.648 -874.525)" fill="#78bd36"/><path d="M3903.534,891.95a.97.97,0,0,1-.964-.874l-1.54-15.485a.97.97,0,0,1,1.93-.192l1.54,15.486a.97.97,0,0,1-.869,1.061A.937.937,0,0,1,3903.534,891.95Z" transform="translate(-3883.962 -874.524)" fill="#78bd36"/></g><path d="M3823.6,897.123h-43.664a.97.97,0,1,1,0-1.94H3823.6a.97.97,0,0,1,0,1.94Z" transform="translate(-3772.893 -890.174)" fill="#78bd36"/><path d="M3820.539,916.874h-46.547a.97.97,0,0,1,0-1.94h46.547a.97.97,0,0,1,0,1.94Z" transform="translate(-3768.391 -905.136)" fill="#78bd36"/></g><g transform="translate(1.878 21.775)"><path d="M3720.915,990.7a.97.97,0,0,1-.97-.97V965.306a.97.97,0,0,1,1.94,0v24.428A.97.97,0,0,1,3720.915,990.7Z" transform="translate(-3719.945 -964.336)" fill="#78bd36"/><path d="M4016.972,992.782a.97.97,0,0,1-.97-.97V966.68a.97.97,0,1,1,1.939,0v25.133A.97.97,0,0,1,4016.972,992.782Z" transform="translate(-3944.222 -965.377)" fill="#78bd36"/></g><path d="M3789.209,897.3h-76.04a.97.97,0,0,1-.907-1.311l7.841-20.837a.97.97,0,0,1,.907-.628h60.357a.97.97,0,0,1,.908.628l7.842,20.837a.97.97,0,0,1-.908,1.311Zm-74.639-1.94h73.237l-7.111-18.9h-59.015Z" transform="translate(-3712.199 -874.524)" fill="#78bd36"/><g transform="translate(10.201 55.881)"><path d="M3765.548,1115.322h-10.3a.97.97,0,0,1-.97-.97v-8.376a.97.97,0,0,1,.97-.97h10.3a.97.97,0,0,1,.97.97v8.376A.97.97,0,0,1,3765.548,1115.322Zm-9.334-1.94h8.364v-6.436h-8.364Z" transform="translate(-3754.275 -1105.006)" fill="#78bd36"/><path d="M3776.494,1116.062a.97.97,0,0,1-.97-.97v-8.135a.97.97,0,1,1,1.939,0v8.135A.97.97,0,0,1,3776.494,1116.062Z" transform="translate(-3770.372 -1105.749)" fill="#78bd36"/></g><g transform="translate(55.57 55.881)"><path d="M3952.669,1115.322h-10.3a.97.97,0,0,1-.97-.97v-8.376a.97.97,0,0,1,.97-.97h10.3a.97.97,0,0,1,.97.97v8.376A.97.97,0,0,1,3952.669,1115.322Zm-9.333-1.94h8.364v-6.436h-8.364Z" transform="translate(-3941.396 -1105.006)" fill="#78bd36"/><path d="M3963.614,1116.062a.97.97,0,0,1-.97-.97v-8.135a.97.97,0,1,1,1.939,0v8.135A.97.97,0,0,1,3963.614,1116.062Z" transform="translate(-3957.492 -1105.749)" fill="#78bd36"/></g><g transform="translate(10.201 30.157)"><path d="M3765.548,1009.222h-10.3a.97.97,0,0,1-.97-.97v-8.376a.97.97,0,0,1,.97-.97h10.3a.97.97,0,0,1,.97.97v8.376A.97.97,0,0,1,3765.548,1009.222Zm-9.334-1.94h8.364v-6.436h-8.364Z" transform="translate(-3754.275 -998.907)" fill="#78bd36"/><path d="M3776.494,1009.962a.97.97,0,0,1-.97-.97v-8.135a.97.97,0,1,1,1.939,0v8.135A.97.97,0,0,1,3776.494,1009.962Z" transform="translate(-3770.372 -999.649)" fill="#78bd36"/></g><g transform="translate(32.868 30.157)"><path d="M3859.037,1009.222h-10.3a.97.97,0,0,1-.97-.97v-8.376a.97.97,0,0,1,.97-.97h10.3a.97.97,0,0,1,.97.97v8.376A.97.97,0,0,1,3859.037,1009.222Zm-9.334-1.94h8.364v-6.436H3849.7Z" transform="translate(-3847.764 -998.907)" fill="#78bd36"/><path d="M3869.982,1009.962a.97.97,0,0,1-.97-.97v-8.135a.97.97,0,1,1,1.94,0v8.135A.97.97,0,0,1,3869.982,1009.962Z" transform="translate(-3863.86 -999.649)" fill="#78bd36"/></g><g transform="translate(55.57 30.157)"><path d="M3952.669,1009.222h-10.3a.97.97,0,0,1-.97-.97v-8.376a.97.97,0,0,1,.97-.97h10.3a.97.97,0,0,1,.97.97v8.376A.97.97,0,0,1,3952.669,1009.222Zm-9.333-1.94h8.364v-6.436h-8.364Z" transform="translate(-3941.396 -998.907)" fill="#78bd36"/><path d="M3963.614,1009.962a.97.97,0,0,1-.97-.97v-8.135a.97.97,0,1,1,1.939,0v8.135A.97.97,0,0,1,3963.614,1009.962Z" transform="translate(-3957.492 -999.649)" fill="#78bd36"/></g><g transform="translate(1.878 50.277)"><path d="M4016.972,1105.76a.97.97,0,0,1-.97-.97v-21.929a.97.97,0,1,1,1.939,0v21.929A.97.97,0,0,1,4016.972,1105.76Z" transform="translate(-3944.222 -1081.891)" fill="#78bd36"/><path d="M3720.915,1105.76a.97.97,0,0,1-.97-.97v-21.929a.97.97,0,1,1,1.94,0v21.929A.97.97,0,0,1,3720.915,1105.76Z" transform="translate(-3719.945 -1081.891)" fill="#78bd36"/></g><path d="M3856.256,1114.358a.97.97,0,0,1-.97-.97v-13.4a5.491,5.491,0,1,0-10.982,0v12.419a.97.97,0,1,1-1.94,0v-12.419a7.431,7.431,0,1,1,14.862,0v13.4A.97.97,0,0,1,3856.256,1114.358Z" transform="translate(-3810.805 -1039.696)" fill="#78bd36"/><path d="M3856.6,1135.75a.97.97,0,0,1-.97-.97v-2.23a.97.97,0,1,1,1.939,0v2.23A.97.97,0,0,1,3856.6,1135.75Z" transform="translate(-3820.857 -1069.256)" fill="#78bd36"/><path d="M3797.62,1076.882h-65.7a.97.97,0,1,1,0-1.94h65.7a.97.97,0,0,1,0,1.94Z" transform="translate(-3726.402 -1026.35)" fill="#78bd36"/></g><path d="M7978.233,905.118a.97.97,0,0,1-.97-.97v-85.2h-15.741v11.224a.97.97,0,1,1-1.939,0V817.981a.97.97,0,0,1,.97-.97h17.681a.969.969,0,0,1,.97.97v86.167A.969.969,0,0,1,7978.233,905.118Z" transform="translate(-5709.02 -165.163)" fill="#78bd36"/><path d="M7577.152,901.428a.97.97,0,0,1-.97-.97V889.436a.975.975,0,0,1,.058-.33l21.389-59.1V817.981a.97.97,0,0,1,.97-.97h71.511a.97.97,0,0,1,.97.97v12.193a.986.986,0,0,1-.058.33l-21.389,59.1v8.463a.97.97,0,0,1-1.94,0v-8.634a.976.976,0,0,1,.058-.33l21.389-59.1V818.951h-69.571v11.224a.963.963,0,0,1-.058.33l-21.388,59.1v10.852A.97.97,0,0,1,7577.152,901.428Z" transform="translate(-5418.576 -165.163)" fill="#78bd36"/><path d="M7783.374,963.525a.97.97,0,0,1-.938-.727c-1.609-6.221.04-18.6,4.1-30.8,4.647-13.956,11.363-24.776,18.426-29.685a.97.97,0,0,1,1.107,1.593c-6.727,4.675-13.176,15.138-17.693,28.705-3.955,11.879-5.589,23.817-4.065,29.706a.971.971,0,0,1-.94,1.213Z" transform="translate(-5574.361 -229.649)" fill="#78bd36"/><path d="M7830.181,967.265a.97.97,0,0,1-.97-.97c0-6.524,1.744-14.327,4.911-21.973a65.815,65.815,0,0,1,11.89-19.209.97.97,0,1,1,1.42,1.32c-9.282,9.988-16.282,27.125-16.282,39.861A.97.97,0,0,1,7830.181,967.265Z" transform="translate(-5610.257 -246.586)" fill="#78bd36"/><path d="M7709.691,969.255a.97.97,0,0,1-.961-.849c-1.288-10.208.642-23.73,5.163-36.172,4.9-13.47,12.065-24.1,20.191-29.918a.97.97,0,0,1,1.13,1.577c-7.812,5.6-14.735,15.9-19.5,29-4.421,12.166-6.313,25.35-5.062,35.267a.97.97,0,0,1-.841,1.084A1,1,0,0,1,7709.691,969.255Z" transform="translate(-5518.69 -229.649)" fill="#78bd36"/><path d="M7633.132,967.787h-.017a.969.969,0,0,1-.953-.986c.284-17.3,4.326-32.506,12.014-45.2a71.66,71.66,0,0,1,16.03-18.461c.358-.3.66-.553.9-.76a.97.97,0,0,1,1.278,1.459c-.246.215-.559.477-.93.788a69.812,69.812,0,0,0-15.616,17.979c-7.507,12.4-11.455,27.282-11.734,44.231A.97.97,0,0,1,7633.132,967.787Z" transform="translate(-5460.983 -229.649)" fill="#78bd36"/><path d="M7761.062,867.3a.97.97,0,0,1-.97-.97v-10.8h-45.827v10.8a.97.97,0,1,1-1.939,0v-11.77a.97.97,0,0,1,.97-.97h47.766a.97.97,0,0,1,.97.97v11.77A.97.97,0,0,1,7761.062,867.3Z" transform="translate(-5521.71 -192.383)" fill="#78bd36"/><path d="M7844.7,867.3a.97.97,0,0,1-.97-.97v-11.77a.97.97,0,1,1,1.939,0v11.77A.97.97,0,0,1,7844.7,867.3Z" transform="translate(-5621.257 -192.383)" fill="#78bd36"/><path d="M7778.9,867.3a.97.97,0,0,1-.97-.97v-11.77a.97.97,0,1,1,1.939,0v11.77A.97.97,0,0,1,7778.9,867.3Z" transform="translate(-5571.408 -192.383)" fill="#78bd36"/><path d="M7664.83,1187.811c-3.808,0-5.774-1.882-7.509-3.542-1.683-1.612-3.137-3-6.167-3s-4.482,1.392-6.166,3c-1.734,1.661-3.7,3.542-7.508,3.542s-5.774-1.882-7.508-3.542c-1.683-1.612-3.137-3-6.166-3s-4.483,1.392-6.166,3c-1.734,1.661-3.7,3.542-7.508,3.542a.97.97,0,0,1,0-1.94c3.029,0,4.483-1.392,6.166-3,1.734-1.66,3.7-3.542,7.508-3.542s5.773,1.882,7.508,3.542c1.684,1.612,3.137,3,6.167,3s4.483-1.392,6.167-3c1.734-1.66,3.7-3.542,7.508-3.542s5.774,1.882,7.509,3.542c1.684,1.612,3.138,3,6.167,3s4.483-1.392,6.167-3c1.734-1.66,3.7-3.542,7.509-3.542a.97.97,0,0,1,0,1.94c-3.03,0-4.484,1.392-6.167,3C7670.6,1185.929,7668.639,1187.811,7664.83,1187.811Z" transform="translate(-5443.56 -439.633)" fill="#78bd36"/><path d="M7604.792,1155.823c-3.809,0-5.774-1.882-7.509-3.542-1.683-1.612-3.137-3-6.166-3s-4.484,1.392-6.167,3c-1.735,1.66-3.7,3.542-7.509,3.542-3.746,0-5.568-1.833-7.177-3.45-1.653-1.662-3.08-3.1-6.5-3.1-3.517,0-4.919,1.568-6.4,3.228-1.392,1.555-2.97,3.318-6.213,3.318-3.809,0-5.774-1.882-7.509-3.542-1.684-1.612-3.138-3-6.167-3s-4.483,1.392-6.167,3c-1.734,1.66-3.7,3.542-7.508,3.542s-5.773-1.882-7.508-3.542c-1.684-1.612-3.138-3-6.166-3s-4.483,1.392-6.167,3c-1.734,1.66-3.7,3.542-7.507,3.542a.97.97,0,1,1,0-1.94c3.029,0,4.482-1.392,6.166-3,1.734-1.66,3.7-3.542,7.508-3.542s5.773,1.882,7.508,3.542c1.683,1.612,3.137,3,6.166,3s4.483-1.392,6.167-3c1.734-1.66,3.7-3.542,7.508-3.542s5.774,1.882,7.508,3.542c1.684,1.612,3.138,3,6.167,3,2.376,0,3.431-1.179,4.767-2.672,1.544-1.726,3.466-3.874,7.85-3.874,4.224,0,6.162,1.949,7.873,3.669,1.536,1.544,2.862,2.878,5.8,2.878,3.029,0,4.483-1.392,6.167-3,1.734-1.66,3.7-3.542,7.509-3.542s5.773,1.882,7.508,3.542c1.684,1.612,3.138,3,6.167,3s4.482-1.392,6.166-3c1.734-1.66,3.7-3.542,7.508-3.542s5.773,1.882,7.508,3.542a.97.97,0,0,1-1.342,1.4c-1.683-1.612-3.137-3-6.166-3s-4.482,1.392-6.166,3C7610.565,1153.941,7608.6,1155.823,7604.792,1155.823Z" transform="translate(-5357.441 -415.401)" fill="#78bd36"/><path d="M7531.329,1116.214a3.519,3.519,0,1,1,3.519-3.518.97.97,0,0,1-1.94,0,1.579,1.579,0,1,0-1.579,1.579.97.97,0,1,1,0,1.94Z" transform="translate(-5381.932 -386.493)" fill="#78bd36"/><path d="M7914.806,1192.338a3.493,3.493,0,0,1-2.442-.987.97.97,0,1,1,1.347-1.4,1.579,1.579,0,1,0,2.193-2.272,1.587,1.587,0,0,0-1.124-.443,1.569,1.569,0,0,0-1.108.482.97.97,0,0,1-1.4-1.347,3.519,3.519,0,1,1,2.593,5.962Z" transform="translate(-5672.977 -444.16)" fill="#78bd36"/><g transform="translate(615.101 600.178)"><g transform="translate(46.61)"><path d="M1534.677,617.624a.97.97,0,0,1-.97-.97V601.148a.97.97,0,1,1,1.94,0v15.506A.97.97,0,0,1,1534.677,617.624Z" transform="translate(-1533.707 -600.178)" fill="#78bd36"/></g><g transform="translate(0 46.334)"><path d="M1677.607,793.222h-15.781a.97.97,0,1,1,0-1.94h15.781a.97.97,0,0,1,0,1.94Z" transform="translate(-1583.419 -791.282)" fill="#78bd36"/><path d="M1358.218,793.222h-15.782a.97.97,0,1,1,0-1.94h15.782a.97.97,0,1,1,0,1.94Z" transform="translate(-1341.466 -791.282)" fill="#78bd36"/></g><g transform="translate(14.113 13.837)"><path d="M1411.342,669.887a.966.966,0,0,1-.686-.284l-10.7-10.7a.97.97,0,0,1,1.372-1.372l10.7,10.7a.97.97,0,0,1-.686,1.655Z" transform="translate(-1399.674 -657.249)" fill="#78bd36"/></g><g transform="translate(68.408 14.049)"><path d="M1624.584,670.548a.97.97,0,0,1-.686-1.656l10.487-10.487a.97.97,0,0,1,1.372,1.372l-10.487,10.487A.966.966,0,0,1,1624.584,670.548Z" transform="translate(-1623.615 -658.122)" fill="#78bd36"/></g><g transform="translate(14.112 13.229)"><g transform="translate(44.284)"><path d="M1583.29,661.082a.97.97,0,0,1-.906-1.314l1.67-4.4a.97.97,0,0,1,1.814.688l-1.67,4.4A.97.97,0,0,1,1583.29,661.082Z" transform="translate(-1582.32 -654.74)" fill="#78bd36"/></g><g transform="translate(0 20.576)"><path d="M1405.169,743.261a.968.968,0,0,1-.344-.064l-4.526-1.717a.97.97,0,0,1,.688-1.814l4.526,1.717a.97.97,0,0,1-.344,1.877Z" transform="translate(-1399.673 -739.604)" fill="#78bd36"/></g><g transform="translate(18.768 0.82)"><path d="M1479.982,664.354a.971.971,0,0,1-.885-.572l-1.932-4.294a.97.97,0,0,1,1.769-.8l1.932,4.294a.97.97,0,0,1-.884,1.368Z" transform="translate(-1477.08 -658.121)" fill="#78bd36"/></g><g transform="translate(61.463 18.275)"><path d="M1654.146,734.355a.97.97,0,0,1-.4-1.854l5.113-2.3a.97.97,0,1,1,.8,1.769l-5.113,2.3A.966.966,0,0,1,1654.146,734.355Z" transform="translate(-1653.175 -730.114)" fill="#78bd36"/></g></g><g transform="translate(12.445 53.336)"><g transform="translate(1.674 10.644)"><g transform="translate(32.188 9.179)"><path d="M1533.431,919.368h-.007a.97.97,0,0,1-.963-.976l.106-15.506a.97.97,0,0,1,1.94.013L1534.4,918.4A.97.97,0,0,1,1533.431,919.368Z" transform="translate(-1532.461 -901.922)" fill="#78bd36"/></g><g transform="translate(54.155 0.299)"><path d="M1634.657,878.011a.967.967,0,0,1-.691-.289l-10.625-10.772a.97.97,0,0,1,1.381-1.362l10.625,10.772a.97.97,0,0,1-.69,1.651Z" transform="translate(-1623.062 -865.299)" fill="#78bd36"/></g><path d="M1400.672,876.419a.97.97,0,0,1-.681-1.66l10.558-10.414a.97.97,0,1,1,1.362,1.381l-10.559,10.415A.968.968,0,0,1,1400.672,876.419Z" transform="translate(-1399.702 -864.064)" fill="#78bd36"/></g><g transform="translate(20.497 17.617)"><path d="M1478.305,899.154a.971.971,0,0,1-.9-1.32l1.7-4.391a.97.97,0,1,1,1.809.7l-1.7,4.391A.97.97,0,0,1,1478.305,899.154Z" transform="translate(-1477.335 -892.822)" fill="#78bd36"/></g><g transform="translate(62.076)"><path d="M1654.313,823.85a.968.968,0,0,1-.35-.065l-4.515-1.748a.97.97,0,0,1,.7-1.809l4.514,1.748a.97.97,0,0,1-.351,1.874Z" transform="translate(-1648.829 -820.162)" fill="#78bd36"/></g><g transform="translate(45.785 17.068)"><path d="M1584.509,896.8a.97.97,0,0,1-.887-.578l-1.9-4.307a.97.97,0,0,1,1.774-.784l1.9,4.307a.97.97,0,0,1-.887,1.362Z" transform="translate(-1581.636 -890.558)" fill="#78bd36"/></g><g transform="translate(0 1.326)"><path d="M1393.767,829.837a.97.97,0,0,1-.392-1.857l5.129-2.266a.97.97,0,0,1,.784,1.774l-5.129,2.266A.965.965,0,0,1,1393.767,829.837Z" transform="translate(-1392.797 -825.631)" fill="#78bd36"/></g></g><path d="M1470.469,739.937a21.52,21.52,0,1,1,21.52-21.52A21.544,21.544,0,0,1,1470.469,739.937Zm0-41.1a19.58,19.58,0,1,0,19.58,19.58A19.6,19.6,0,0,0,1470.469,698.837Z" transform="translate(-1422.889 -673.447)" fill="#78bd36"/></g><g transform="translate(1828.942 701.349)"><path d="M6266.757,1134.481a7.631,7.631,0,1,1,7.631-7.631A7.64,7.64,0,0,1,6266.757,1134.481Zm0-13.322a5.691,5.691,0,1,0,5.691,5.691A5.7,5.7,0,0,0,6266.757,1121.159Zm0,8.844a3.153,3.153,0,1,1,3.153-3.153A3.156,3.156,0,0,1,6266.757,1130Zm0-4.367a1.214,1.214,0,1,0,1.213,1.214A1.215,1.215,0,0,0,6266.757,1125.636Z" transform="translate(-6256.866 -1095.449)" fill="#78bd36"/><path d="M6384.73,1140.363a6.112,6.112,0,1,1,6.111-6.111A6.118,6.118,0,0,1,6384.73,1140.363Zm0-10.283a4.172,4.172,0,1,0,4.172,4.172A4.177,4.177,0,0,0,6384.73,1130.08Zm0,6.827a2.655,2.655,0,1,1,2.655-2.655A2.658,2.658,0,0,1,6384.73,1136.907Zm0-3.371a.716.716,0,1,0,.716.716A.717.717,0,0,0,6384.73,1133.536Z" transform="translate(-6347.387 -1102.207)" fill="#78bd36"/><path d="M6276.809,1054.375h-.008l-7.683-.066a.97.97,0,0,1-.958-1.054c.022-.25.033-.505.033-.76a8.6,8.6,0,0,0-15.005-5.741h0a8.6,8.6,0,0,0-1.521,2.394.97.97,0,0,1-1.863-.384l.062-9.239a.987.987,0,0,1-.04-.276v-16.826a.993.993,0,0,1,.012-.153v-.121a.97.97,0,0,1,.97-.97h22.928a.97.97,0,0,1,.969.931l4.352,13.672h4.222v-3.755a.97.97,0,0,1,.97-.97h2.173a.97.97,0,0,1,.97.97v3.755h3.645a.969.969,0,0,1,.97.977l-.069,9.215a.97.97,0,0,1-1.286.91,10.724,10.724,0,0,0-2.929-.635,7.731,7.731,0,0,0-7.7,7.208.969.969,0,0,1-.967.906h-2.107A.921.921,0,0,1,6276.809,1054.375Zm-6.677-2,6.545.056a.945.945,0,0,1,.133-.009h1.379a9.333,9.333,0,0,1,11.817-7.76l.052-6.943h-3.637a.97.97,0,0,1-.97-.97V1033h-.233v3.755a.97.97,0,0,1-.97.97h-5.9a.969.969,0,0,1-.924-.676l-4.433-13.928h-21.225v15.848a.967.967,0,0,1,.042.288l-.041,6.179a10.541,10.541,0,0,1,18.366,6.944Z" transform="translate(-6249.803 -1021.179)" fill="#78bd36"/><path d="M6285.428,1047.936h-16.786a.97.97,0,0,1,0-1.94h15.518l-2.428-8.941h-14.875v9.911a.97.97,0,1,1-1.939,0v-10.881a.97.97,0,0,1,.97-.97h16.586a.97.97,0,0,1,.936.716l2.955,10.881a.97.97,0,0,1-.936,1.224Z" transform="translate(-6261.252 -1031.736)" fill="#78bd36"/></g><g transform="translate(1783.186 676.762)"><path d="M6101.917,1015.56a.972.972,0,0,0-1.078.565l-2.583,5.949-3.72,3.052a.97.97,0,1,0,1.23,1.5l3.9-3.2a.964.964,0,0,0,.274-.363l.9-2.079c.179,9.354.575,30.41.578,33.212a.97.97,0,0,0,.97.969h0a.97.97,0,0,0,.969-.971c0-3.617-.657-37.36-.664-37.7A.97.97,0,0,0,6101.917,1015.56Z" transform="translate(-6086.909 -992.321)" fill="#78bd36"/><path d="M6145.869,1102.9a.97.97,0,0,0-.97.97v16.489a.97.97,0,0,0,1.939,0v-16.489A.97.97,0,0,0,6145.869,1102.9Z" transform="translate(-6125.331 -1058.497)" fill="#78bd36"/><path d="M6068.271,1004.373l5.367-4.215a.971.971,0,0,0,.323-.463l2.517-7.737.168-.478a.808.808,0,0,1,.762-.54h11.3a.97.97,0,0,0,0-1.94h-11.3a2.749,2.749,0,0,0-2.592,1.837l-.175.5-2.432,7.478-5.508,4.326a3.308,3.308,0,0,0-1.079,1.5.955.955,0,0,0-.051.295,3.345,3.345,0,0,0-1.381,2.705v2.654a.97.97,0,0,0,1.94,0v-2.654a1.412,1.412,0,0,1,2.823,0v26.448a.97.97,0,1,0,1.939,0v-26.448A3.355,3.355,0,0,0,6068.271,1004.373Z" transform="translate(-6064.189 -972.215)" fill="#78bd36"/><path d="M6183.339,922.172a.97.97,0,0,0-1.205-.655l-1.335.4a4.15,4.15,0,0,0-4.936-1.955,4.416,4.416,0,0,0-2.523,1.9,3.762,3.762,0,0,0-.556,2.427l-1.158.343a.97.97,0,1,0,.55,1.86l1.32-.391-1.165,5.7-5.227,4.582a.865.865,0,0,1-.571.215h-.017a.97.97,0,0,0-.009,1.94h.025a2.8,2.8,0,0,0,1.85-.7l5.233-4.587a1.916,1.916,0,0,0,.606-1.075l1.252-6.067a.959.959,0,0,0-.06-.577l1.649-.488a.963.963,0,0,0,.166.651.963.963,0,0,1,.163.714l-1.251,6.062c0,.009,0,.018,0,.027a3.869,3.869,0,0,1-1.229,2.2l-9.075,8.146a22.895,22.895,0,0,0-.872,1.1c-.008.34-.759,34.086-.763,37.7a.969.969,0,0,0,.969.971h0a.97.97,0,0,0,.97-.969c0-3.369.662-33.142.752-37.206a.98.98,0,0,0,.239-.154l9.072-8.143a5.81,5.81,0,0,0,1.844-3.3l1.252-6.065c0-.009,0-.018,0-.027a2.889,2.889,0,0,0-.48-2.175c-.012-.017-.028-.031-.041-.047l3.906-1.156A.97.97,0,0,0,6183.339,922.172Zm-8.348.7a2.479,2.479,0,0,1,1.422-1.056,2.3,2.3,0,0,1,2.466.662l-4.173,1.235A1.928,1.928,0,0,1,6174.991,922.874Z" transform="translate(-6139.949 -919.769)" fill="#78bd36"/><path d="M6133.757,955.13h.05a4.6,4.6,0,0,0,4.693-4.7,4.757,4.757,0,0,0-4.75-4.809h-.006a4.627,4.627,0,0,0-4.7,4.814A4.492,4.492,0,0,0,6133.757,955.13Zm-1.98-6.8a2.716,2.716,0,0,1,1.975-.773,2.777,2.777,0,0,1,1.981.822,2.847,2.847,0,0,1,.828,2.037,2.674,2.674,0,0,1-2.77,2.771h-.034a2.577,2.577,0,0,1-2.776-2.764A2.912,2.912,0,0,1,6131.776,948.333Z" transform="translate(-6113.317 -939.352)" fill="#78bd36"/></g><g transform="translate(1132.497 614.988)"><path d="M3489.5,675.568l-8.23-.034v-10.5a.945.945,0,0,0-.1-.414l4.931-1.476a.964.964,0,1,0-.56-1.844l-30.454,9.119a.962.962,0,0,0,.28,1.885.979.979,0,0,0,.28-.041l5.16-1.545v4.728l-9.993-.041v-10.37a.945.945,0,0,0-.1-.414l4.931-1.476a.964.964,0,1,0-.56-1.844l-30.453,9.119a.962.962,0,0,0,.279,1.885.979.979,0,0,0,.28-.041l5.16-1.545v4.6l-5.1-.021h0a.975.975,0,0,0-.685.281.959.959,0,0,0-.285.682l-.041,108.194a.966.966,0,0,0,.969.963h0a.966.966,0,0,0,.97-.962l.04-107.227,23.622.1h0l38.678.16-.04,107.235a.966.966,0,0,0,.969.963h0a.967.967,0,0,0,.97-.963l.041-108.194A.967.967,0,0,0,3489.5,675.568Zm-10.17-1.632-5.291-1.619,5.291-2.454Zm-1.41,1.584-10.691-.044,4.192-1.944Zm1.41-7.782-8.052,3.735-6.419-1.965,14.472-4.333Zm-16.582,3.007a.956.956,0,0,0,.413.259l5.5,1.683-4.863,2.256a.959.959,0,0,0-.489.517l-.56,0Zm-13.872,3.191-5.291-1.619,5.291-2.454Zm-1.827,1.456-10-.041,3.923-1.82Zm1.827-7.654-8.052,3.735-6.42-1.965,14.472-4.333Zm-16.582,3.008a.959.959,0,0,0,.413.258l5.5,1.683-4.864,2.256a.956.956,0,0,0-.428.391l-.62,0Z" transform="translate(-3423.947 -661.262)" fill="#78bd36"/><path d="M3508.607,1105.539l1.939,0,.037-19.739,9.792.076V1105.6h2.049v-19.7l9.826.076-.037,19.75,1.939,0,.041-21.678-25.546-.2Z" transform="translate(-3488.081 -982.294)" fill="#78bd36"/><path d="M3632.1,766.664l-5.312-.022h0a1.05,1.05,0,0,0-1.05,1.046l-.03,7.172a1.05,1.05,0,0,0,1.046,1.055l5.312.022h0a1.051,1.051,0,0,0,1.051-1.046l.03-7.172A1.051,1.051,0,0,0,3632.1,766.664Zm-.92,7.329-3.533-.015.022-5.393,3.533.015Z" transform="translate(-3576.788 -741.291)" fill="#78bd36"/><path d="M3573.809,775.694l5.312.022h0a1.051,1.051,0,0,0,1.051-1.047l.03-7.172a1.05,1.05,0,0,0-1.046-1.055l-5.312-.022h0a1.051,1.051,0,0,0-1.051,1.046l-.03,7.172A1.05,1.05,0,0,0,3573.809,775.694Zm.92-7.33,3.533.015-.022,5.394-3.533-.015Z" transform="translate(-3536.682 -741.123)" fill="#78bd36"/><path d="M3520.867,775.473l5.312.022h0a1.051,1.051,0,0,0,1.05-1.046l.03-7.172a1.05,1.05,0,0,0-1.046-1.055l-5.312-.022h0a1.051,1.051,0,0,0-1.051,1.046l-.03,7.172A1.051,1.051,0,0,0,3520.867,775.473Zm.92-7.329,3.533.015-.022,5.394-3.534-.015Z" transform="translate(-3496.576 -740.955)" fill="#78bd36"/><path d="M3473.276,766l-5.312-.022h0a1.051,1.051,0,0,0-1.051,1.046l-.03,7.172a1.051,1.051,0,0,0,1.046,1.055l5.312.022h0a1.05,1.05,0,0,0,1.05-1.046l.03-7.172A1.05,1.05,0,0,0,3473.276,766Zm-.92,7.33-3.533-.015.022-5.394,3.533.015Z" transform="translate(-3456.471 -740.787)" fill="#78bd36"/><path d="M3631.748,823.962l-5.312-.022h0a1.05,1.05,0,0,0-1.05,1.046l-.03,7.172a1.05,1.05,0,0,0,1.046,1.055l5.312.022h0a1.05,1.05,0,0,0,1.05-1.046l.03-7.172A1.051,1.051,0,0,0,3631.748,823.962Zm-.92,7.33-3.533-.015.022-5.394,3.534.015Z" transform="translate(-3576.52 -784.805)" fill="#78bd36"/><path d="M3572.409,831.938a1.051,1.051,0,0,0,1.046,1.055l5.312.022h0a1.051,1.051,0,0,0,1.051-1.046l.03-7.172a1.051,1.051,0,0,0-1.046-1.055l-5.312-.022h0a1.05,1.05,0,0,0-1.05,1.046Zm1.966-6.275,3.534.015-.023,5.394-3.533-.015Z" transform="translate(-3536.414 -784.638)" fill="#78bd36"/><path d="M3519.468,831.717a1.05,1.05,0,0,0,1.046,1.055l5.312.022h0a1.05,1.05,0,0,0,1.05-1.046l.03-7.172a1.051,1.051,0,0,0-1.046-1.055l-5.312-.022h0a1.051,1.051,0,0,0-1.051,1.046Zm1.966-6.274,3.534.015-.022,5.393-3.534-.015Z" transform="translate(-3496.308 -784.47)" fill="#78bd36"/><path d="M3472.922,823.3l-5.312-.022h0a1.05,1.05,0,0,0-1.05,1.046l-.03,7.172a1.05,1.05,0,0,0,1.046,1.055l5.312.022h0a1.05,1.05,0,0,0,1.051-1.046l.03-7.172A1.051,1.051,0,0,0,3472.922,823.3Zm-.92,7.329-3.533-.015.022-5.393,3.534.015Z" transform="translate(-3456.203 -784.302)" fill="#78bd36"/><path d="M3631.748,878.347l-5.312-.022h0a1.05,1.05,0,0,0-1.05,1.046l-.03,7.172a1.051,1.051,0,0,0,1.046,1.055l5.312.022h0a1.05,1.05,0,0,0,1.05-1.046l.03-7.172A1.051,1.051,0,0,0,3631.748,878.347Zm-.92,7.329-3.533-.015.022-5.394,3.534.015Z" transform="translate(-3576.52 -826.107)" fill="#78bd36"/><path d="M3573.455,887.377l5.312.022h0a1.05,1.05,0,0,0,1.051-1.046l.03-7.172a1.051,1.051,0,0,0-1.046-1.055l-5.312-.022h0a1.05,1.05,0,0,0-1.05,1.046l-.03,7.172A1.05,1.05,0,0,0,3573.455,887.377Zm.92-7.33,3.534.015-.023,5.394-3.533-.015Z" transform="translate(-3536.414 -825.939)" fill="#78bd36"/><path d="M3520.514,887.158l5.312.022h0a1.05,1.05,0,0,0,1.05-1.046l.03-7.172a1.051,1.051,0,0,0-1.046-1.055l-5.312-.022h0a1.051,1.051,0,0,0-1.051,1.046l-.03,7.172A1.05,1.05,0,0,0,3520.514,887.158Zm.92-7.33,3.534.015-.022,5.394-3.534-.015Z" transform="translate(-3496.308 -825.772)" fill="#78bd36"/><path d="M3472.922,877.686l-5.312-.022h0a1.05,1.05,0,0,0-1.05,1.046l-.03,7.172a1.051,1.051,0,0,0,1.046,1.055l5.312.022h0a1.05,1.05,0,0,0,1.05-1.046l.03-7.172A1.051,1.051,0,0,0,3472.922,877.686Zm-.92,7.329-3.533-.015.022-5.394,3.534.015Z" transform="translate(-3456.203 -825.605)" fill="#78bd36"/><path d="M3631.748,930.213l-5.312-.022h0a1.05,1.05,0,0,0-1.05,1.046l-.03,7.172a1.05,1.05,0,0,0,1.046,1.055l5.312.022h0a1.05,1.05,0,0,0,1.05-1.046l.03-7.172A1.051,1.051,0,0,0,3631.748,930.213Zm-.92,7.33-3.533-.015.022-5.394,3.534.015Z" transform="translate(-3576.52 -865.495)" fill="#78bd36"/><path d="M3573.455,939.244l5.312.022h0a1.051,1.051,0,0,0,1.051-1.046l.03-7.172a1.051,1.051,0,0,0-1.046-1.055l-5.312-.022h0a1.05,1.05,0,0,0-1.05,1.046l-.03,7.172A1.051,1.051,0,0,0,3573.455,939.244Zm.92-7.33,3.534.015-.023,5.394-3.533-.015Z" transform="translate(-3536.414 -865.328)" fill="#78bd36"/><path d="M3520.514,939.023l5.312.022h0a1.051,1.051,0,0,0,1.05-1.046l.03-7.172a1.051,1.051,0,0,0-1.046-1.055l-5.312-.022h0a1.051,1.051,0,0,0-1.051,1.046l-.03,7.172A1.051,1.051,0,0,0,3520.514,939.023Zm.92-7.329,3.534.015-.022,5.394-3.534-.015Z" transform="translate(-3496.308 -865.16)" fill="#78bd36"/><path d="M3472.922,929.551l-5.312-.022h0a1.05,1.05,0,0,0-1.05,1.046l-.03,7.172a1.05,1.05,0,0,0,1.046,1.055l5.312.022h0a1.05,1.05,0,0,0,1.051-1.046l.03-7.172A1.051,1.051,0,0,0,3472.922,929.551Zm-.92,7.329-3.533-.015.022-5.393,3.534.015Z" transform="translate(-3456.203 -864.992)" fill="#78bd36"/><path d="M3631.748,984.6l-5.312-.022h0a1.05,1.05,0,0,0-1.05,1.046l-.03,7.172a1.05,1.05,0,0,0,1.046,1.055l5.312.022h0a1.05,1.05,0,0,0,1.05-1.046l.03-7.172A1.051,1.051,0,0,0,3631.748,984.6Zm-.92,7.329-3.533-.015.022-5.394,3.534.015Z" transform="translate(-3576.52 -906.798)" fill="#78bd36"/><path d="M3573.455,993.628l5.312.022h0a1.05,1.05,0,0,0,1.051-1.046l.03-7.172a1.051,1.051,0,0,0-1.046-1.055l-5.312-.022h0a1.05,1.05,0,0,0-1.05,1.047l-.03,7.172A1.05,1.05,0,0,0,3573.455,993.628Zm.92-7.33,3.534.015-.023,5.394-3.533-.015Z" transform="translate(-3536.414 -906.629)" fill="#78bd36"/><path d="M3520.514,993.409l5.312.022h0a1.05,1.05,0,0,0,1.05-1.046l.03-7.172a1.051,1.051,0,0,0-1.046-1.055l-5.312-.022h0a1.051,1.051,0,0,0-1.051,1.046l-.03,7.172A1.05,1.05,0,0,0,3520.514,993.409Zm.92-7.33,3.534.015-.022,5.394-3.534-.015Z" transform="translate(-3496.308 -906.463)" fill="#78bd36"/><path d="M3472.922,983.937l-5.312-.022h0a1.05,1.05,0,0,0-1.05,1.046l-.03,7.172a1.051,1.051,0,0,0,1.046,1.055l5.312.022h0a1.051,1.051,0,0,0,1.051-1.046l.03-7.172A1.051,1.051,0,0,0,3472.922,983.937Zm-.92,7.329-3.533-.015.022-5.394,3.534.015Z" transform="translate(-3456.203 -906.295)" fill="#78bd36"/></g><g transform="translate(1553.564 669.62)"><path d="M5600.732,1056.839a.97.97,0,0,1-.97-.97v-37.856a.97.97,0,0,1,1.94,0v37.856A.97.97,0,0,1,5600.732,1056.839Z" transform="translate(-5485.707 -986.318)" fill="#78bd36"/><path d="M5416.973,924.254a.97.97,0,0,1-.364-.071l-63.339-25.619a.969.969,0,0,1-.606-.9v-5.653a.97.97,0,0,1,1.333-.9l63.34,25.619a.97.97,0,0,1,.606.9v5.652a.969.969,0,0,1-.97.97Zm-62.37-27.243,61.4,24.835v-3.56l-61.4-24.834Z" transform="translate(-5298.518 -890.866)" fill="#78bd36"/><path d="M5444.076,908.106a.972.972,0,0,1-.364-.071l-39.192-15.852a.97.97,0,0,1,.728-1.8l39.192,15.852a.97.97,0,0,1-.364,1.869Z" transform="translate(-5337.343 -890.314)" fill="#78bd36"/><path d="M5170.455,1037.1a.97.97,0,0,1-.97-.97V991.535a.97.97,0,0,1,1.94,0v44.595A.97.97,0,0,1,5170.455,1037.1Z" transform="translate(-5159.752 -966.259)" fill="#78bd36"/><path d="M5392.092,1035.747a.97.97,0,0,1-.97-.97V990.39a.97.97,0,1,1,1.939,0v44.388A.97.97,0,0,1,5392.092,1035.747Z" transform="translate(-5327.653 -965.391)" fill="#78bd36"/><path d="M5306.175,1105.462a.97.97,0,0,1-.97-.97v-21.106h-10.924v20.868a.97.97,0,1,1-1.939,0v-21.838a.97.97,0,0,1,.97-.97h12.864a.97.97,0,0,1,.97.97v22.075A.97.97,0,0,1,5306.175,1105.462Z" transform="translate(-5252.822 -1035.106)" fill="#78bd36"/><path d="M5201.781,948.231a.972.972,0,0,1-.305-.049l-35.429-11.752-35.429,11.752a.97.97,0,0,1-1.275-.921v-5.5a.969.969,0,0,1,.664-.92l35.735-11.854a.972.972,0,0,1,.611,0l35.734,11.854a.969.969,0,0,1,.665.92v5.5a.97.97,0,0,1-.97.97Zm-35.734-13.793a.975.975,0,0,1,.306.049l34.459,11.43v-3.453l-34.765-11.532-34.765,11.532v3.453l34.459-11.43A.974.974,0,0,1,5166.047,934.438Z" transform="translate(-5129.343 -919.576)" fill="#78bd36"/><g transform="translate(71.913 46.872)"><path d="M5439.8,1097.472h-12.884a.97.97,0,0,1-.97-.97v-11.9a.97.97,0,0,1,.97-.97H5439.8a.97.97,0,0,1,.97.97v11.9A.97.97,0,0,1,5439.8,1097.472Zm-11.914-1.94h10.944v-9.958h-10.944Z" transform="translate(-5425.946 -1083.635)" fill="#78bd36"/><path d="M5453.487,1097.145a.97.97,0,0,1-.97-.97v-11.556a.97.97,0,1,1,1.939,0v11.556A.97.97,0,0,1,5453.487,1097.145Z" transform="translate(-5446.075 -1083.646)" fill="#78bd36"/></g><g transform="translate(18.358 46.872)"><path d="M5218.916,1097.472h-12.884a.97.97,0,0,1-.97-.97v-11.9a.97.97,0,0,1,.97-.97h12.884a.97.97,0,0,1,.97.97v11.9A.97.97,0,0,1,5218.916,1097.472Zm-11.914-1.94h10.944v-9.958H5207Z" transform="translate(-5205.062 -1083.635)" fill="#78bd36"/><path d="M5232.6,1097.145a.97.97,0,0,1-.97-.97v-11.556a.97.97,0,1,1,1.939,0v11.556A.97.97,0,0,1,5232.6,1097.145Z" transform="translate(-5225.189 -1083.646)" fill="#78bd36"/></g><g transform="translate(92.879 46.872)"><path d="M5526.276,1097.472h-12.884a.97.97,0,0,1-.97-.97v-11.9a.97.97,0,0,1,.97-.97h12.884a.97.97,0,0,1,.97.97v11.9A.97.97,0,0,1,5526.276,1097.472Zm-11.914-1.94h10.944v-9.958h-10.944Z" transform="translate(-5512.423 -1083.635)" fill="#78bd36"/><path d="M5539.963,1097.145a.97.97,0,0,1-.97-.97v-11.556a.97.97,0,1,1,1.939,0v11.556A.97.97,0,0,1,5539.963,1097.145Z" transform="translate(-5532.551 -1083.646)" fill="#78bd36"/></g><path d="M5368.326,932.451a.97.97,0,0,1-.97-.97v-7.506a.97.97,0,1,1,1.939,0v7.506A.97.97,0,0,1,5368.326,932.451Z" transform="translate(-5309.649 -915.08)" fill="#78bd36"/><path d="M5554.759,956.781a.97.97,0,0,1-.97-.97V951.9a.97.97,0,1,1,1.939,0v3.906A.97.97,0,0,1,5554.759,956.781Z" transform="translate(-5450.88 -936.237)" fill="#78bd36"/><path d="M5419.849,902.865a.97.97,0,0,1-.97-.97v-4.557a.97.97,0,1,1,1.939,0V901.9A.97.97,0,0,1,5419.849,902.865Z" transform="translate(-5348.68 -894.9)" fill="#78bd36"/></g><g transform="translate(1321.345 659.463)"><path d="M4288.872,865a2.506,2.506,0,0,0-2.5-2.5h-7.831v-4.544l5.159,1.556a.97.97,0,1,0,.561-1.857l-30.454-9.185a.97.97,0,1,0-.56,1.857l4.931,1.487a.958.958,0,0,0-.1.417v10.269h-10.453v-4.544l5.159,1.556a.97.97,0,1,0,.56-1.857l-30.454-9.185a.97.97,0,1,0-.56,1.857l4.931,1.487a.957.957,0,0,0-.1.417v10.268h-10.453v-4.544l5.16,1.556a.97.97,0,1,0,.56-1.857l-30.454-9.185a.97.97,0,1,0-.56,1.857l4.931,1.487a.958.958,0,0,0-.1.417v10.268h-5.06a2.506,2.506,0,0,0-2.5,2.5c0,11.987,0,49.24,0,62.609h1.94c0-13.369,0-50.621,0-62.608a.564.564,0,0,1,.564-.562h95.18a.565.565,0,0,1,.564.563c0,17.294,0,55.326,0,62.606h1.94C4288.875,920.323,4288.875,882.29,4288.872,865Zm-28.856-7.911,5.291,2.472-5.291,1.63Zm7.909,3.695,3.667,1.713h-9.227Zm7.625,1.421-4.863-2.272,5.5-1.695a.965.965,0,0,0,.413-.26v4.519h-.692A.963.963,0,0,0,4275.549,862.2Zm-1.062-5.473-6.42,1.978-8.052-3.762v-2.581Zm-45.386.357,5.291,2.472-5.291,1.63Zm7.909,3.695,3.667,1.713h-9.227Zm7.625,1.421-4.863-2.272,5.5-1.695a.957.957,0,0,0,.413-.26v4.519h-.692A.958.958,0,0,0,4244.635,862.2Zm-1.062-5.473-6.42,1.978-8.052-3.762v-2.582Zm-45.386.357,5.291,2.472-5.291,1.63Zm7.909,3.695,3.667,1.713h-9.226Zm7.625,1.421-4.863-2.272,5.5-1.695a.96.96,0,0,0,.413-.26v4.519h-.692A.963.963,0,0,0,4213.721,862.2Zm-1.062-5.473-6.42,1.979-8.052-3.762v-2.582Z" transform="translate(-4188.682 -848.422)" fill="#78bd36"/><rect width="1.897" height="4.656" rx="0.949" transform="translate(52.583 65.699)" fill="#78bd36"/><rect width="1.897" height="4.656" rx="0.949" transform="translate(45.756 65.699)" fill="#78bd36"/><path d="M4346.259,1081.688H4305.17a1.8,1.8,0,0,0-1.794,1.795v20.7h1.939v-20.559h19.324q0,10.091-.007,20.181c0,.086,0,.172.006.258l2.141.087.006-.354q.005-1.251.011-2.5c-.007-.119-.02-.239-.02-.358q0-8.656,0-17.311h19.334v20.559h1.94v-20.7A1.8,1.8,0,0,0,4346.259,1081.688Z" transform="translate(-4275.568 -1025.132)" fill="#78bd36"/><path d="M4236.94,1090.873h-13.271a.97.97,0,0,0-.97.97v11.068a.97.97,0,0,0,.97.97h13.271a.97.97,0,0,0,.97-.97v-11.068A.97.97,0,0,0,4236.94,1090.873Zm-.97,11.068h-11.332v-9.128h11.332Z" transform="translate(-4214.452 -1032.09)" fill="#78bd36"/><path d="M4239.373,936.831h-15.7a.97.97,0,0,0-.97.97v11.067a.97.97,0,0,0,.97.97h15.7a.97.97,0,0,0,.97-.97V937.8A.97.97,0,0,0,4239.373,936.831Zm-.97,11.067h-13.765v-9.128H4238.4Z" transform="translate(-4214.452 -915.396)" fill="#78bd36"/><path d="M4239.373,1008.293h-15.7a.97.97,0,0,0-.97.97v11.067a.97.97,0,0,0,.97.97h15.7a.97.97,0,0,0,.97-.97v-11.067A.97.97,0,0,0,4239.373,1008.293Zm-.97,11.067h-13.765v-9.128H4238.4Z" transform="translate(-4214.452 -969.532)" fill="#78bd36"/><path d="M4313.284,1020.33a.97.97,0,0,0,.97.97h15.7a.97.97,0,0,0,.97-.97v-11.067a.97.97,0,0,0-.97-.97h-15.7a.97.97,0,0,0-.97.97Zm1.94-10.1h13.764v9.128h-13.764Z" transform="translate(-4283.074 -969.532)" fill="#78bd36"/><path d="M4511.129,1008.293h-15.7a.97.97,0,0,0-.97.97v11.067a.97.97,0,0,0,.97.97h15.7a.97.97,0,0,0,.97-.97v-11.067A.97.97,0,0,0,4511.129,1008.293Zm-.97,11.067h-13.765v-9.128h13.765Z" transform="translate(-4420.319 -969.532)" fill="#78bd36"/><path d="M4511.129,936.831h-15.7a.97.97,0,0,0-.97.97v11.067a.97.97,0,0,0,.97.97h15.7a.97.97,0,0,0,.97-.97V937.8A.97.97,0,0,0,4511.129,936.831Zm-.97,11.067h-13.765v-9.128h13.765Z" transform="translate(-4420.319 -915.396)" fill="#78bd36"/><path d="M4518.729,1090.873h-13.271a.97.97,0,0,0-.97.97v11.068a.97.97,0,0,0,.97.97h13.271a.97.97,0,0,0,.97-.97v-11.068A.97.97,0,0,0,4518.729,1090.873Zm-.97,11.068h-11.332v-9.128h11.332Z" transform="translate(-4427.919 -1032.09)" fill="#78bd36"/><path d="M4404.84,949.838h15.7a.97.97,0,0,0,.97-.97V937.8a.97.97,0,0,0-.97-.97h-15.7a.97.97,0,0,0-.97.97v11.067A.97.97,0,0,0,4404.84,949.838Zm.97-11.067h13.765V947.9H4405.81Z" transform="translate(-4351.697 -915.396)" fill="#78bd36"/><path d="M4314.254,949.838h15.7a.97.97,0,0,0,.97-.97V937.8a.97.97,0,0,0-.97-.97h-15.7a.97.97,0,0,0-.97.97v11.067A.97.97,0,0,0,4314.254,949.838Zm.97-11.067h13.764V947.9h-13.764Z" transform="translate(-4283.074 -915.396)" fill="#78bd36"/><path d="M4403.87,1020.33a.97.97,0,0,0,.97.97h15.7a.97.97,0,0,0,.97-.97v-11.067a.97.97,0,0,0-.97-.97h-15.7a.97.97,0,0,0-.97.97Zm1.939-10.1h13.765v9.128H4405.81Z" transform="translate(-4351.697 -969.532)" fill="#78bd36"/></g></g></svg>