<svg xmlns="http://www.w3.org/2000/svg" xmlns:xlink="http://www.w3.org/1999/xlink" width="164.767" height="170.776" viewBox="0 0 164.767 170.776"><defs><clipPath id="a"><rect width="164.767" height="170.776" fill="none"/></clipPath></defs><g transform="translate(-10.622 -17)"><g transform="translate(10.622 17)"><g clip-path="url(#a)"><path d="M291.481,187.4c43.188,0,78.2-34.2,78.2-76.392,0-33.99-22.988-63.891-56.4-73.365l-2.53,8.515C340.283,54.529,360.6,80.96,360.6,111c0,37.293-30.947,67.526-69.123,67.526Z" transform="translate(-204.913 -26.461)" fill="#259424" fill-rule="evenodd"/><path d="M279.752,37.868c-.98-.419-2-.246-2.287.387s.281,1.485,1.261,1.9l10.35,4.424,1.026-2.291-10.35-4.424" transform="translate(-195.008 -26.461)" fill="#9c9c9c" fill-rule="evenodd"/><path d="M296.218.228a2.575,2.575,0,0,0-1.405-.2,1.116,1.116,0,0,0-.882.588,1.07,1.07,0,0,0,.157,1.032,2.511,2.511,0,0,0,1.1.872L305.838,7.07l1.026-2.291L296.218.228" transform="translate(-206.584 0)" fill="#9c9c9c" fill-rule="evenodd"/><path d="M320.048,3.953,310.983,24.19l9.4,4.018a14.036,14.036,0,0,0,7.617,1.1,6.022,6.022,0,0,0,4.777-3.166l3.527-7.874a5.772,5.772,0,0,0-.861-5.576,13.684,13.684,0,0,0-5.995-4.72l-9.4-4.018" transform="translate(-218.623 -2.779)" fill="#8dc540" fill-rule="evenodd"/><path d="M78.2,33.133c-43.188,0-78.2,34.2-78.2,76.392,0,33.99,22.988,63.891,56.4,73.365l2.53-8.515C29.4,166,9.076,139.57,9.076,109.525,9.076,72.232,40.024,42,78.2,42Z" transform="translate(0 -23.293)" fill="#259424" fill-rule="evenodd"/><path d="M244.944,520.712c.98.419,2,.246,2.287-.387s-.281-1.485-1.261-1.9L235.62,514l-1.026,2.291,10.35,4.424" transform="translate(-164.921 -361.343)" fill="#9c9c9c" fill-rule="evenodd"/><path d="M227.779,558.053a2.575,2.575,0,0,0,1.405.2,1.116,1.116,0,0,0,.882-.588,1.07,1.07,0,0,0-.157-1.032,2.511,2.511,0,0,0-1.1-.872l-10.646-4.551-1.026,2.291,10.646,4.551" transform="translate(-152.646 -387.505)" fill="#9c9c9c" fill-rule="evenodd"/><path d="M173.875,510.7l9.065-20.237-9.4-4.018a14.036,14.036,0,0,0-7.617-1.1,6.022,6.022,0,0,0-4.777,3.166l-3.527,7.874a5.772,5.772,0,0,0,.861,5.576,13.685,13.685,0,0,0,5.995,4.72l9.4,4.018" transform="translate(-110.533 -341.102)" fill="#8dc540" fill-rule="evenodd"/><path d="M133.556,90.144c33.537,0,60.765,25.842,60.765,57.673s-27.228,57.673-60.765,57.673-60.765-25.842-60.765-57.673,27.228-57.673,60.765-57.673" transform="translate(-51.173 -63.372)" fill="#fff" fill-rule="evenodd"/></g><text transform="translate(58.368 114.021)" fill="#ffc800" font-size="76" font-family="RoundedMplus1c-Medium, 'Rounded Mplus \31 c'" font-weight="500" letter-spacing="0.03em"><tspan x="0" y="0">¥</tspan></text></g></g></svg>