<svg xmlns="http://www.w3.org/2000/svg" xmlns:xlink="http://www.w3.org/1999/xlink" width="222.052" height="213.277" viewBox="0 0 222.052 213.277"><defs><clipPath id="a"><rect width="134.637" height="96.318" fill="none"/></clipPath><clipPath id="b"><path d="M79.129,347.828l-3.922-.908a.854.854,0,0,0-1.023.638L73.8,349.22a.854.854,0,0,0,.639,1.023l3.57.827a19.343,19.343,0,0,0-.588,4.49,5.661,5.661,0,0,0-3.5,5.231V372.1a5.659,5.659,0,0,0,5.656,5.656h58.181a5.659,5.659,0,0,0,5.656-5.656V360.791a5.66,5.66,0,0,0-3.5-5.231,19.321,19.321,0,0,0-.6-4.52l3.438-.8a.853.853,0,0,0,.638-1.023L143,347.558a.853.853,0,0,0-1.023-.638l-3.8.879c-4.245-9.536-15.859-16.381-29.521-16.381s-25.3,6.859-29.534,16.411" transform="translate(-73.776 -331.417)" fill="none"/></clipPath><clipPath id="c"><rect width="165.132" height="148.257" fill="none"/></clipPath><clipPath id="d"><path d="M419.322,237.541a7.374,7.374,0,0,0-5.1,2.023,6.758,6.758,0,0,0-2.112,4.882V311.77h32.637V244.445a6.76,6.76,0,0,0-2.111-4.882,7.375,7.375,0,0,0-5.1-2.023Z" transform="translate(-412.112 -237.541)" fill="none"/></clipPath><clipPath id="e"><path d="M445.553,450.809a.8.8,0,0,0-.558.223.749.749,0,0,0-.231.539v5.646a.749.749,0,0,0,.231.539.8.8,0,0,0,.558.223h13.628a.8.8,0,0,0,.558-.223.75.75,0,0,0,.231-.539v-1.755a.288.288,0,0,0,.067.008h.557a.274.274,0,0,0,.278-.269v-1.434a.274.274,0,0,0-.278-.269h-.557a.289.289,0,0,0-.067.008v-1.934a.75.75,0,0,0-.231-.539.8.8,0,0,0-.558-.223Z" transform="translate(-444.764 -450.809)" fill="none"/></clipPath><clipPath id="h"><rect width="64.053" height="70.623" fill="none"/></clipPath><clipPath id="i"><path d="M50.232,143.333c0,13.833,11.533,25.063,25.739,25.063s25.739-11.23,25.739-25.063S90.177,118.27,75.971,118.27,50.232,129.5,50.232,143.333" transform="translate(-50.232 -118.27)" fill="none"/></clipPath></defs><g transform="translate(26.999 8.08)"><g transform="translate(22.753 56.94)"><rect width="151.002" height="106.682" transform="translate(6.477 41.575)" fill="#8dc540"/><rect width="134.637" height="96.318" transform="translate(14.66 46.158)" fill="#fff"/><path d="M333.818,401.7h-.008l-9.27-.075a1,1,0,0,1,.008-2h.008l8.266.067.071-20.411a1,1,0,0,1,1.016-1l7.16.116a1,1,0,0,1-.016,2h-.017l-6.148-.1-.071,20.4a1,1,0,0,1-1,1Z" transform="translate(-237.917 -278.047)" fill="#383838"/><g transform="translate(14.66 46.158)"><g clip-path="url(#a)"><path d="M397.643,370.566a.45.45,0,1,0,0-.869h-3.3v.869Z" transform="translate(-303.741 -317.173)" fill="#9c9c9c" fill-rule="evenodd"/><path d="M397.5,386.4a.663.663,0,0,0,.4-.127.368.368,0,0,0,0-.615.662.662,0,0,0-.4-.127h-3.4v.869Z" transform="translate(-303.569 -328.78)" fill="#9c9c9c" fill-rule="evenodd"/><path d="M377.906,372.582V364.9h-3a3.608,3.608,0,0,0-2.171.687,2.108,2.108,0,0,0-.9,1.659v2.988a2.108,2.108,0,0,0,.9,1.659,3.606,3.606,0,0,0,2.171.687Z" transform="translate(-287.243 -313.658)" fill="#259424" fill-rule="evenodd"/><path d="M3.987,0h0A3.987,3.987,0,0,1,7.973,3.987V6.573a3.986,3.986,0,0,1-3.986,3.986h0A3.987,3.987,0,0,1,0,6.572V3.987A3.987,3.987,0,0,1,3.987,0Z" transform="translate(13.594 85.759)" fill="#383838"/><path d="M3.987,0h0A3.986,3.986,0,0,1,7.973,3.986V6.573a3.986,3.986,0,0,1-3.986,3.986h0A3.986,3.986,0,0,1,0,6.573V3.987A3.987,3.987,0,0,1,3.987,0Z" transform="translate(57.912 85.759)" fill="#383838"/><path d="M1.706,0h0A1.706,1.706,0,0,1,3.412,1.706V4.13A1.706,1.706,0,0,1,1.706,5.836h0A1.706,1.706,0,0,1,0,4.13V1.706A1.706,1.706,0,0,1,1.706,0Z" transform="matrix(0.226, -0.974, 0.974, 0.226, 4.863, 60.94)" fill="#8dc540"/><path d="M79.129,347.828c4.235-9.552,15.859-16.411,29.534-16.411s25.276,6.845,29.521,16.381l3.8-.879a.853.853,0,0,1,1.023.638l.385,1.662a.853.853,0,0,1-.638,1.023l-3.438.8a19.349,19.349,0,0,1,.6,4.52,5.661,5.661,0,0,1,3.5,5.231V372.1a5.659,5.659,0,0,1-5.656,5.656H79.573a5.659,5.659,0,0,1-5.656-5.656V360.791a5.661,5.661,0,0,1,3.5-5.231,19.342,19.342,0,0,1,.588-4.49l-3.57-.827a.853.853,0,0,1-.638-1.023l.385-1.662a.853.853,0,0,1,1.023-.638Z" transform="translate(-68.744 -289.111)" fill="#259424" fill-rule="evenodd"/></g></g><g transform="translate(19.693 88.464)"><g clip-path="url(#b)"><path d="M155.3,360.262c0-10.979-14.262-20.9-29.5-21.1-16.687-.22-28.552,10.124-28.552,21.1Z" transform="translate(-90.982 -337.09)" fill="#8dc540" fill-rule="evenodd"/><path d="M109.837,447.72a3.987,3.987,0,1,1-3.987,3.987,3.988,3.988,0,0,1,3.987-3.987" transform="translate(-97.289 -416.676)" fill="#fff" fill-rule="evenodd"/><path d="M275.868,447.72a3.987,3.987,0,1,1-3.987,3.987,3.988,3.988,0,0,1,3.987-3.987" transform="translate(-219.002 -416.676)" fill="#fff" fill-rule="evenodd"/><rect width="30.958" height="1.796" transform="translate(20.018 35.031)" fill="#fff"/></g></g><g clip-path="url(#c)"><path d="M436.026,517.77a2.177,2.177,0,0,0-2.213-2.14H398a2.178,2.178,0,0,0-2.213,2.14v.561a2.178,2.178,0,0,0,2.213,2.14h35.814a2.177,2.177,0,0,0,2.213-2.14Z" transform="translate(-290.14 -377.995)" fill="#383838" fill-rule="evenodd"/><path d="M444.748,244.445a6.76,6.76,0,0,0-2.112-4.882,7.375,7.375,0,0,0-5.1-2.022H419.321a7.375,7.375,0,0,0-5.1,2.022,6.759,6.759,0,0,0-2.112,4.882V311.77h32.638Z" transform="translate(-302.108 -174.135)" fill="#8dc540" fill-rule="evenodd"/></g><g transform="translate(110.003 63.406)"><g clip-path="url(#d)"><path d="M453.17,437.283a2.112,2.112,0,0,0-2.156-2.065H432.331a2.112,2.112,0,0,0-2.156,2.065v11.5a2.112,2.112,0,0,0,2.156,2.065h18.682a2.112,2.112,0,0,0,2.156-2.065Z" transform="translate(-425.354 -382.453)" fill="#fff" fill-rule="evenodd"/><path d="M459.969,455.463a.283.283,0,0,0,.066.008h.556a.274.274,0,0,0,.278-.269v-1.434a.274.274,0,0,0-.278-.269h-.556a.285.285,0,0,0-.066.008v-1.934a.751.751,0,0,0-.231-.539.8.8,0,0,0-.558-.223H445.552a.8.8,0,0,0-.558.223.75.75,0,0,0-.231.539v5.646a.75.75,0,0,0,.231.539.8.8,0,0,0,.558.223H459.18a.8.8,0,0,0,.558-.223.751.751,0,0,0,.231-.539Z" transform="translate(-436.048 -393.882)" fill="#9c9c9c" fill-rule="evenodd"/></g></g><g transform="translate(118.719 120.332)"><g clip-path="url(#e)"><rect width="2.225" height="5.379" transform="translate(0.901 0.963)" fill="#8dc540"/><rect width="2.225" height="5.379" transform="translate(3.497 0.963)" fill="#8dc540"/><rect width="2.225" height="5.379" transform="translate(6.093 0.963)" fill="#8dc540"/><rect width="2.225" height="5.379" transform="translate(8.689 0.963)" fill="#8dc540"/></g></g><g transform="translate(110.003 63.406)"><g clip-path="url(#d)"><path d="M453.17,255.33a2.776,2.776,0,0,0-2.949-2.562h-17.1a2.776,2.776,0,0,0-2.949,2.562v24.062a9.376,9.376,0,0,0,3.367,7.064,12.757,12.757,0,0,0,16.26,0,9.376,9.376,0,0,0,3.368-7.064Z" transform="translate(-425.354 -248.704)" fill="#fff" fill-rule="evenodd"/></g></g><g clip-path="url(#c)"><path d="M460.831,291.591s2.085-7.391.815-7.108-6.764,8.4-6.764,8.4-2.291,2.288,1.9,2.043h2.537l-1.268,4.994s-.976,4.262,2.113,0,4.439-6.357,4.439-6.357,2.115-2.349-1.057-2.043Z" transform="translate(-333.005 -208.542)" fill="#8dc540" fill-rule="evenodd"/><path d="M164.444,38.041a2.289,2.289,0,0,1-1.6,3.926H2.29a2.289,2.289,0,0,1-1.6-3.926L39.619,0h85.895l38.93,38.041" transform="translate(0)" fill="#259424" fill-rule="evenodd"/></g></g><g transform="translate(131 13.889)"><g clip-path="url(#h)"><path d="M32.027,70.253c17.676,0,32.027,13.882,32.027,30.982S49.7,132.216,32.027,132.216,0,118.334,0,101.235,14.351,70.253,32.027,70.253" transform="translate(0 -61.593)" fill="#8dc540" fill-rule="evenodd"/><path d="M75.971,118.27c14.206,0,25.739,11.23,25.739,25.063S90.177,168.4,75.971,168.4s-25.739-11.23-25.739-25.063S61.765,118.27,75.971,118.27" transform="translate(-44.04 -103.692)" fill="#fff" fill-rule="evenodd"/></g><g transform="translate(6.192 14.578)"><g clip-path="url(#i)"><path d="M202.381,207.288s3.135-12.213,1.225-11.745-10.17,13.879-10.17,13.879-3.445,3.781,2.86,3.376h3.814l-1.907,8.253s-1.467,7.042,3.178,0,6.674-10.5,6.674-10.5,3.181-3.881-1.589-3.376Z" transform="translate(-174.961 -186.006)" fill="#8dc540" fill-rule="evenodd"/></g></g><g clip-path="url(#h)"><path d="M230.3,3.389V9.794h4.846V3.389h2.675V0h-9.945V3.389Z" transform="translate(-199.789)" fill="#8dc540" fill-rule="evenodd"/><path d="M75.963,40.7l2.585,5.881,3.215-1.339-2.6-5.907,2.6-1.107-1.08-2.4L72.5,39.319l1.08,2.4Z" transform="translate(-63.563 -31.413)" fill="#8dc540" fill-rule="evenodd"/><path d="M370.454,31.5l-2.585,5.881-3.215-1.339,2.6-5.907-2.6-1.107,1.08-2.4,8.182,3.489-1.08,2.4Z" transform="translate(-319.707 -23.341)" fill="#8dc540" fill-rule="evenodd"/><path d="M121.45,172.885c-.408,11.366-10.292,20.461-22.426,20.461-12.385,0-22.439-9.5-22.439-21.193s10.046-21.193,22.439-21.193V152.8c-11.32,0-20.5,8.667-20.5,19.358s9.184,19.358,20.5,19.358c11.061,0,20.075-8.275,20.482-18.627Z" transform="translate(-67.145 -132.353)" fill="#259424" fill-rule="evenodd"/><path d="M416.347,267.643a.356.356,0,1,0-.687,0v2.609h.687Z" transform="translate(-364.425 -234.261)" fill="#9c9c9c" fill-rule="evenodd"/><path d="M443.438,267.442a.524.524,0,0,0-.1-.316.291.291,0,0,0-.486,0,.523.523,0,0,0-.1.316v2.684h.687Z" transform="translate(-388.176 -234.085)" fill="#9c9c9c" fill-rule="evenodd"/><path d="M413.523,291.591h-6.068v2.37a2.85,2.85,0,0,0,.543,1.716,1.666,1.666,0,0,0,1.311.711h2.361a1.666,1.666,0,0,0,1.311-.711,2.85,2.85,0,0,0,.543-1.716Z" transform="translate(-357.231 -255.649)" fill="#8dc540" fill-rule="evenodd"/></g></g><path d="M65.5,31.137A33.949,33.949,0,0,1,.073,43.789c-.3-.748.385-1.206,1.022-.706A30.228,30.228,0,0,0,49.985,19.358,30,30,0,0,0,44.031,1.369C43.382.5,44.21-.34,45.3.141a33.886,33.886,0,0,1,20.2,31" transform="translate(-26.999 -8.08)" fill="#ffd400" fill-rule="evenodd"/><path d="M7.547,0c.512,0,2.043,4.42,2.381,4.666s5,.341,5.162.829S11.529,8.81,11.4,9.208s1.223,4.877.809,5.178-4.244-2.372-4.662-2.372S3.3,14.688,2.886,14.386s.938-4.78.809-5.178S-.154,5.984,0,5.5s4.824-.582,5.162-.829S7.036,0,7.547,0" transform="translate(64.905 13.888)" fill="#ffd400" fill-rule="evenodd"/><path d="M7.319,0c.5,0,1.981,4.286,2.309,4.525s4.852.33,5.005.8-3.454,3.214-3.579,3.6,1.186,4.729.785,5.021-4.116-2.3-4.52-2.3S3.2,14.243,2.8,13.95s.91-4.636.785-5.021S-.149,5.8,0,5.329s4.678-.565,5.006-.8S6.823,0,7.319,0" transform="translate(98 -8.067)" fill="#ffd400" fill-rule="evenodd"/></g></svg>