<svg xmlns="http://www.w3.org/2000/svg" xmlns:xlink="http://www.w3.org/1999/xlink" width="175.298" height="172.782" viewBox="0 0 175.298 172.782"><defs><clipPath id="a"><rect width="175.298" height="172.782" fill="none"/></clipPath><clipPath id="b"><path d="M167.526,314.1C151.571,318.646,143,340.218,143,340.218c-7.33,1.778-4.975,16.107-4.975,16.107h6.29c0-13.376,11.893-13.559,11.893-13.559,13.882,1.1,13.838,13.377,13.838,13.377l61.01.637c3.773-22.931,29.583-14.231,27.7.419,12.787.532,12.2-.867,12.558-6.153q.021-.308.021-.6v-.067c-.018-4.712-3.8-5.705-3.8-5.705-4.25-16.1-33.336-17.2-33.336-17.2l-22.014-12.74c-6.569-3.406-13.981-4.515-20.853-4.515a79.822,79.822,0,0,0-23.8,3.878" transform="translate(-137.661 -310.224)" fill="none"/></clipPath><clipPath id="d"><path d="M166.363,433.928a10.566,10.566,0,1,0,10.565-10.7,10.638,10.638,0,0,0-10.565,10.7" transform="translate(-166.363 -423.229)" fill="none"/></clipPath><clipPath id="f"><path d="M455.79,431.587A11.242,11.242,0,1,0,467.031,420.2a11.318,11.318,0,0,0-11.241,11.384" transform="translate(-455.79 -420.203)" fill="none"/></clipPath><clipPath id="h"><path d="M40.61,0C28.37,0,16.659.136,8.173.506A8.917,8.917,0,0,0,0,9.362v.054C0,9.46,0,9.5,0,9.549,1.15,76.334.753,139.87.548,162.7a8.921,8.921,0,0,0,8.8,9.017l82.19,1.068a8.92,8.92,0,0,0,9.037-8.925C100.56,134,100.5,38.827,100.483,9.419A8.921,8.921,0,0,0,91.693.505C80.6.308,60.677.006,41.791,0Z" fill="none"/></clipPath><clipPath id="j"><path d="M24.128,26.546c1.423,79.634.525,156.709.525,156.709l85.477,1.2L110.04,26.2s-16.53-.39-35.422-.552c-1.861-.016-1.756,3.985-5.638,4.037-3.465.047-3.759-4.1-5.639-4.1-1.315,0-2.63-.005-3.937-.005-14.722,0-28.625.231-35.276.972" transform="translate(-24.128 -25.574)" fill="none"/></clipPath><clipPath id="k"><path d="M81.869,173.42c0,27.543,25.54,50.079,25.54,50.079s25.54-22.535,25.54-50.079a25.54,25.54,0,0,0-51.08,0" transform="translate(-81.869 -147.88)" fill="none"/></clipPath><clipPath id="l"><path d="M110.778,185.391a16.8,16.8,0,1,0,16.8-16.8,16.806,16.806,0,0,0-16.8,16.8" transform="translate(-110.778 -168.594)" fill="none"/></clipPath></defs><g clip-path="url(#a)"><path d="M149.566,416.964l.142,11.927,28.85-.268.284-13.032s-8.752-1.549-13.632-1.32c-3.168.148-15.644,2.693-15.644,2.693" transform="translate(-104.336 -288.976)" fill="#9c9c9c" fill-rule="evenodd"/><path d="M444.555,416.964l.2,12.382,28.736.525.341-14.279s-8.753-1.549-13.632-1.32c-3.168.148-15.644,2.693-15.644,2.693" transform="translate(-310.117 -288.976)" fill="#9c9c9c" fill-rule="evenodd"/><path d="M144.311,356.324h-6.29S135.666,342,143,340.218c0,0,8.575-21.572,24.53-26.116,0,0,25.809-9.135,44.657.637l22.014,12.74s29.085,1.1,33.336,17.2c0,0,4.128,1.084,3.774,6.37s.229,6.684-12.558,6.152c1.887-14.651-23.923-23.351-27.7-.419l-61.01-.637s.044-12.274-13.837-13.377c0,0-11.893.182-11.893,13.559" transform="translate(-96.031 -216.409)" fill="#259424" fill-rule="evenodd"/></g><g transform="translate(41.63 93.815)"><g clip-path="url(#b)"><path d="M547.7,403.419c2.207,0,4,1.524,4,3.4s-1.792,3.4-4,3.4-4-1.524-4-3.4,1.792-3.4,4-3.4" transform="translate(-420.912 -375.236)" fill="#fff" fill-rule="evenodd"/><path d="M232.357,336.883c0-2.814.16-11.662.16-11.662s-21.112,1.62-26.229,11.662Z" transform="translate(-185.534 -320.686)" fill="#8dc540" fill-rule="evenodd"/><path d="M304.658,324.771v11.662l36.785.648c-9.464-7.376-19.82-13.709-36.785-12.31" transform="translate(-254.156 -320.236)" fill="#8dc540" fill-rule="evenodd"/><path d="M351.8,388.065a9.2,9.2,0,1,1-9.467,9.2,9.339,9.339,0,0,1,9.467-9.2" transform="translate(-280.441 -364.525)" fill="#fff" fill-rule="evenodd"/><path d="M363.041,399.882s1.82-6.45.711-6.2-5.9,7.33-5.9,7.33-2,2,1.66,1.783h2.214l-1.107,4.358s-.851,3.719,1.844,0,3.874-5.547,3.874-5.547,1.846-2.049-.922-1.783Z" transform="translate(-290.882 -368.437)" fill="#8dc540" fill-rule="evenodd"/></g></g><g clip-path="url(#a)"><path d="M316.151,375.446c0-.337-.4-.61-.889-.61h-4.619c-.491,0-.889.273-.889.61v1.219c0,.337.4.61.889.61h4.619c.491,0,.889-.273.889-.61Z" transform="translate(-216.082 -261.482)" fill="#fff" fill-rule="evenodd"/><path d="M176.928,423.229a10.7,10.7,0,1,1-10.565,10.7,10.638,10.638,0,0,1,10.565-10.7" transform="translate(-116.053 -295.24)" fill-rule="evenodd"/></g><g transform="translate(50.31 127.989)"><g clip-path="url(#d)"><path d="M186.447,438.155a6.52,6.52,0,1,1-6.438,6.52,6.482,6.482,0,0,1,6.438-6.52" transform="translate(-175.882 -433.641)" fill="#fff" fill-rule="evenodd"/></g></g><g clip-path="url(#a)"><path d="M467.03,420.2a11.385,11.385,0,1,1-11.241,11.384A11.318,11.318,0,0,1,467.03,420.2" transform="translate(-317.954 -293.129)" fill="#383838" fill-rule="evenodd"/></g><g transform="translate(137.836 127.074)"><g clip-path="url(#f)"><path d="M477.16,436.085a6.938,6.938,0,1,1-6.85,6.937,6.9,6.9,0,0,1,6.85-6.937" transform="translate(-465.919 -431.282)" fill="#fff" fill-rule="evenodd"/></g></g><g clip-path="url(#a)"><path d="M8.173.506A8.916,8.916,0,0,0,0,9.549C1.151,76.334.754,139.87.548,162.7a8.92,8.92,0,0,0,8.8,9.017l82.19,1.068a8.921,8.921,0,0,0,9.037-8.926C100.56,134,100.5,38.828,100.484,9.42A8.921,8.921,0,0,0,91.693.505c-18.53-.33-61.7-.95-83.52,0" transform="translate(0 0)" fill="#259424" fill-rule="evenodd"/></g><g clip-path="url(#h)"><path d="M167.994,11.752a1.67,1.67,0,1,1-1.67,1.67,1.671,1.671,0,0,1,1.67-1.67" transform="translate(-116.026 -8.198)" fill="#fff" fill-rule="evenodd"/></g><g clip-path="url(#a)"><path d="M24.128,26.546c1.423,79.634.525,156.709.525,156.709l85.477,1.2L110.039,26.2s-16.53-.39-35.421-.552c-1.861-.016-1.757,3.985-5.639,4.037-3.465.047-3.759-4.1-5.639-4.1-16.131-.042-31.971.16-39.213.966" transform="translate(-16.831 -17.841)" fill="#fff" fill-rule="evenodd"/></g><g transform="translate(7.297 7.734)"><g clip-path="url(#j)"><path d="M104.925,367.226c14.69,0,26.616,4.161,26.616,9.286s-11.926,9.285-26.616,9.285-26.616-4.161-26.616-9.285,11.926-9.286,26.616-9.286" transform="translate(-61.924 -263.907)" fill="#259424" fill-rule="evenodd"/><path d="M107.409,223.5s25.54-22.535,25.54-50.078a25.54,25.54,0,1,0-51.08,0c0,27.543,25.54,50.078,25.54,50.078" transform="translate(-64.408 -110.894)" fill="#8dc540" fill-rule="evenodd"/></g></g><g transform="translate(24.758 44.72)"><g clip-path="url(#k)"><path d="M127.575,168.593a16.8,16.8,0,1,1-16.8,16.8,16.805,16.805,0,0,1,16.8-16.8" transform="translate(-102.036 -162.329)" fill="#fff" fill-rule="evenodd"/></g></g><g transform="translate(33.5 50.985)"><g clip-path="url(#l)"><path d="M151.384,194.8s2.667-10.266,1.043-9.872-8.653,11.666-8.653,11.666-2.931,3.178,2.433,2.838h3.245l-1.622,6.937s-1.248,5.919,2.7,0,5.678-8.829,5.678-8.829,2.706-3.262-1.352-2.838Z" transform="translate(-133.238 -179.979)" fill="#8dc540" fill-rule="evenodd"/><path d="M145.383,190.487a14.426,14.426,0,1,1-14.405-15.321v1.282a13.533,13.533,0,1,0,13.157,14.039Z" transform="translate(-114.814 -173.179)" fill="#259424" fill-rule="evenodd"/><path d="M205.782,208.586c0-.173-.1-.313-.221-.313s-.22.14-.22.313v1.823h.441Z" transform="translate(-176.744 -196.274)" fill="#9c9c9c" fill-rule="evenodd"/><path d="M212.876,208.53a.387.387,0,0,0-.065-.221.194.194,0,0,0-.156-.092h0a.194.194,0,0,0-.156.092.386.386,0,0,0-.065.221V210.4h.441Z" transform="translate(-181.693 -196.235)" fill="#9c9c9c" fill-rule="evenodd"/><path d="M207.092,215.222h-3.9v1.656a2.114,2.114,0,0,0,.349,1.2,1.049,1.049,0,0,0,.842.5H205.9a1.049,1.049,0,0,0,.842-.5,2.115,2.115,0,0,0,.349-1.2Z" transform="translate(-175.246 -201.121)" fill="#8dc540" fill-rule="evenodd"/></g></g></svg>