<svg xmlns="http://www.w3.org/2000/svg" xmlns:xlink="http://www.w3.org/1999/xlink" width="289.445" height="160.194" viewBox="0 0 289.445 160.194"><defs><clipPath id="a"><path d="M78.219,345.038l-3.255-.754a.708.708,0,0,0-.849.53l-.319,1.379a.708.708,0,0,0,.53.849l2.963.686a16.055,16.055,0,0,0-.488,3.726,4.7,4.7,0,0,0-2.908,4.342v9.389a4.7,4.7,0,0,0,4.695,4.695h48.289a4.7,4.7,0,0,0,4.695-4.695V355.8a4.7,4.7,0,0,0-2.908-4.342,16.037,16.037,0,0,0-.494-3.752l2.854-.661a.708.708,0,0,0,.53-.849l-.319-1.379a.708.708,0,0,0-.849-.53l-3.15.729c-3.523-7.915-13.163-13.6-24.5-13.6s-21,5.693-24.513,13.621" transform="translate(-73.776 -331.417)" fill="none"/></clipPath><clipPath id="c"><rect width="187.307" height="160.194" fill="none"/></clipPath><clipPath id="d"><path d="M151.022,197.467a8.588,8.588,0,0,0-5.937,2.355,7.871,7.871,0,0,0-2.459,5.685v78.4h38.008v-78.4a7.871,7.871,0,0,0-2.459-5.685,8.588,8.588,0,0,0-5.937-2.355Z" transform="translate(-142.626 -197.467)" fill="none"/></clipPath><clipPath id="e"><path d="M176.2,410.734a.936.936,0,0,0-.65.26.874.874,0,0,0-.269.628V418.2a.875.875,0,0,0,.269.629.937.937,0,0,0,.65.26h15.87a.937.937,0,0,0,.65-.26.875.875,0,0,0,.269-.629v-2.044a.339.339,0,0,0,.077.009h.648a.319.319,0,0,0,.324-.313v-1.671a.319.319,0,0,0-.324-.313h-.648a.335.335,0,0,0-.077.009v-2.252a.874.874,0,0,0-.269-.628.936.936,0,0,0-.65-.26Z" transform="translate(-175.279 -410.734)" fill="none"/></clipPath><clipPath id="h"><path d="M354.553,197.467a8.588,8.588,0,0,0-5.937,2.355,7.871,7.871,0,0,0-2.459,5.685v78.4h38.008v-78.4a7.871,7.871,0,0,0-2.459-5.685,8.588,8.588,0,0,0-5.937-2.355Z" transform="translate(-346.157 -197.467)" fill="none"/></clipPath><clipPath id="i"><path d="M379.729,410.734a.936.936,0,0,0-.65.26.874.874,0,0,0-.269.628V418.2a.875.875,0,0,0,.269.629.937.937,0,0,0,.65.26H395.6a.937.937,0,0,0,.65-.26.875.875,0,0,0,.269-.629v-2.044a.339.339,0,0,0,.078.009h.648a.319.319,0,0,0,.324-.313v-1.671a.319.319,0,0,0-.324-.313H396.6a.336.336,0,0,0-.078.009v-2.252a.874.874,0,0,0-.269-.628.936.936,0,0,0-.65-.26Z" transform="translate(-378.81 -410.734)" fill="none"/></clipPath></defs><g transform="translate(-529 -2010)"><g transform="translate(529 2010)"><g transform="translate(22.968 109.398)"><path d="M332.242,398.063h-.008L324.539,398a1,1,0,0,1,.008-2h.008l6.69.054.059-16.77a1,1,0,0,1,1.016-1l5.943.1a1,1,0,0,1-.033,2l-4.93-.08-.059,16.762a1,1,0,0,1-1,1Z" transform="translate(-268.849 -368.683)" fill="#383838"/><g transform="translate(0 0)"><g transform="translate(0)"><path d="M397.082,370.419a.373.373,0,1,0,0-.722h-2.741v.722Z" transform="translate(-323.18 -361.216)" fill="#9c9c9c" fill-rule="evenodd"/><path d="M396.925,386.253a.55.55,0,0,0,.332-.106.305.305,0,0,0,0-.51.55.55,0,0,0-.332-.105h-2.819v.722Z" transform="translate(-322.997 -373.542)" fill="#9c9c9c" fill-rule="evenodd"/><path d="M376.874,371.276V364.9h-2.489a2.994,2.994,0,0,0-1.8.57,1.749,1.749,0,0,0-.747,1.377v2.48a1.749,1.749,0,0,0,.747,1.377,2.993,2.993,0,0,0,1.8.57Z" transform="translate(-305.661 -357.484)" fill="#259424" fill-rule="evenodd"/><path d="M3.309,0h0A3.309,3.309,0,0,1,6.618,3.309V5.455A3.308,3.308,0,0,1,3.309,8.764h0A3.309,3.309,0,0,1,0,5.455V3.309A3.309,3.309,0,0,1,3.309,0Z" transform="translate(7.247 36.066)" fill="#383838"/><path d="M3.309,0h0A3.308,3.308,0,0,1,6.617,3.308V5.455A3.308,3.308,0,0,1,3.309,8.764h0A3.308,3.308,0,0,1,0,5.455V3.309A3.309,3.309,0,0,1,3.309,0Z" transform="translate(44.03 36.066)" fill="#383838"/><path d="M1.416,0h0A1.416,1.416,0,0,1,2.832,1.416V3.428A1.416,1.416,0,0,1,1.416,4.844h0A1.416,1.416,0,0,1,0,3.428V1.416A1.416,1.416,0,0,1,1.416,0Z" transform="matrix(0.226, -0.974, 0.974, 0.226, 0, 15.466)" fill="#8dc540"/><path d="M78.219,345.038c3.515-7.928,13.162-13.621,24.513-13.621s20.979,5.682,24.5,13.6l3.15-.729a.708.708,0,0,1,.849.53l.319,1.379a.708.708,0,0,1-.53.849l-2.853.661a16.063,16.063,0,0,1,.494,3.752,4.7,4.7,0,0,1,2.908,4.342v9.389a4.7,4.7,0,0,1-4.695,4.695H78.587a4.7,4.7,0,0,1-4.695-4.695V355.8a4.7,4.7,0,0,1,2.908-4.342,16.055,16.055,0,0,1,.488-3.726l-2.963-.686a.708.708,0,0,1-.53-.849l.319-1.379a.708.708,0,0,1,.849-.53Z" transform="translate(-73.636 -331.417)" fill="#259424" fill-rule="evenodd"/></g></g><g transform="translate(0.141 0)"><g transform="translate(0)" clip-path="url(#a)"><path d="M145.433,356.674c0-9.112-11.838-17.349-24.488-17.515-13.85-.182-23.7,8.4-23.7,17.515Z" transform="translate(-92.047 -337.442)" fill="#8dc540" fill-rule="evenodd"/><path d="M109.159,447.72a3.309,3.309,0,1,1-3.309,3.309,3.31,3.31,0,0,1,3.309-3.309" transform="translate(-98.744 -421.954)" fill="#fff" fill-rule="evenodd"/><path d="M275.19,447.72a3.309,3.309,0,1,1-3.309,3.309,3.31,3.31,0,0,1,3.309-3.309" transform="translate(-227.992 -421.954)" fill="#fff" fill-rule="evenodd"/><rect width="25.695" height="1.49" transform="translate(16.615 29.075)" fill="#fff"/></g></g></g><g transform="translate(196.418 109.398)"><path d="M330.553,398.063a1,1,0,0,1-1-1l-.059-16.762-4.93.08a1,1,0,1,1-.033-2l5.943-.1a1,1,0,0,1,1.016,1l.059,16.771,6.69-.054a1,1,0,1,1,.016,2l-7.694.062Z" transform="translate(-319.547 -368.683)" fill="#383838"/><g transform="translate(0 0)"><path d="M394.811,370.419a.373.373,0,1,1,0-.722h2.741v.722Z" transform="translate(-394.315 -361.216)" fill="#9c9c9c" fill-rule="evenodd"/><path d="M394.576,386.253a.55.55,0,0,1-.332-.106.305.305,0,0,1,0-.51.55.55,0,0,1,.332-.105H397.4v.722Z" transform="translate(-394.106 -373.542)" fill="#9c9c9c" fill-rule="evenodd"/><path d="M371.836,371.276V364.9h2.489a2.994,2.994,0,0,1,1.8.57,1.749,1.749,0,0,1,.747,1.377v2.48a1.749,1.749,0,0,1-.747,1.377,2.993,2.993,0,0,1-1.8.57Z" transform="translate(-368.651 -357.484)" fill="#259424" fill-rule="evenodd"/><path d="M3.309,0h0A3.309,3.309,0,0,1,6.618,3.309V5.455A3.308,3.308,0,0,1,3.309,8.764h0A3.309,3.309,0,0,1,0,5.455V3.309A3.309,3.309,0,0,1,3.309,0Z" transform="translate(25.875 36.066)" fill="#383838"/><path d="M3.309,0h0A3.308,3.308,0,0,1,6.617,3.308V5.455A3.308,3.308,0,0,1,3.309,8.764h0A3.308,3.308,0,0,1,0,5.455V3.309A3.309,3.309,0,0,1,3.309,0Z" transform="translate(62.659 36.066)" fill="#383838"/><path d="M1.416,0h0A1.416,1.416,0,0,1,2.832,1.416V3.428A1.416,1.416,0,0,1,1.416,4.844h0A1.416,1.416,0,0,1,0,3.428V1.416A1.416,1.416,0,0,1,1.416,0Z" transform="matrix(0.226, -0.974, 0.974, 0.226, 18.628, 15.466)" fill="#8dc540"/><path d="M78.219,345.038c3.515-7.928,13.162-13.621,24.513-13.621s20.979,5.682,24.5,13.6l3.15-.729a.708.708,0,0,1,.849.53l.319,1.379a.708.708,0,0,1-.53.849l-2.853.661a16.063,16.063,0,0,1,.494,3.752,4.7,4.7,0,0,1,2.908,4.342v9.389a4.7,4.7,0,0,1-4.695,4.695H78.587a4.7,4.7,0,0,1-4.695-4.695V355.8a4.7,4.7,0,0,1,2.908-4.342,16.055,16.055,0,0,1,.488-3.726l-2.963-.686a.708.708,0,0,1-.53-.849l.319-1.379a.708.708,0,0,1,.849-.53Z" transform="translate(-55.007 -331.417)" fill="#259424" fill-rule="evenodd"/></g><g transform="translate(18.77 0)"><g transform="translate(0)" clip-path="url(#a)"><path d="M145.433,356.674c0-9.112-11.838-17.349-24.488-17.515-13.85-.182-23.7,8.4-23.7,17.515Z" transform="translate(-92.047 -337.442)" fill="#8dc540" fill-rule="evenodd"/><path d="M109.159,447.72a3.309,3.309,0,1,1-3.309,3.309,3.31,3.31,0,0,1,3.309-3.309" transform="translate(-98.744 -421.954)" fill="#fff" fill-rule="evenodd"/><path d="M275.19,447.72a3.309,3.309,0,1,1-3.309,3.309,3.31,3.31,0,0,1,3.309-3.309" transform="translate(-227.992 -421.954)" fill="#fff" fill-rule="evenodd"/><rect width="25.695" height="1.49" transform="translate(16.615 29.075)" fill="#fff"/></g></g></g><g transform="translate(0 0)"><path d="M-.451,38.537V62.973H87.378V180.02H-55.3v6.732H234.148V180.02H96.206V62.973h87.83V38.537Z" transform="translate(55.297 -26.558)" fill="#259424"/><g transform="translate(52.026)"><g clip-path="url(#c)"><path d="M254.82,0c11.567,0,20.959,9.124,20.959,20.363s-9.392,20.363-20.959,20.363S233.861,31.6,233.861,20.363,243.252,0,254.82,0" transform="translate(-161.166)" fill="#fff" fill-rule="evenodd"/><path d="M278.8,25.822s4.028-14.28,1.574-13.733-13.068,16.228-13.068,16.228-4.427,4.421,3.675,3.947h4.9l-2.45,9.65s-1.885,8.234,4.084,0,8.576-12.281,8.576-12.281,4.087-4.537-2.042-3.947Z" transform="translate(-183.385 -8.321)" fill="#8dc540" fill-rule="evenodd"/><path d="M173.162,478.047a2.536,2.536,0,0,0-2.578-2.492H128.877a2.536,2.536,0,0,0-2.577,2.492v.654a2.536,2.536,0,0,0,2.577,2.492h41.707a2.536,2.536,0,0,0,2.578-2.492Z" transform="translate(-87.04 -327.731)" fill="#383838" fill-rule="evenodd"/><path d="M180.634,205.507a7.872,7.872,0,0,0-2.459-5.685,8.59,8.59,0,0,0-5.937-2.355H151.022a8.59,8.59,0,0,0-5.937,2.355,7.872,7.872,0,0,0-2.459,5.685v78.4h38.008Z" transform="translate(-98.291 -136.085)" fill="#8dc540" fill-rule="evenodd"/></g></g><g transform="translate(96.36 61.382)"><g clip-path="url(#d)"><path d="M187.467,397.548a2.46,2.46,0,0,0-2.511-2.4H163.2a2.46,2.46,0,0,0-2.511,2.4v13.389a2.46,2.46,0,0,0,2.511,2.4h21.756a2.46,2.46,0,0,0,2.511-2.4Z" transform="translate(-155.074 -333.696)" fill="#fff" fill-rule="evenodd"/><path d="M192.987,416.154a.339.339,0,0,0,.077.009h.648a.319.319,0,0,0,.324-.313v-1.671a.319.319,0,0,0-.324-.313h-.648a.335.335,0,0,0-.077.009v-2.252a.874.874,0,0,0-.269-.628.936.936,0,0,0-.65-.26H176.2a.936.936,0,0,0-.65.26.874.874,0,0,0-.269.628V418.2a.874.874,0,0,0,.269.628.936.936,0,0,0,.65.26h15.87a.936.936,0,0,0,.65-.26.874.874,0,0,0,.269-.628Z" transform="translate(-165.129 -344.441)" fill="#9c9c9c" fill-rule="evenodd"/></g></g><g transform="translate(106.51 127.675)"><g clip-path="url(#e)"><rect width="2.592" height="6.264" transform="translate(1.049 1.121)" fill="#8dc540"/><rect width="2.592" height="6.264" transform="translate(4.072 1.121)" fill="#8dc540"/><rect width="2.592" height="6.264" transform="translate(7.096 1.121)" fill="#8dc540"/><rect width="2.591" height="6.264" transform="translate(10.119 1.121)" fill="#8dc540"/></g></g><g transform="translate(96.36 61.382)"><g clip-path="url(#d)"><path d="M187.467,215.677a3.233,3.233,0,0,0-3.434-2.984H164.123a3.233,3.233,0,0,0-3.434,2.984V243.7a10.918,10.918,0,0,0,3.922,8.226,14.479,14.479,0,0,0,9.467,3.408h0a14.479,14.479,0,0,0,9.467-3.408,10.918,10.918,0,0,0,3.922-8.226Z" transform="translate(-155.074 -207.96)" fill="#fff" fill-rule="evenodd"/></g></g><g transform="translate(52.026)"><g clip-path="url(#c)"><path d="M192.428,252.687s2.428-8.608.949-8.277-7.877,9.782-7.877,9.782-2.668,2.665,2.215,2.379h2.954l-1.477,5.816s-1.136,4.963,2.462,0,5.169-7.4,5.169-7.4,2.464-2.735-1.231-2.38Z" transform="translate(-127.337 -168.43)" fill="#8dc540" fill-rule="evenodd"/><path d="M376.693,478.047a2.536,2.536,0,0,0-2.578-2.492H332.408a2.536,2.536,0,0,0-2.577,2.492v.654a2.536,2.536,0,0,0,2.577,2.492h41.707a2.536,2.536,0,0,0,2.578-2.492Z" transform="translate(-227.305 -327.731)" fill="#383838" fill-rule="evenodd"/><path d="M384.165,205.507a7.872,7.872,0,0,0-2.459-5.685,8.59,8.59,0,0,0-5.937-2.355H354.553a8.59,8.59,0,0,0-5.937,2.355,7.872,7.872,0,0,0-2.459,5.685v78.4h38.008Z" transform="translate(-238.556 -136.085)" fill="#8dc540" fill-rule="evenodd"/></g></g><g transform="translate(159.627 61.382)"><g clip-path="url(#h)"><path d="M391,397.548a2.46,2.46,0,0,0-2.511-2.4H366.731a2.46,2.46,0,0,0-2.511,2.4v13.389a2.46,2.46,0,0,0,2.511,2.4h21.756a2.46,2.46,0,0,0,2.511-2.4Z" transform="translate(-358.605 -333.696)" fill="#fff" fill-rule="evenodd"/><path d="M396.518,416.154a.339.339,0,0,0,.078.009h.648a.319.319,0,0,0,.324-.313v-1.671a.319.319,0,0,0-.324-.313H396.6a.336.336,0,0,0-.078.009v-2.252a.874.874,0,0,0-.269-.628.936.936,0,0,0-.65-.26h-15.87a.936.936,0,0,0-.65.26.874.874,0,0,0-.269.628V418.2a.874.874,0,0,0,.269.628.936.936,0,0,0,.65.26H395.6a.936.936,0,0,0,.65-.26.874.874,0,0,0,.269-.628Z" transform="translate(-368.66 -344.441)" fill="#9c9c9c" fill-rule="evenodd"/></g></g><g transform="translate(169.777 127.675)"><g clip-path="url(#i)"><rect width="2.592" height="6.264" transform="translate(1.049 1.121)" fill="#8dc540"/><rect width="2.592" height="6.264" transform="translate(4.072 1.121)" fill="#8dc540"/><rect width="2.592" height="6.264" transform="translate(7.096 1.121)" fill="#8dc540"/><rect width="2.591" height="6.264" transform="translate(10.119 1.121)" fill="#8dc540"/></g></g><g transform="translate(159.627 61.382)"><g clip-path="url(#h)"><path d="M391,215.677a3.233,3.233,0,0,0-3.434-2.984H367.654a3.233,3.233,0,0,0-3.434,2.984V243.7a10.918,10.918,0,0,0,3.922,8.226,14.479,14.479,0,0,0,9.467,3.408h0a14.479,14.479,0,0,0,9.467-3.408A10.918,10.918,0,0,0,391,243.7Z" transform="translate(-358.605 -207.96)" fill="#fff" fill-rule="evenodd"/></g></g><g transform="translate(52.026)"><g clip-path="url(#c)"><path d="M395.959,252.687s2.428-8.608.949-8.277-7.877,9.782-7.877,9.782-2.668,2.665,2.215,2.379H394.2l-1.477,5.816s-1.136,4.963,2.462,0,5.169-7.4,5.169-7.4,2.464-2.735-1.231-2.38Z" transform="translate(-267.601 -168.43)" fill="#8dc540" fill-rule="evenodd"/></g></g></g></g></g></svg>