<svg xmlns="http://www.w3.org/2000/svg" xmlns:xlink="http://www.w3.org/1999/xlink" width="77.705" height="97.879" viewBox="0 0 77.705 97.879"><defs><clipPath id="a"><rect width="51.619" height="85.374" fill="none"/></clipPath></defs><g transform="translate(29.199) rotate(20)"><g clip-path="url(#a)"><path d="M28.069,0H41.233l5.611,17.507v9.649l1.6,6.878h-6.51L40.2,29.61H29.1l-1.734,4.424h-6.51l1.6-6.878V17.507Zm6.584,12.725a3.958,3.958,0,1,0,3.952,3.958,3.953,3.953,0,0,0-3.952-3.958" transform="translate(-8.842)" fill="#e6e6e6"/><path d="M18.525,59.08h.688a.694.694,0,0,1,.644.96c-1.89,4.547-9.824,23.924-10.164,29.606a30.717,30.717,0,0,0,2.419,13.895,4.823,4.823,0,1,1-8.727,4.107A40.469,40.469,0,0,1,.067,89.07c.418-6.984,8.319-25.56,9.945-29.321a1.111,1.111,0,0,1,1.023-.669h7.489Z" transform="translate(0 -25.046)" fill="#f15a24"/><path d="M74.884,89.07a40.469,40.469,0,0,1-3.318,18.578,4.82,4.82,0,1,1-8.722-4.107,30.805,30.805,0,0,0,2.414-13.895c-.34-5.682-8.274-25.059-10.164-29.606a.694.694,0,0,1,.644-.96h8.178a1.111,1.111,0,0,1,1.023.669c1.626,3.761,9.527,22.337,9.945,29.321" transform="translate(-23.333 -25.046)" fill="#f15a24"/><rect width="2.304" height="16.683" transform="translate(24.66)" fill="#999"/><path d="M41.895,22.09a3.958,3.958,0,1,1-3.958,3.958,3.952,3.952,0,0,1,3.958-3.958" transform="translate(-16.083 -9.365)" fill="#999"/></g></g></svg>