<svg xmlns="http://www.w3.org/2000/svg" width="66.24" height="67.217" viewBox="0 0 66.24 67.217"><g transform="translate(66.119 0.108) rotate(90)"><path d="M29.572,66.489a5.518,5.518,0,0,1-.826-.062,33.694,33.694,0,0,1-20.3-11.111A32.968,32.968,0,0,1,.25,33.53,32.765,32.765,0,0,1,3.108,20.079,33.581,33.581,0,0,1,22.4,2.234,33.838,33.838,0,0,1,57.456,9.857a32.988,32.988,0,0,1,4.806,41.47A33.649,33.649,0,0,1,46.2,64.495a1.25,1.25,0,1,1-.911-2.328A30.632,30.632,0,0,0,64.847,30.788a31.2,31.2,0,0,0-52.281-19.7A30.341,30.341,0,0,0,2.75,33.53,31.069,31.069,0,0,0,29.12,63.955a3.042,3.042,0,0,0,3.488-3V51.869a1.25,1.25,0,1,1,2.5,0v9.089a5.544,5.544,0,0,1-5.536,5.531Z" transform="translate(-0.358 -0.37)" fill="#383838"/><path d="M52.813,33.091H24.393a3.032,3.032,0,1,0,0,6.063h.938v7.377A13.2,13.2,0,0,0,38.6,59.663H38.6A13.2,13.2,0,0,0,51.869,46.531V39.154h.944a3.032,3.032,0,1,0,0-6.063Z" transform="translate(-5.097 -8.164)" fill="#383838"/><path d="M24.393,31.841h28.42a4.281,4.281,0,0,1,.306,8.553v6.138A14.22,14.22,0,0,1,48.863,56.7,14.49,14.49,0,0,1,38.6,60.913H38.6A14.49,14.49,0,0,1,28.338,56.7a14.22,14.22,0,0,1-4.256-10.174V40.393a4.281,4.281,0,0,1,.312-8.552ZM52.813,37.9a1.782,1.782,0,1,0,0-3.563H24.393a1.782,1.782,0,1,0,0,3.563h.938a1.25,1.25,0,0,1,1.25,1.25v7.377A11.963,11.963,0,0,0,38.6,58.413H38.6A11.963,11.963,0,0,0,50.619,46.531V39.154a1.25,1.25,0,0,1,1.25-1.25Z" transform="translate(-5.097 -8.164)" fill="#383838"/><path d="M49.859,29.363v-9.49a1.911,1.911,0,0,1,3.823,0v9.49" transform="translate(-11.915 -4.436)" fill="#383838"/><path d="M53.682,30.613a1.25,1.25,0,0,1-1.25-1.25v-9.49a.662.662,0,0,0-1.323,0v9.49a1.25,1.25,0,0,1-2.5,0v-9.49a3.161,3.161,0,0,1,6.323,0v9.49A1.25,1.25,0,0,1,53.682,30.613Z" transform="translate(-11.915 -4.436)" fill="#383838"/><path d="M33.172,29.363v-9.49a1.911,1.911,0,0,1,3.823,0v9.49" transform="translate(-7.927 -4.436)" fill="#383838"/><path d="M36.995,30.613a1.25,1.25,0,0,1-1.25-1.25v-9.49a.662.662,0,0,0-1.323,0v9.49a1.25,1.25,0,1,1-2.5,0v-9.49a3.161,3.161,0,0,1,6.323,0v9.49A1.25,1.25,0,0,1,36.995,30.613Z" transform="translate(-7.927 -4.436)" fill="#383838"/><path d="M19.221,1.25H0A1.25,1.25,0,0,1-1.25,0,1.25,1.25,0,0,1,0-1.25H19.221A1.25,1.25,0,0,1,20.471,0,1.25,1.25,0,0,1,19.221,1.25Z" transform="translate(20.234 30.991)" fill="#fff"/></g></svg>