<svg xmlns="http://www.w3.org/2000/svg" xmlns:xlink="http://www.w3.org/1999/xlink" width="330.585" height="395.647" viewBox="0 0 330.585 395.647"><defs><clipPath id="a"><rect width="39.7" height="70.532" fill="none"/></clipPath><clipPath id="c"><rect width="33.414" height="14.191" fill="none"/></clipPath><clipPath id="d"><rect width="48.913" height="93.25" fill="none"/></clipPath><clipPath id="f"><rect width="39.367" height="16.72" fill="none"/></clipPath></defs><g transform="translate(0 40.284)"><path d="M565.4,1107.041l80.9,46.706a15.7,15.7,0,0,0,15.7,0l175.44-101.291a3.863,3.863,0,0,0,0-6.692l-80.9-46.706a15.7,15.7,0,0,0-15.7,0L565.4,1100.349A3.863,3.863,0,0,0,565.4,1107.041Z" transform="translate(-559.585 -800.487)" fill="#231f20" opacity="0.15"/><g transform="translate(0 0)"><g transform="translate(133.727 0)"><path d="M442.953,725.321l162.528-93.836a27.867,27.867,0,0,0,13.9-24.067v-78.5H616v78.5a24.482,24.482,0,0,1-12.207,21.143L441.264,722.4Z" transform="translate(-441.264 -455.206)" fill="#bcbcbc"/><path d="M436.965,470.365H442.6V484.9a2.816,2.816,0,0,1-2.816,2.816h0a2.816,2.816,0,0,1-2.816-2.816Z" transform="translate(-263.357 -412.012)" fill="#dfeef1"/><g transform="translate(155.989)"><path d="M439.4,294.537V312.3a30.528,30.528,0,0,1-14.163,25.759l-1.162,6.619-10.2-5.929,0,0-.016-.009h0a10.156,10.156,0,0,1-5.108-8.868V312.234Z" transform="translate(-408.746 -282.301)" fill="#9fbbc1"/><path d="M369.791,312.228l10.217,5.9,30.651-17.7-10.217-5.9Z" transform="translate(-369.791 -282.297)" fill="#fffeff"/><path d="M369.791,334.719v17.633a10.254,10.254,0,0,0,15.382,8.881h0a30.539,30.539,0,0,0,15.27-26.448V317.022Z" transform="translate(-359.574 -298.889)" fill="#f4f5f5"/><path d="M473.722,283.629h0a1.952,1.952,0,0,1,1.952,1.952v16.841a1.952,1.952,0,0,1-1.952,1.952h0a1.952,1.952,0,0,1-1.952-1.952V285.581A1.952,1.952,0,0,1,473.722,283.629Z" transform="translate(-461.553 -274.254)" fill="#63819a"/><path d="M410.7,247.885h0a1.952,1.952,0,0,1,1.952,1.952v16.841a1.952,1.952,0,0,1-1.952,1.952h0a1.952,1.952,0,0,1-1.952-1.952V249.837A1.952,1.952,0,0,1,410.7,247.885Z" transform="translate(-381.999 -247.885)" fill="#63819a"/></g></g><path d="M1076.617,1348.69l-25.283-14.6,9.192-9.986,18.985,10.961Z" transform="translate(-927.683 -1041.832)" fill="#9a96a1"/><path d="M589.538,1067.222l-25.283-14.6,9.192-9.986,18.985,10.961Z" transform="translate(-312.851 -834.188)" fill="#9a96a1"/><g transform="translate(94.177 280.026)"><path d="M1196.206,1479.34l-8.783-5.076,8.783-10.52Z" transform="translate(-1174.248 -1424.872)" fill="#0c1b23"/><path d="M1094.071,1345.432l8.783,5.076-8.783,10.519Z" transform="translate(-1056.412 -1337.591)" fill="#0c1b23"/><ellipse cx="15.212" cy="24.125" rx="15.212" ry="24.125" transform="translate(26.349 56.998) rotate(-150)" fill="#0c1b23"/><ellipse cx="15.212" cy="24.125" rx="15.212" ry="24.125" transform="translate(35.117 62.078) rotate(-150)" fill="#143a43"/><path d="M1107.044,1417.829c3.351,0,9.059-3.718,13.039-10.611a24.632,24.632,0,0,0,3.6-12.665c-.093-2.378-.785-4.279-1.766-4.845a2.254,2.254,0,0,0-1.209-.27c-3.352,0-9.061,3.72-13.04,10.612a24.63,24.63,0,0,0-3.6,12.664c.093,2.377.787,4.279,1.767,4.845a2.259,2.259,0,0,0,1.209.27Z" transform="translate(-1079.87 -1370.056)" fill="#e1dfdf"/></g><g transform="translate(221.966 206.343)"><path d="M708.99,1198.407l-8.783-5.076,8.783-10.52Z" transform="translate(-687.032 -1143.939)" fill="#0c1b23"/><path d="M606.855,1064.5l8.783,5.076-8.783,10.52Z" transform="translate(-569.196 -1056.659)" fill="#0c1b23"/><ellipse cx="15.212" cy="24.125" rx="15.212" ry="24.125" transform="translate(26.349 56.998) rotate(-150)" fill="#0c1b23"/><ellipse cx="15.212" cy="24.125" rx="15.212" ry="24.125" transform="translate(35.117 62.078) rotate(-150)" fill="#143a43"/><path d="M619.828,1136.9c3.351,0,9.059-3.719,13.039-10.611a24.635,24.635,0,0,0,3.6-12.665c-.093-2.378-.786-4.279-1.766-4.845a2.252,2.252,0,0,0-1.209-.27c-3.352,0-9.061,3.72-13.04,10.613a24.63,24.63,0,0,0-3.6,12.664c.093,2.376.787,4.279,1.768,4.845a2.261,2.261,0,0,0,1.209.27Z" transform="translate(-592.654 -1089.123)" fill="#e1dfdf"/></g><path d="M539.56,915.168l40.518,23.393a.05.05,0,0,1,.041.013c1.094.419,27.539,10.332,54.011.095l.148-.081c-2.175-6.9-.743-16.613,4.5-25.689,7.806-13.506,21.042-20.475,29.565-15.559,5.24,3.012,7.455,9.819,6.6,17.734l87.087-50.337c-2.12-6.888-.662-16.5,4.538-25.513,7.806-13.52,21.042-20.489,29.565-15.573,5.186,3,7.415,9.711,6.618,17.544l4.039-2.323c8.385-4.824,9.222-16.613,8.737-25.21-.635-11.26-9.348-19.08-17.651-25.614-11.534-9.076-82.739-49.554-82.739-49.554a88.65,88.65,0,0,0-15.478-2.039,90.532,90.532,0,0,0-25.04,2.039c-13.385,3.133-36.4,15.735-51.323,24.446a80.21,80.21,0,0,0-23.7,21.11l-24.527,32.644s-27.958,15.532-41.68,37.088c-.459.729-.9,1.459-1.323,2.2a42.774,42.774,0,0,0-5.835,16.667c-.081.743-.148,1.486-.175,2.242v19.625S524.892,906.713,539.56,915.168Z" transform="translate(-526.032 -608.211)" fill="#fff"/><g transform="translate(0 208.483)"><path d="M1155.022,1141.239l40.518,23.393a.05.05,0,0,1,.041.013c13.318,3.215,23.472,1.8,29.621.072a9.282,9.282,0,0,0,6.738-8.952V1145.8a13.737,13.737,0,0,1,2.726-8.213l35.01-46.94-79.146-47.879s-27.958,15.532-41.653,37.061l-.027.027c-.459.729-.9,1.459-1.323,2.2a42.772,42.772,0,0,0-5.835,16.667c-.081.743-.148,1.486-.176,2.242v19.625S1140.354,1132.785,1155.022,1141.239Z" transform="translate(-1141.494 -1042.766)" fill="#dfeef1"/><path d="M1412.545,1339.759v-10.723l45.961,26.535v10.723Z" transform="translate(-1401.417 -1253.953)" fill="#123a46"/><path d="M1577.835,1209.23c3.417,8.806,10.931,8.849,10.931,8.849l2.214-3.529a2.476,2.476,0,0,0-.256-3.02c-4.757-4.971-6.484-14.386-7.054-18.967A42.775,42.775,0,0,0,1577.835,1209.23Z" transform="translate(-1577.638 -1153.275)" fill="#a8cdd8"/><path d="M1259.853,1360.128l1.015,4.163s21.1,5.255,27.728-.866,5.09-13.562,5.335-14.666c.23-1.035-15.409,8.742-31.623,8.363A2.438,2.438,0,0,0,1259.853,1360.128Z" transform="translate(-1196.778 -1268.446)" fill="#a8cdd8"/><path d="M1158.828,1099.084s-1.1-9.581,6.052-22.532c6.591-11.939,26.391-33.786,26.391-33.786l74.615,48.629s-32.187,30.7-62.852,34.067Z" transform="translate(-1142.235 -1042.766)" fill="#f0f5f7"/><path d="M1382.219,1252.488s1.089,2.167,12.644,9.463h0l21.272,12.281a50.348,50.348,0,0,0,14.541,5.363s-12.032,5.423-20.984,1.043l-18.122-10.463s-7.791-2.822-9.249-14.661c-.032-.256-.028-.516-.043-.775l-.05-.083.047.027c-.016-.3-.048-.589-.049-.883Z" transform="translate(-1365.633 -1197.482)" fill="#123a46"/></g><path d="M676.2,784.059a79.954,79.954,0,0,1,8.445-9.538c9.658,9.965,20.194,19.252,32.2,26.3,12.6,7.4,26.617,11.95,40.652,15.753,1.216.32,4.411-3.636,5.21-4.349,8.333-7.434,18.857-13.126,28.62-18.466,10.332-5.651,21.239-10.5,32.741-13.194,1.53-.358,3.046-.646,4.553-.905L755.767,737.6a93.7,93.7,0,0,1,20.518-1.137c14.964,8.256,29.919,16.523,44.664,25.167,9.837,5.767,19.936,11.3,28.74,18.614,3.02,2.509,6.851,5.54,8.522,9.2,4.024,8.824-3.861,16.214-10.009,21.257a114.317,114.317,0,0,1-15.666,11.212L752.69,867.175c-2.992,1.7-8.787,1.1-12.048,1.112-21.3.076-43.076-6.89-61.267-17.75-11.951-7.134-24.7-17.233-27.405-31.74-.06-.318-.517-1.795-.292-2.094Z" transform="translate(-602.641 -608.22)" fill="#0a1b21" opacity="0.37"/><path d="M676.2,784.059a79.954,79.954,0,0,1,8.445-9.538c9.658,9.965,20.194,19.252,32.2,26.3,12.6,7.4,26.617,11.95,40.652,15.753,0,0,4.411-3.636,5.21-4.349,7.025-6.268,15.188-11.064,23.393-15.6,12.054-6.665,24.479-12.9,37.967-16.059,1.53-.358,3.046-.646,4.553-.905L755.767,737.6a93.7,93.7,0,0,1,20.518-1.137c14.964,8.256,29.919,16.523,44.664,25.167,9.837,5.767,19.936,11.3,28.74,18.614,3.02,2.509,6.851,5.54,8.522,9.2,4.024,8.824-3.861,16.214-10.009,21.257a114.317,114.317,0,0,1-15.666,11.212L752.69,867.175c-2.992,1.7-8.787,1.1-12.048,1.112-21.3.076-43.076-6.89-61.267-17.75-11.951-7.134-24.7-17.233-27.405-31.74-.06-.318-.517-1.795-.292-2.094Z" transform="translate(-602.641 -608.22)" fill="#0a1b21"/><path d="M676.2,784.059a79.954,79.954,0,0,1,8.445-9.538c9.658,9.965,20.194,19.252,32.2,26.3,12.6,7.4,26.617,11.95,40.652,15.753,0,0,4.411-3.636,5.21-4.349,7.025-6.268,15.188-11.064,23.393-15.6,12.054-6.665,24.479-12.9,37.967-16.059,1.53-.358,3.046-.646,4.553-.905L755.767,737.6a93.7,93.7,0,0,1,20.518-1.137c14.964,8.256,29.919,16.523,44.664,25.167,9.837,5.767,19.936,11.3,28.74,18.614,3.02,2.509,6.851,5.54,8.522,9.2,4.024,8.824-3.861,16.214-10.009,21.257a114.317,114.317,0,0,1-15.666,11.212L752.69,867.175c-2.992,1.7-8.787,1.1-12.048,1.112-21.3.076-43.076-6.89-61.267-17.75-11.951-7.134-24.7-17.233-27.405-31.74-.06-.318-.517-1.795-.292-2.094Z" transform="translate(-602.641 -608.22)" fill="#0a1b21" opacity="0.09"/><path d="M1065.642,941.47c.027.095.041.176.054.23a30.712,30.712,0,0,0,6.9,13.992c4.281,5.173,10.454,10.143,18.6,15.005a121.794,121.794,0,0,0,44.813,16.153l24.446-44.314c-5.159-1.486-10.548-3.187-15.964-5.227a129.568,129.568,0,0,1-19.962-9.346q-3.566-2.087-7.091-4.511a164,164,0,0,1-23.055-19.516,76.6,76.6,0,0,0-5.2,6.2l-19.246,25.608Z" transform="translate(-1012.379 -731.866)" fill="#076684"/><path d="M797.968,1014.822c.3-6.46.779-12.965,2.723-19.17,3.852-12.3,13.432-19.339,23.506-26.425,11.067-7.784,22.661-15.152,35.384-19.927q2.68-1.006,5.422-1.838c.834,4.092,3.469,17.4,5.525,31.783-21.713,12.577-56.31,32.244-70.295,40.182-.7.4-1.2.332-1.548-.031C797.674,1018.34,797.906,1016.148,797.968,1014.822Z" transform="translate(-652.229 -763.974)" fill="#076684"/><path d="M699.294,937.583c.59-.15,1.179-.3,1.773-.439,5.6-1.277,11.67-2.343,17.408-1.451,11.852,1.843,10.424,16.051,3.063,22.317q-1.047.81-2.127,1.614c-1.754,1.162-6.815,4.163-13.737,8.192C705,964.186,702.948,953.608,699.294,937.583Z" transform="translate(-483.062 -755.05)" fill="#076684"/><path d="M1419.245,978.135c.7-.938-1.612-3.323-2.181-3.857-1.533-1.438-4.06-3.022-6.259-2.927a2.242,2.242,0,0,0-2.094,1.811c-1.049,4.054,2.885,9.019,5.787,11.291Z" transform="translate(-1361.235 -781.595)" fill="#fff"/><path d="M1039.733,1180.042a3.846,3.846,0,0,1,.992-.27,24.753,24.753,0,0,1,4.814-.2,24.2,24.2,0,0,1,6.728,1.082,18.132,18.132,0,0,1,7.288,4.415c2,2.029-1.066,4.742-2.87,5.619-2.373,1.154-5.235.988-7.743.429a27.437,27.437,0,0,1-6.77-2.269,7.038,7.038,0,0,1-3.612-3.6c-.493-1.416-.468-4.084.884-5.044A1.834,1.834,0,0,1,1039.733,1180.042Z" transform="translate(-904.952 -935.188)" fill="#fff"/><path d="M773.285,786.411l-72.576-41.9c3-.3,6.087-.454,9.217-.454,1.515,0,3.055.036,4.582.108,13.7,7.557,29.175,16.1,44.209,24.914q1.954,1.144,3.916,2.282c7.663,4.452,15.553,9.055,22.593,14.579A85.437,85.437,0,0,0,773.285,786.411Z" transform="translate(-541.434 -613.918)" fill="#076684"/><path d="M1126.509,996.363c.027.095.041.176.054.23a30.712,30.712,0,0,0,6.9,13.992l71.893-18.382a129.568,129.568,0,0,1-19.962-9.346q-3.566-2.087-7.091-4.511l-47.5,12.291Z" transform="translate(-1073.246 -786.759)" fill="#9ac1da"/><path d="M206.394,212.062s4.408-17.172,1.723-16.514-14.3,19.515-14.3,19.515-4.844,5.316,4.022,4.747H203.2l-2.681,11.6s-2.062,9.9,4.469,0,9.384-14.768,9.384-14.768,4.472-5.456-2.234-4.747Z" transform="translate(103.49 -235.813)" fill="#ffc800" fill-rule="evenodd"/></g><g transform="translate(0 95.494)"><g clip-path="url(#a)"><g transform="translate(0 0)"><g clip-path="url(#a)"><g transform="translate(5.929 56.341)" opacity="0.4" style="mix-blend-mode:multiply;isolation:isolate"><g clip-path="url(#c)"><path d="M42.051,89.17c0,3.919-7.48,7.1-16.707,7.1S8.637,93.089,8.637,89.17s7.48-7.1,16.706-7.1,16.707,3.176,16.707,7.1" transform="translate(-8.637 -82.075)" fill="#a8c4e5"/></g></g><path d="M26.625,77.337h0a5.031,5.031,0,0,1-5.017-5.017V34.551a5.017,5.017,0,1,1,10.033,0v37.77a5.031,5.031,0,0,1-5.017,5.017" transform="translate(-6.775 -9.26)" fill="#346650"/><path d="M.207,40.27C1.919,30.823,5.762,16.551,14.322,3.193a6.882,6.882,0,0,1,11.754.221A112.6,112.6,0,0,1,39.514,40.646a12.789,12.789,0,0,1-10.3,14.784,48.82,48.82,0,0,1-19.268-.388A12.791,12.791,0,0,1,.207,40.27" transform="translate(0 0)" fill="#6da67a"/><path d="M34.782,4.973A112.6,112.6,0,0,1,48.22,42.206a12.79,12.79,0,0,1-10.3,14.784,50.069,50.069,0,0,1-10.158.755c15.824-7.916,13.262-29.022,7.017-52.772" transform="translate(-8.705 -1.559)" fill="#569162"/></g></g></g></g><g transform="translate(86.087 -10.228)"><g transform="translate(10 20)" clip-path="url(#d)"><g transform="translate(0 0)"><g clip-path="url(#d)"><g transform="translate(9.361 76.53)" opacity="0.4" style="mix-blend-mode:multiply;isolation:isolate"><g clip-path="url(#f)"><path d="M51.96,111.311c0,4.617-8.813,8.36-19.684,8.36s-19.683-3.743-19.683-8.36,8.813-8.36,19.683-8.36,19.684,3.743,19.684,8.36" transform="translate(-12.593 -102.951)" fill="#a8c4e5"/></g></g><path d="M34.02,109.765h0a4.8,4.8,0,0,1-4.787-4.787V83.56a4.787,4.787,0,1,1,9.574,0v21.418a4.8,4.8,0,0,1-4.787,4.787" transform="translate(-7.502 -20.216)" fill="#346650"/><path d="M41.894,37.086a23.921,23.921,0,0,0,.21-3.163,22.555,22.555,0,0,0-3.961-12.946,19.068,19.068,0,0,0,.527-4.455C38.67,7.4,32.307,0,24.457,0S10.243,7.4,10.243,16.522a19.068,19.068,0,0,0,.527,4.455A22.555,22.555,0,0,0,6.809,33.923a23.921,23.921,0,0,0,.21,3.163A18.916,18.916,0,0,0,0,51.464C0,62.793,10.95,71.976,24.457,71.976s24.457-9.184,24.457-20.512a18.916,18.916,0,0,0-7.019-14.378" transform="translate(0 0)" fill="#6da67a"/><path d="M47.6,37.52a23.921,23.921,0,0,0,.21-3.163,22.555,22.555,0,0,0-3.961-12.946,19.068,19.068,0,0,0,.527-4.455c0-6.882-3.62-12.778-8.766-15.263-5.447,33.966,10.33,49.4-13.39,69.6a28.694,28.694,0,0,0,7.943,1.112c13.507,0,24.457-9.184,24.457-20.512A18.916,18.916,0,0,0,47.6,37.52" transform="translate(-5.701 -0.435)" fill="#569162"/></g></g></g></g></g></svg>