<svg xmlns="http://www.w3.org/2000/svg" width="77.475" height="108.9" viewBox="0 0 77.475 108.9"><g transform="translate(0 11.375) rotate(-11)"><path d="M0,0V99.35H19.875V19.869H59.613V0Z" fill="#e6e6e6"/><rect width="4.591" height="2.646" transform="translate(0 48.355)" fill="#b3b3b3"/><rect width="4.591" height="2.646" transform="translate(0 28.48)" fill="#b3b3b3"/><rect width="8.559" height="2.646" transform="translate(0 38.421)" fill="#b3b3b3"/><rect width="8.559" height="2.646" transform="translate(0 18.546)" fill="#b3b3b3"/><rect width="4.591" height="2.646" transform="translate(0 8.612)" fill="#b3b3b3"/><rect width="4.591" height="2.646" transform="translate(0 68.224)" fill="#b3b3b3"/><rect width="8.559" height="2.646" transform="translate(0 58.29)" fill="#b3b3b3"/><rect width="8.559" height="2.646" transform="translate(0 78.158)" fill="#b3b3b3"/><rect width="4.591" height="2.646" transform="translate(0 88.093)" fill="#b3b3b3"/><rect width="2.646" height="4.59" transform="translate(48.356)" fill="#b3b3b3"/><rect width="2.646" height="4.59" transform="translate(28.487)" fill="#b3b3b3"/><rect width="2.646" height="8.559" transform="translate(38.421)" fill="#b3b3b3"/><rect width="2.646" height="8.559" transform="translate(18.552)" fill="#b3b3b3"/><rect width="2.646" height="4.59" transform="translate(8.612)" fill="#b3b3b3"/></g></svg>