<svg xmlns="http://www.w3.org/2000/svg" width="97.274" height="140.726" viewBox="0 0 97.274 140.726"><g transform="translate(-6534 444)"><path d="M8457.274,845.3h-5v-2h5Zm-10,0h-5v-2h5Zm-10,0h-5v-2h5Zm-10,0h-5v-2h5Zm-10,0h-5v-2h5Zm-10,0h-5v-2h5Zm-10,0h-5v-2h5ZM8390,842.571h-2v-5h2Zm0-10h-2v-5h2Zm0-10h-2v-5h2Zm0-10h-2v-5h2Zm0-10h-2v-5h2Zm0-10h-2v-5h2Zm0-10h-2v-5h2Z" transform="translate(-1826 -1148.571)" fill="#f4cb02"/><g transform="translate(6534 -444)"><g transform="translate(0 0)"><path d="M136.392,552.861h-5.438a2.317,2.317,0,0,1,0-4.633h5.438a2.317,2.317,0,0,1,0,4.633" transform="translate(-104.501 -458.861)" fill="#485359"/><path d="M91.461,445.976a11.483,11.483,0,0,1-11.436-11.53v-7.332H102.9v7.332a11.483,11.483,0,0,1-11.436,11.53" transform="translate(-62.292 -353.733)" fill="#a8b3b9"/><path d="M97.041,463.428H75a1.252,1.252,0,0,1,0-2.5H97.041a1.252,1.252,0,0,1,0,2.5" transform="translate(-56.853 -383.08)" fill="#b3bec4"/><path d="M102.371,508.769H82.12a1.2,1.2,0,0,1,0-2.4h20.252a1.2,1.2,0,0,1,0,2.4" transform="translate(-63.077 -422.526)" fill="#b3bec4"/><path d="M57,30.644C57,13.72,44.24,0,28.5,0S0,13.72,0,30.644A31.976,31.976,0,0,0,6.156,49.656l4.49,11.633v7.778a5.217,5.217,0,0,0,5.193,5.241H41.161a5.217,5.217,0,0,0,5.193-5.241V61.289l4.49-11.633A31.976,31.976,0,0,0,57,30.644" transform="translate(0)" fill="#f4cb02"/></g><g transform="translate(13 9)"><path d="M2.32-13.88a17.219,17.219,0,0,1,1.06-6.28A12.987,12.987,0,0,1,6.26-24.7a11.917,11.917,0,0,1,4.24-2.74,14.341,14.341,0,0,1,5.14-.92,13.911,13.911,0,0,1,5.06.92,11.8,11.8,0,0,1,4.18,2.74,13.141,13.141,0,0,1,2.86,4.54,17.219,17.219,0,0,1,1.06,6.28A17.821,17.821,0,0,1,28-8.32,13.376,13.376,0,0,1,25.78-4.1a11.765,11.765,0,0,1-3.32,2.88A12.637,12.637,0,0,1,18.4.28a2.262,2.262,0,0,0,.82,1.62A6.607,6.607,0,0,0,21.2,3.08a16.76,16.76,0,0,0,2.68.8,28.486,28.486,0,0,0,2.96.48L25.92,7.4a39.057,39.057,0,0,1-3.98-.74A16.558,16.558,0,0,1,18.5,5.44,8.265,8.265,0,0,1,15.92,3.5,6.242,6.242,0,0,1,14.52.56,13.442,13.442,0,0,1,9.76-.62,11.686,11.686,0,0,1,5.88-3.46a13.5,13.5,0,0,1-2.6-4.42A17.271,17.271,0,0,1,2.32-13.88Zm4.08,0A15.394,15.394,0,0,0,7.04-9.3,10.251,10.251,0,0,0,8.86-5.8a7.974,7.974,0,0,0,2.88,2.22,9.057,9.057,0,0,0,3.82.78,8.921,8.921,0,0,0,3.8-.78A8.019,8.019,0,0,0,22.22-5.8a10.251,10.251,0,0,0,1.82-3.5,15.394,15.394,0,0,0,.64-4.58,15.394,15.394,0,0,0-.64-4.58,10.251,10.251,0,0,0-1.82-3.5,8.019,8.019,0,0,0-2.86-2.22,8.921,8.921,0,0,0-3.8-.78,9.057,9.057,0,0,0-3.82.78,7.974,7.974,0,0,0-2.88,2.22,10.251,10.251,0,0,0-1.82,3.5A15.394,15.394,0,0,0,6.4-13.88Z" transform="translate(0 37)" fill="#fff"/></g></g></g></svg>