<svg xmlns="http://www.w3.org/2000/svg" xmlns:xlink="http://www.w3.org/1999/xlink" width="551.506" height="349.453" viewBox="0 0 551.506 349.453"><defs><clipPath id="a"><rect width="39.7" height="70.532" fill="none"/></clipPath><clipPath id="c"><rect width="33.414" height="14.191" fill="none"/></clipPath><clipPath id="d"><rect width="33.263" height="59.097" fill="none"/></clipPath><clipPath id="f"><rect width="27.997" height="11.89" fill="none"/></clipPath><clipPath id="g"><rect width="48.913" height="93.25" fill="none"/></clipPath><clipPath id="i"><rect width="39.367" height="16.72" fill="none"/></clipPath><clipPath id="j"><rect width="200" height="206.352" fill="none"/></clipPath><clipPath id="l"><rect width="41.285" height="27.527" fill="none"/></clipPath><clipPath id="n"><rect width="109.855" height="63.716" fill="none"/></clipPath><clipPath id="o"><rect width="97.968" height="88.059" fill="none"/></clipPath><clipPath id="p"><rect width="130.044" height="102.425" fill="none"/></clipPath><clipPath id="r"><rect width="47.601" height="48.003" fill="none"/></clipPath><clipPath id="t"><rect width="76.234" height="46.789" fill="none"/></clipPath><clipPath id="u"><rect width="76.234" height="46.79" fill="none"/></clipPath><clipPath id="z"><rect width="42.292" height="48.397" fill="none"/></clipPath><clipPath id="ab"><rect width="42.292" height="48.396" fill="none"/></clipPath><clipPath id="ad"><rect width="42.291" height="48.397" fill="none"/></clipPath></defs><g transform="translate(-1389.494 -5860.278)"><g transform="translate(1560 5966)"><g clip-path="url(#a)"><g transform="translate(0 0)"><g clip-path="url(#a)"><g transform="translate(5.929 56.341)" opacity="0.4" style="mix-blend-mode:multiply;isolation:isolate"><g clip-path="url(#c)"><path d="M42.051,89.17c0,3.919-7.48,7.1-16.707,7.1S8.637,93.089,8.637,89.17s7.48-7.1,16.706-7.1,16.707,3.176,16.707,7.1" transform="translate(-8.637 -82.075)" fill="#a8c4e5"/></g></g><path d="M26.625,77.337h0a5.031,5.031,0,0,1-5.017-5.017V34.551a5.017,5.017,0,1,1,10.033,0v37.77a5.031,5.031,0,0,1-5.017,5.017" transform="translate(-6.775 -9.26)" fill="#346650"/><path d="M.207,40.27C1.919,30.823,5.762,16.551,14.322,3.193a6.882,6.882,0,0,1,11.754.221A112.6,112.6,0,0,1,39.514,40.646a12.789,12.789,0,0,1-10.3,14.784,48.82,48.82,0,0,1-19.268-.388A12.791,12.791,0,0,1,.207,40.27" transform="translate(0 0)" fill="#6da67a"/><path d="M34.782,4.973A112.6,112.6,0,0,1,48.22,42.206a12.79,12.79,0,0,1-10.3,14.784,50.069,50.069,0,0,1-10.158.755c15.824-7.916,13.262-29.022,7.017-52.772" transform="translate(-8.705 -1.559)" fill="#569162"/></g></g></g></g><g transform="translate(1792 5860.278)"><g clip-path="url(#d)"><g transform="translate(0 0)"><g clip-path="url(#d)"><g transform="translate(4.968 47.207)" opacity="0.4" style="mix-blend-mode:multiply;isolation:isolate"><g clip-path="url(#f)"><path d="M36.634,88.02c0,3.284-6.267,5.945-14,5.945s-14-2.661-14-5.945,6.267-5.945,14-5.945,14,2.661,14,5.945" transform="translate(-8.637 -82.075)" fill="#a8c4e5"/></g></g><path d="M25.811,69.587h0a4.216,4.216,0,0,1-4.2-4.2V33.737a4.2,4.2,0,1,1,8.407,0V65.384a4.216,4.216,0,0,1-4.2,4.2" transform="translate(-9.18 -12.547)" fill="#346650"/><path d="M.173,33.741A87.411,87.411,0,0,1,12,2.675a5.766,5.766,0,0,1,9.849.185,94.349,94.349,0,0,1,11.259,31.2A10.716,10.716,0,0,1,24.48,46.443a40.905,40.905,0,0,1-16.144-.325A10.717,10.717,0,0,1,.173,33.741" transform="translate(0 0)" fill="#6da67a"/><path d="M33.644,4.973A94.348,94.348,0,0,1,44.9,36.17a10.716,10.716,0,0,1-8.628,12.387,41.951,41.951,0,0,1-8.511.633c13.259-6.632,11.112-24.317,5.879-44.216" transform="translate(-11.795 -2.113)" fill="#569162"/></g></g></g></g><g transform="translate(1626.087 5860.278)"><g clip-path="url(#g)"><g transform="translate(0 0)"><g clip-path="url(#g)"><g transform="translate(9.361 76.53)" opacity="0.4" style="mix-blend-mode:multiply;isolation:isolate"><g clip-path="url(#i)"><path d="M51.96,111.311c0,4.617-8.813,8.36-19.684,8.36s-19.683-3.743-19.683-8.36,8.813-8.36,19.683-8.36,19.684,3.743,19.684,8.36" transform="translate(-12.593 -102.951)" fill="#a8c4e5"/></g></g><path d="M34.02,109.765h0a4.8,4.8,0,0,1-4.787-4.787V83.56a4.787,4.787,0,1,1,9.574,0v21.418a4.8,4.8,0,0,1-4.787,4.787" transform="translate(-7.502 -20.216)" fill="#346650"/><path d="M41.894,37.086a23.921,23.921,0,0,0,.21-3.163,22.555,22.555,0,0,0-3.961-12.946,19.068,19.068,0,0,0,.527-4.455C38.67,7.4,32.307,0,24.457,0S10.243,7.4,10.243,16.522a19.068,19.068,0,0,0,.527,4.455A22.555,22.555,0,0,0,6.809,33.923a23.921,23.921,0,0,0,.21,3.163A18.916,18.916,0,0,0,0,51.464C0,62.793,10.95,71.976,24.457,71.976s24.457-9.184,24.457-20.512a18.916,18.916,0,0,0-7.019-14.378" transform="translate(0 0)" fill="#6da67a"/><path d="M47.6,37.52a23.921,23.921,0,0,0,.21-3.163,22.555,22.555,0,0,0-3.961-12.946,19.068,19.068,0,0,0,.527-4.455c0-6.882-3.62-12.778-8.766-15.263-5.447,33.966,10.33,49.4-13.39,69.6a28.694,28.694,0,0,0,7.943,1.112c13.507,0,24.457-9.184,24.457-20.512A18.916,18.916,0,0,0,47.6,37.52" transform="translate(-5.701 -0.435)" fill="#569162"/></g></g></g></g><g transform="translate(1555 5943.909)"><g clip-path="url(#j)"><g clip-path="url(#j)"><g transform="translate(158.715 85.245)" opacity="0.4" style="mix-blend-mode:multiply;isolation:isolate"><g clip-path="url(#l)"><path d="M125.407,94.882l32.754-6.123a8.2,8.2,0,0,0,3.02-1.229l4.16-2.75a2.869,2.869,0,0,0-.037-4.894l-22.84-12.531Z" transform="translate(-125.407 -67.355)" fill="#a8c4e5"/></g></g></g><path d="M122.43,0,103.26,9.9l30.073,17.4L151.3,16.929Z" transform="translate(27.426 0)" fill="#4f855a"/><path d="M103.715,7.825l-2.173,85.366,30.2,17.5,2.043-85.467Z" transform="translate(26.969 2.078)" fill="#6da67a"/><path d="M127.451,23.751l17.964-10.374-2.052,85.385-17.956,10.458Z" transform="translate(33.308 3.553)" fill="#4f855a"/><g clip-path="url(#j)"><path d="M106.6,33.226l-.047.044-.445,13.4,6.444,2.631.108-12.676c-2.532-1.414-4.749-2.656-6.06-3.4" transform="translate(28.182 8.825)" fill="#3b6343"/><path d="M119.291,70.9l-12.127-6.779.3-12.46,12.127,6.779Z" transform="translate(28.463 13.72)" fill="#4f855a"/><path d="M121.183,54.744l-15.075-8.481,3.961-11.494L125.179,43.1Z" transform="translate(28.182 9.235)" fill="#fff"/><path d="M108.377,37.932l15.049,8.516,1.149-3.348L109.467,34.77Z" transform="translate(28.785 9.235)" fill="#f2f2f2"/><path d="M61.6,134.594a1.584,1.584,0,0,1-.78-2.963c4.091-2.308,47.942-29.489,54.243-33.4l0-33.141a1.584,1.584,0,0,1,.818-1.386c3.994-2.207,10.062-5.566,10.461-5.8a1.583,1.583,0,0,1,1.665,2.694c-.277.173-6.4,3.558-9.777,5.427V70.88l0,28.237a1.584,1.584,0,0,1-.749,1.346c-2.066,1.282-50.661,31.42-55.105,33.927A1.576,1.576,0,0,1,61.6,134.594Z" transform="translate(16.361 15.739)" fill="#3b6343"/><path d="M64.321,101.326,86.6,113.249c2.1,1.124,4.374,3.235,5.838,1.273l.642-1.215c1.464-1.962.945-6.07-1.153-7.192L69.648,94.19a5.281,5.281,0,0,0-6.48,1.528,3.672,3.672,0,0,0,1.153,5.608" transform="translate(16.556 24.873)" fill="#e8ab31"/><g transform="translate(0 142.636)" opacity="0.4" style="mix-blend-mode:multiply;isolation:isolate"><g clip-path="url(#n)"><path d="M38.351,174.982l69.326-41.676c3.221-1.936,2.822-5.1-.89-7.068L84.059,114.194c-3.713-1.967-9.334-1.992-12.555-.056L2.178,155.816c-3.222,1.936-2.824,5.1.89,7.068L25.8,174.926c3.712,1.968,9.334,1.992,12.555.056" transform="translate(0 -112.702)" fill="#a8c4e5"/></g></g><path d="M84.65,104.8l3.715,4.02L79.038,103.9Z" transform="translate(20.992 27.595)" fill="#e8ab31"/><path d="M13.64,121.166a6.1,6.1,0,0,1,.039-2.138c.506-1.969,3.788-4.341,5.181-.825a16.654,16.654,0,0,1,.95,3.361c.305,1.879.123,3.485-.813,4.127-1.235.852-4.794-1.053-5.359-4.526" transform="translate(3.603 30.916)" fill="#f5cd7d"/><path d="M78.939,115.69l-13.367-6.632c-2.883-1.43-2.52-4.223.806-6.206s8.4-2.438,11.288-1.007l13.367,6.632c2.883,1.43,2.52,4.223-.806,6.208s-8.4,2.436-11.288,1.006" transform="translate(16.899 26.828)" fill="#e8ab31"/><path d="M102.36,116.865l-4.56.564v1.886L77.32,108.823l-16.068,4.383.224,6.805a3.251,3.251,0,0,0,1.824,2.925L22.936,137.617c3.688,1.89,18.015,24.058,21.7,21.919l54.027-31.543a6.376,6.376,0,0,0,3.569-4.978Z" transform="translate(6.092 28.903)" fill="#214234"/><path d="M17.2,159.973l-11.73-6.251c-1.215-.623-4.112-1.776-3.871-6.666l-.246-1.609,15.992-6.694,29.056,14.883-9.945,5.772a22.07,22.07,0,0,1-19.256.563" transform="translate(0.361 36.853)" fill="#214234"/><path d="M19.291,157.5,3.123,148.95c-2.431-1.245-2.434-4.29-.005-5.7l14.024-8.139L46.2,149.994l-12.427,7.213c-3.685,2.139-10.793,2.187-14.481.3" transform="translate(0.345 35.885)" fill="#f5cd7d"/><path d="M51.349,147.237c0-.42-4.9-17.866-14.939-9.786-4.39,3.535-12.057,19.126-8.09,21.395s23.029-11.609,23.029-11.609" transform="translate(7.228 35.94)" fill="#214234"/><path d="M36.838,147.663a.47.47,0,0,1,.043-.024c1.24-.7,2.233-.171,2.215,1.191a4.881,4.881,0,0,1-2.238,3.717l-.042.024c-1.242.7-2.234.173-2.216-1.187a4.892,4.892,0,0,1,2.238-3.721" transform="translate(9.19 39.13)" fill="#13261e"/><path d="M37.4,145.682c2.536-1.44,4.561-.356,4.527,2.425a9.98,9.98,0,0,1-4.566,7.587l-.091.053c-2.532,1.435-4.559.351-4.523-2.429a9.968,9.968,0,0,1,4.557-7.58l.1-.057m-.053,7.472a4.885,4.885,0,0,0,2.238-3.717c.016-1.361-.976-1.895-2.216-1.191l-.042.024a4.893,4.893,0,0,0-2.239,3.721c-.016,1.361.976,1.891,2.216,1.187a.467.467,0,0,0,.043-.024" transform="translate(8.698 38.524)" fill="#e0e0e0"/><path d="M38.09,142.941c4.227-2.4,7.6-.587,7.542,4.047,0,.109-.005.218-.01.329a12.808,12.808,0,0,1-.763,3.656,17.063,17.063,0,0,1-6.83,8.659l-.158.091c-2.932,1.667-5.459,1.3-6.708-.625a5.652,5.652,0,0,1-.815-2.717c-.015-.227-.022-.459-.019-.7.058-4.58,3.451-10.2,7.61-12.652l.152-.087m-.084,13.593a9.982,9.982,0,0,0,4.566-7.589c.034-2.779-1.991-3.864-4.527-2.424l-.1.056a9.97,9.97,0,0,0-4.557,7.58c-.034,2.781,1.991,3.865,4.523,2.43l.091-.053" transform="translate(8.055 37.684)" fill="#214234"/><path d="M75.443,125.242l.043-.025c1.24-.7,2.233-.17,2.215,1.192a4.881,4.881,0,0,1-2.238,3.717l-.042.024c-1.242.7-2.234.173-2.216-1.187a4.892,4.892,0,0,1,2.238-3.721" transform="translate(19.443 33.175)" fill="#13261e"/><path d="M76.009,123.261c2.535-1.44,4.561-.356,4.527,2.425a9.98,9.98,0,0,1-4.566,7.587l-.091.053c-2.532,1.435-4.559.351-4.523-2.429a9.97,9.97,0,0,1,4.556-7.58l.1-.057m-.053,7.472a4.888,4.888,0,0,0,2.238-3.717c.016-1.361-.976-1.895-2.216-1.191l-.042.024A4.893,4.893,0,0,0,73.7,129.57c-.016,1.361.976,1.891,2.216,1.188l.043-.025" transform="translate(18.952 32.569)" fill="#e0e0e0"/><path d="M76.7,120.521c4.227-2.4,7.6-.589,7.542,4.046,0,.11-.005.218-.01.33a12.826,12.826,0,0,1-.763,3.656,17.065,17.065,0,0,1-6.83,8.658l-.158.091c-2.932,1.667-5.459,1.3-6.708-.625a5.652,5.652,0,0,1-.815-2.717c-.015-.227-.022-.458-.019-.7.058-4.581,3.453-10.2,7.61-12.651l.152-.087m-.084,13.591a9.979,9.979,0,0,0,4.566-7.589c.034-2.778-1.991-3.864-4.526-2.424-.033.019-.066.037-.1.057A9.966,9.966,0,0,0,72,131.736c-.034,2.781,1.991,3.865,4.523,2.43l.091-.053" transform="translate(18.309 31.729)" fill="#214234"/><path d="M24.148,151.8c.8-1.243,13.386-11.047,14.63-12.326,1.51-1.549,14.184-18.855,14.184-18.855l15.814-9.7.011-.085s12.593-9.289,25.65-7.732c2.21.265,4.542,1.212,4.543,3.337l.013,16.365L95.2,124.831c-2.563-3.75-11.68.547-13.26,8.368l-14.983,9.26L47.484,154.208c-.158-1.435-2.94-3.536-7.405-1.406-4.079,1.945-6.651,5.945-7.573,10.825l-3.851,2.008a18.74,18.74,0,0,1-6.528,1.731c-.011-.082,0-9.176,0-9.176-.087-2.5.358-3.792,2.019-6.39" transform="translate(5.875 27.337)" fill="#e8ab31"/><path d="M18.94,123.972c-1.245,1.238-3.083,2.526-4.337,3.594-2.574,2.189-4.5,3.668-6.738,5.893-.47.468-.954.969-1.461,1.517-.175.189-.348.382-.518.578,0,0-2.961,3.658-3.609,5.767q-.131.338-.244.676c-.084.251-.161.5-.23.749q-.121.435-.214.864c-.078.366-.142.729-.187,1.086-.082.632-.118,3.961-.1,4.549l25.178,7.966,2.073-6.522c.171-.2.347-3.008.521-3.2.506-.548.132.589.6.12,2.236-2.225,4.954-5.023,7.528-7.213,1.254-1.068,3.006-2.513,4.611-3.783Z" transform="translate(0.345 32.927)" fill="#f5cd7d"/><path d="M82.007,112.936l.006,8.533L84.769,120a5.07,5.07,0,0,0,2.152-2.2,4.739,4.739,0,0,0,.495-2.463l-.391-5.227Z" transform="translate(21.781 29.245)" fill="#e8ab31"/><path d="M40.621,140.237,61.6,126.985l1.767-14.271S51.2,119.563,46.716,125.145c-2.446,3.045-5.451,8.8-7.406,12.75-.767,1.547.246,3.007,1.311,2.343" transform="translate(10.369 29.937)" fill="#214234"/><path d="M44.724,131.678a6.289,6.289,0,0,1,2.007.781c1.655,1.147,2.562,4.95-1.333,4.985a17.978,17.978,0,0,1-3.566-.31c-1.9-.38-3.348-1.106-3.574-2.178-.3-1.417,2.95-3.979,6.466-3.278" transform="translate(10.156 34.942)" fill="#f5cd7d"/><path d="M85.422,111.921s-8.44-6.461-15.869-3.747c-2.484.907-9.157,4.946-9.157,4.946L58.9,126.879Z" transform="translate(15.645 28.554)" fill="#214234"/><path d="M85.877,112.821h0c1.128-.329,2-1.281,1.93-2.114l-.091-1.157c-.067-.833-1.044-1.244-2.172-.915s-2,1.281-1.93,2.114l.092,1.157c.066.833,1.043,1.244,2.171.915" transform="translate(22.207 28.823)" fill="#fff"/><path d="M6.2,149.041l8.135,4.338-.229-3.373-8.135-4.338Z" transform="translate(1.585 38.689)" fill="#fff"/><path d="M32.85,157.632,28.6,155.475l3.44-3.615Z" transform="translate(7.597 40.334)" fill="#214234"/><path d="M71.4,135.249l-3.942-2.038,3.134-3.735Z" transform="translate(17.915 34.389)" fill="#214234"/><path d="M80.266,93.8c6.218,2.389,16.553,8.814,23.717,13.4-3.794-.427-11.351-.5-15.278.454-4.867,1.182-27.944,15.52-32.072,19.832a45.921,45.921,0,0,0-3.275,3.744c-2.917,3.835-9.882,13.613-9.882,13.613s-9.51,5.9-12.424,9.057a24.92,24.92,0,0,0-2.664,3.455,14.754,14.754,0,0,0-2.431,8.1L3.284,152.931a14.758,14.758,0,0,1,2.431-8.1,24.92,24.92,0,0,1,2.664-3.455,121.646,121.646,0,0,1,10.035-9.169c.81-.691,7.176-9.507,11.849-16.038a42.521,42.521,0,0,1,2.716-3.394c4.821-5.456,22.2-15,29.335-18.521a12.414,12.414,0,0,1,5.774-1.285,118.292,118.292,0,0,1,12.178.828" transform="translate(0.871 24.692)" fill="#f5cd7d"/><path d="M16.631,127.108,28.715,110.35c5.919,3.717,13.817,7.415,22.525,11.988l-12.453,17.27c-9.529-2.843-17.029-6.939-22.156-12.5" transform="translate(4.417 29.309)" fill="#214234"/><path d="M77.089,105.317a198.217,198.217,0,0,0-21.2-11.3l10.53.368C73.3,96.9,79.174,100.958,84.654,105.2Z" transform="translate(14.843 24.97)" fill="#214234"/><path d="M43.522,118.73l-23.95,3.183,8.244-11.432Z" transform="translate(5.198 29.343)" fill="#315c4a"/><path d="M3.154,140.966a1.207,1.207,0,0,0,1.663-1.04l.347-6.424a28.685,28.685,0,0,0-3.02,5.074,1.8,1.8,0,0,0,1,2.387l.008,0" transform="translate(0.53 35.458)" fill="#fff"/><path d="M18.351,147.442l10.067-4.789a1.146,1.146,0,0,1,1.559,1.51,11.325,11.325,0,0,1-4.417,5.189c-3.56,1.916-6.155,1.315-7.556,0a1.176,1.176,0,0,1,.347-1.907" transform="translate(4.689 37.856)" fill="#fff"/></g></g></g><g transform="translate(1410.798 5897.338) rotate(14)"><g transform="translate(0 0)" clip-path="url(#o)"><path d="M66.044.33A36.82,36.82,0,0,0,24.357,37.656,25.207,25.207,0,1,0,48.881,71.515,36.809,36.809,0,1,0,66.044.33" transform="translate(0 0)" fill="#ebfbff"/><path d="M97.341,38.372a36.641,36.641,0,0,0-2.265-18.449c-15.888,33.474-43.607,34.7-43.607,34.7C39.977,74.968,15.314,72.661,1.779,69.535a25.21,25.21,0,0,0,46.806-1.347A36.827,36.827,0,0,0,97.341,38.372" transform="translate(0.297 3.327)" fill="#e4ebdd"/></g></g><g transform="translate(1650.054 5857.779)"><g transform="translate(176.946 175.749)"><g transform="translate(-0.094 0)" opacity="0.4" style="mix-blend-mode:multiply;isolation:isolate"><g transform="translate(-0.039)"><path d="M176.235,200.973h44.9l69.2-44.557-47.76-29.221-54.87,33.61Z" transform="translate(-176.196 -127.195)" fill="#a8c4e5"/></g></g></g><g transform="translate(118.946 95.749)"><path d="M177.1,271.882l-57.981-33.768v-65.8L177.1,206.077Z" transform="translate(-119.123 -118.113)" fill="#e9f5eb"/><path d="M213.328,150.037,186.247,134.4l-67.124,38.824L177.1,207Z" transform="translate(-119.123 -118.892)" fill="#e9f5eb"/><path d="M119.123,173.444h0l31.11-8.755,65.99-39.256-29.976,9.185Z" transform="translate(-119.123 -119.109)" fill="#6da67a"/><path d="M242.518,167.372l-54.142,31.417v.071L175.733,206.2V272l54.142-31.418v-.071l12.644-7.337Z" transform="translate(-117.752 -118.233)" fill="#bbc4bc"/><path d="M243.444,168.262l-27.957-42.829L149.5,164.689l27.1,43.328Z" transform="translate(-118.657 -119.109)" fill="#5f916b"/><path d="M142.822,250.978l-10.643-6.145V216.421l10.644,6.145Z" transform="translate(-118.807 -117.045)" fill="#74a680"/><path d="M158.655,260.142,148.012,254V225.586l10.643,6.145Z" transform="translate(-118.525 -116.823)" fill="#74a680"/><path d="M190.859,223.115,201.5,216.97V201.552L190.859,207.7Z" transform="translate(-117.64 -117.353)" fill="#587558"/><path d="M205.9,214.31l10.643-6.145V192.747L205.9,198.891Z" transform="translate(-117.328 -117.557)" fill="#587558"/><path d="M159.667,224.442,149.024,218.3V202.879l10.643,6.144Z" transform="translate(-118.505 -117.323)" fill="#74a680"/><path d="M144.623,215.637l-10.643-6.145V194.073l10.643,6.144Z" transform="translate(-118.763 -117.527)" fill="#74a680"/><path d="M220.948,205.505l10.643-6.145V183.942l-10.643,6.144Z" transform="translate(-117.017 -117.761)" fill="#587558"/><path d="M190.859,247.812l10.643-6.145V226.249l-10.643,6.144Z" transform="translate(-117.64 -116.781)" fill="#587558"/><path d="M205.9,239.007l10.643-6.145V217.444L205.9,223.588Z" transform="translate(-117.328 -116.985)" fill="#587558"/><path d="M220.948,230.2l10.643-6.145V208.639l-10.643,6.144Z" transform="translate(-117.017 -117.189)" fill="#587558"/><path d="M152.331,187.821c0,4.046-2.858,5.674-6.383,3.639a14.065,14.065,0,0,1-6.384-11.009c0-4.046,2.859-5.675,6.384-3.64a14.066,14.066,0,0,1,6.383,11.01" transform="translate(-118.628 -117.944)" fill="#74a680"/><path transform="translate(149 -21.84)" fill="#418064"/><path d="M0,38.948a.477.477,0,0,1-.409-.231.477.477,0,0,1,.162-.655L63.506-.408a.477.477,0,0,1,.655.162A.477.477,0,0,1,64,.408L.246,38.879A.475.475,0,0,1,0,38.948Z" transform="translate(34.892 12.026)" fill="#418064"/><path d="M0,39.169a.477.477,0,0,1-.409-.231.477.477,0,0,1,.162-.655L63.872-.408a.477.477,0,0,1,.655.162.477.477,0,0,1-.162.655L.246,39.1A.475.475,0,0,1,0,39.169Z" transform="translate(41.669 22.867)" fill="#418064"/><path d="M0,39.482a.477.477,0,0,1-.409-.231A.477.477,0,0,1-.246,38.6l64.636-39a.477.477,0,0,1,.655.162.477.477,0,0,1-.162.655l-64.636,39A.475.475,0,0,1,0,39.482Z" transform="translate(48.446 33.576)" fill="#418064"/><path d="M0,39.482a.477.477,0,0,1-.409-.231A.477.477,0,0,1-.246,38.6l64.636-39a.477.477,0,0,1,.655.162.477.477,0,0,1-.162.655l-64.636,39A.475.475,0,0,1,0,39.482Z" transform="translate(55.224 44.625)" fill="#418064"/></g></g><g transform="translate(1712.978 6107.306)"><g clip-path="url(#p)"><g clip-path="url(#p)"><g transform="translate(82.442 54.421)" opacity="0.4" style="mix-blend-mode:multiply;isolation:isolate"><g clip-path="url(#r)"><path d="M145.151,85.3l-47.6,27.1,13.675-48Z" transform="translate(-97.549 -64.393)" fill="#a8c4e5"/></g></g></g><path d="M45.406,0,0,52.078l82.479,50.347,45.406-52.078Z" transform="translate(0)" fill="#e4ebdd"/><path d="M81.9,99.076,6.432,53.009,47.978,5.357l75.469,46.068Z" transform="translate(-0.996 -0.83)" fill="#468a6d"/><path d="M32.377,31.02,68.969,52.991,88.15,31.4Z" transform="translate(-5.014 -4.804)" fill="#397059"/><path d="M79.539,59.221l36.592,21.971,18.637-21.425Z" transform="translate(-12.318 -9.171)" fill="#397059"/><path d="M53.135,89.958l36.444,22.107,20.1-23.7Z" transform="translate(-8.229 -13.685)" fill="#397059"/><path d="M6.431,61.631l35.3,21.547,19.3-22.14Z" transform="translate(-0.996 -9.453)" fill="#397059"/><g clip-path="url(#p)"><path d="M107.6,79.24a1.45,1.45,0,0,1-.726-.214L31.389,32.982a1.531,1.531,0,0,1-.539-2.047,1.417,1.417,0,0,1,1.987-.505l75.489,46.045a1.531,1.531,0,0,1,.539,2.046,1.411,1.411,0,0,1-1.261.72" transform="translate(-4.748 -4.679)" fill="#e4ebdd"/><g transform="translate(32.042 20.244)" opacity="0.56"><g clip-path="url(#t)"><path d="M75.489,46.486a.439.439,0,0,1-.229-.065L-.23.376A.441.441,0,0,1-.376-.23.441.441,0,0,1,.23-.376L75.719,45.668a.441.441,0,0,1-.23.818Z" transform="translate(0.373 0.373)" fill="#fff"/></g></g><g transform="translate(37.759 14.214)" opacity="0.56"><g clip-path="url(#u)"><path d="M75.488,46.486a.439.439,0,0,1-.229-.065L-.23.376A.441.441,0,0,1-.376-.23.441.441,0,0,1,.23-.376L75.718,45.668a.441.441,0,0,1-.23.818Z" transform="translate(0.373 0.373)" fill="#fff"/></g></g><g transform="translate(43.475 8.185)" opacity="0.56"><g clip-path="url(#t)"><path d="M75.489,46.486a.439.439,0,0,1-.229-.065L-.23.376A.441.441,0,0,1-.376-.23.441.441,0,0,1,.23-.376L75.719,45.668a.441.441,0,0,1-.23.818Z" transform="translate(0.373 0.372)" fill="#fff"/></g></g><g transform="translate(10.956 44.779)" opacity="0.56"><g clip-path="url(#t)"><path d="M75.489,46.486a.439.439,0,0,1-.229-.065L-.23.376A.441.441,0,0,1-.376-.23.441.441,0,0,1,.23-.376L75.719,45.668a.441.441,0,0,1-.23.818Z" transform="translate(0.373 0.373)" fill="#fff"/></g></g><g transform="translate(16.672 38.75)" opacity="0.56"><g clip-path="url(#t)"><path d="M75.489,46.486a.439.439,0,0,1-.229-.065L-.23.376A.441.441,0,0,1-.376-.23.441.441,0,0,1,.23-.376L75.719,45.668a.441.441,0,0,1-.23.818Z" transform="translate(0.373 0.373)" fill="#fff"/></g></g><g transform="translate(22.388 32.72)" opacity="0.56"><g clip-path="url(#t)"><path d="M75.489,46.486a.439.439,0,0,1-.229-.065L-.23.376A.441.441,0,0,1-.376-.23.441.441,0,0,1,.23-.376L75.719,45.668a.441.441,0,0,1-.23.818Z" transform="translate(0.373 0.373)" fill="#fff"/></g></g><path d="M48.949,81.236a1.463,1.463,0,0,1-.962-.39,1.52,1.52,0,0,1-.137-2.106L89.4,31.087A1.428,1.428,0,0,1,91.451,31a1.519,1.519,0,0,1,.138,2.105L50.041,80.752a1.4,1.4,0,0,1-1.093.484" transform="translate(-7.354 -4.739)" fill="#e4ebdd"/><g transform="translate(29.817 19.765)" opacity="0.56"><g clip-path="url(#z)"><path d="M0,48.092a.439.439,0,0,1-.29-.109.441.441,0,0,1-.043-.622L41.215-.29a.441.441,0,0,1,.622-.043.441.441,0,0,1,.043.622L.332,47.941A.44.44,0,0,1,0,48.092Z" transform="translate(0.373 0.373)" fill="#fff"/></g></g><g transform="translate(21.048 14.412)" opacity="0.56"><g clip-path="url(#z)"><path d="M0,48.092a.439.439,0,0,1-.29-.109.441.441,0,0,1-.043-.622L41.214-.29a.441.441,0,0,1,.622-.043.441.441,0,0,1,.043.622L.332,47.941A.44.44,0,0,1,0,48.092Z" transform="translate(0.373 0.373)" fill="#fff"/></g></g><g transform="translate(12.28 9.061)" opacity="0.56"><g clip-path="url(#ab)"><path d="M0,48.092a.439.439,0,0,1-.29-.109.441.441,0,0,1-.043-.622L41.214-.29a.441.441,0,0,1,.622-.043.441.441,0,0,1,.043.622L.332,47.941A.44.44,0,0,1,0,48.092Z" transform="translate(0.373 0.372)" fill="#fff"/></g></g><g transform="translate(70.68 42.593)" opacity="0.56"><g clip-path="url(#z)"><path d="M0,48.092a.439.439,0,0,1-.29-.109.441.441,0,0,1-.043-.622L41.214-.29a.441.441,0,0,1,.622-.043.441.441,0,0,1,.043.622L.332,47.941A.44.44,0,0,1,0,48.092Z" transform="translate(0.373 0.373)" fill="#fff"/></g></g><g transform="translate(61.911 37.241)" opacity="0.56"><g clip-path="url(#ad)"><path d="M0,48.092a.439.439,0,0,1-.29-.109.441.441,0,0,1-.043-.622L41.214-.29a.441.441,0,0,1,.622-.043.441.441,0,0,1,.043.622L.332,47.941A.44.44,0,0,1,0,48.092Z" transform="translate(0.373 0.373)" fill="#fff"/></g></g><g transform="translate(53.142 31.889)" opacity="0.56"><g clip-path="url(#z)"><path d="M0,48.092a.439.439,0,0,1-.29-.109.441.441,0,0,1-.043-.622L41.215-.29a.441.441,0,0,1,.622-.043.441.441,0,0,1,.043.622L.332,47.941A.44.44,0,0,1,0,48.092Z" transform="translate(0.373 0.373)" fill="#fff"/></g></g></g></g></g></g></svg>