<svg xmlns="http://www.w3.org/2000/svg" xmlns:xlink="http://www.w3.org/1999/xlink" width="269" height="292.947" viewBox="0 0 269 292.947"><defs><clipPath id="a"><rect width="143" height="174" transform="translate(0 0)" fill="none"/></clipPath><clipPath id="b"><rect width="56.832" height="62.982" fill="none"/></clipPath><clipPath id="c"><rect width="81.874" height="90.734" fill="none"/></clipPath></defs><g transform="translate(-47 -6567.053)"><g transform="translate(46.875 6686.23)"><g transform="translate(0.125 -0.231)" clip-path="url(#a)"><path d="M122.8,292.511a1.093,1.093,0,0,0-1.086-1.093H98.742a1.093,1.093,0,0,0-1.086,1.093v2.953H122.8Z" transform="translate(-41.113 -120.964)" fill="#8c8c8d"/><path d="M114.816,133.58a5.913,5.913,0,0,1-4.249-1.953l-1.981,92.744h12.459l-1.981-92.744a5.913,5.913,0,0,1-4.249,1.953" transform="translate(-45.7 -54.506)" fill="#a8a9aa"/><path d="M121.789,115.521a6.6,6.6,0,1,1-6.6-6.644,6.623,6.623,0,0,1,6.6,6.644" transform="translate(-45.7 -45.044)" fill="#a8a9aa"/><path d="M114.749,62.27H114.1a2.031,2.031,0,0,1-2.019-2.031l-3.494-20.71,3.494-37.5A2.031,2.031,0,0,1,114.1,0h.651a2.031,2.031,0,0,1,2.018,2.031V60.239a2.031,2.031,0,0,1-2.018,2.031" transform="translate(-45.7 0.239)" fill="#a8a9aa"/><path d="M68.971,126.278l.381.531a2.046,2.046,0,0,1-.458,2.836L54.243,144.6,21.975,163.671a2.015,2.015,0,0,1-2.817-.46l-.381-.531a2.046,2.046,0,0,1,.458-2.836l46.918-34.027a2.016,2.016,0,0,1,2.818.46" transform="translate(-7.85 -51.931)" fill="#a8a9aa"/><path d="M134.695,126.024l.375-.536a2.017,2.017,0,0,1,2.813-.49l18.831,9.056,28.441,24.474a2.046,2.046,0,0,1,.487,2.831l-.374.536a2.017,2.017,0,0,1-2.813.49l-47.272-33.53a2.046,2.046,0,0,1-.487-2.831" transform="translate(-56.504 -51.596)" fill="#a8a9aa"/><path d="M28.358,83.393A39.354,39.354,0,0,1,.352,71.736a1.214,1.214,0,0,1,0-1.709,1.2,1.2,0,0,1,1.7,0,37.079,37.079,0,0,0,52.619,0,1.2,1.2,0,0,1,1.7,0,1.214,1.214,0,0,1,0,1.709A39.354,39.354,0,0,1,28.358,83.393" transform="translate(-0.129 -28.739)" fill="#8acbf1"/><path d="M28.358,97.682A39.222,39.222,0,0,1,.352,86.006a1.214,1.214,0,0,1,0-1.709,1.2,1.2,0,0,1,1.7,0,37.037,37.037,0,0,0,52.619,0,1.2,1.2,0,0,1,1.7,0,1.214,1.214,0,0,1,0,1.709A39.222,39.222,0,0,1,28.358,97.682" transform="translate(-0.129 -34.674)" fill="#8acbf1"/><path d="M28.358,112.345A39.222,39.222,0,0,1,.352,100.669a1.214,1.214,0,0,1,0-1.709,1.2,1.2,0,0,1,1.7,0,37.037,37.037,0,0,0,52.619,0,1.2,1.2,0,0,1,1.7,0,1.214,1.214,0,0,1,0,1.709,39.222,39.222,0,0,1-28.007,11.676" transform="translate(-0.129 -40.773)" fill="#8acbf1"/><path d="M205.315,112.345a1.191,1.191,0,0,1-.848-.354,37.038,37.038,0,0,0-52.619,0,1.2,1.2,0,0,1-1.7,0,1.213,1.213,0,0,1,0-1.708,39.426,39.426,0,0,1,56.014,0,1.213,1.213,0,0,1,0,1.708,1.191,1.191,0,0,1-.848.354" transform="translate(-62.996 -40.772)" fill="#8acbf1"/><path d="M205.315,98.087a1.193,1.193,0,0,1-.848-.353,37.078,37.078,0,0,0-52.619,0,1.2,1.2,0,0,1-1.7,0,1.214,1.214,0,0,1,0-1.709,39.472,39.472,0,0,1,56.014,0,1.214,1.214,0,0,1,0,1.709,1.193,1.193,0,0,1-.848.353" transform="translate(-62.996 -34.85)" fill="#8acbf1"/><path d="M205.315,83.411a1.193,1.193,0,0,1-.848-.353,37.036,37.036,0,0,0-52.619,0,1.2,1.2,0,0,1-1.7,0,1.214,1.214,0,0,1,0-1.709,39.427,39.427,0,0,1,56.014,0,1.214,1.214,0,0,1,0,1.709,1.193,1.193,0,0,1-.848.353" transform="translate(-62.996 -28.739)" fill="#8acbf1"/></g></g><g transform="translate(259.167 6686)"><g transform="translate(0 0)" clip-path="url(#b)"><path d="M31.508,83.3,26.66,74.333a.862.862,0,0,0-1.517.82l4.848,8.97a.863.863,0,1,0,1.517-.821" transform="translate(-8.945 -26.396)" fill="#7b4735"/><path d="M52.556,83.3,57.4,74.333a.862.862,0,0,1,1.517.82l-4.848,8.97a.863.863,0,0,1-1.517-.821" transform="translate(-18.74 -26.396)" fill="#7b4735"/><path d="M25.555.007C20.556.1,10.155,1.616,3.836,12-8.521,32.31,12.6,46.261,16.341,49.929h5.432a57.177,57.177,0,0,1-4.817-19.082c-1.55-17.012,1.314-23.8,8.6-30.84" transform="translate(0 -0.002)" fill="#f5cd7d"/><path d="M34.753,0c-7.286,7.036-10.151,13.828-8.6,30.84A57.177,57.177,0,0,0,30.97,49.926h6.644V.12A21.181,21.181,0,0,0,34.753,0" transform="translate(-9.198 0)" fill="#80b572"/><path d="M48.663.007C53.662.1,64.063,1.616,70.382,12c12.357,20.309-8.764,34.261-12.5,37.928H52.446a57.177,57.177,0,0,0,4.817-19.082c1.55-17.012-1.314-23.8-8.6-30.84" transform="translate(-17.386 -0.002)" fill="#f5cd7d"/><path d="M47.073,0c7.286,7.036,10.151,13.828,8.6,30.84a57.177,57.177,0,0,1-4.817,19.082H44.212V.12A21.181,21.181,0,0,1,47.073,0" transform="translate(-15.796 0)" fill="#80b572"/><path d="M43.724,93.773H34.5l-3.8-7.591H47.528Z" transform="translate(-10.966 -30.791)" fill="#ed6f26"/></g></g><g transform="translate(180.71 6567.053)"><g transform="translate(0 0)" clip-path="url(#c)"><path d="M34.358,87.454,27.374,74.533a1.242,1.242,0,0,0-2.186,1.181l6.984,12.922a1.243,1.243,0,0,0,2.186-1.182" transform="translate(-1.855 -5.472)" fill="#7b4735"/><path d="M52.6,87.454l6.984-12.921a1.242,1.242,0,0,1,2.186,1.181L54.788,88.637A1.243,1.243,0,0,1,52.6,87.454" transform="translate(-3.885 -5.472)" fill="#7b4735"/><path d="M36.816.007C29.614.134,14.63,2.325,5.527,17.285c-17.8,29.258,12.626,49.357,18.014,54.641h7.825c-3.012-6.465-5.843-15.447-6.94-27.49C22.193,19.928,26.32,10.143,36.816.007" transform="translate(0 0)" fill="#5a907a"/><path d="M38.723.007C28.226,10.143,24.1,19.928,26.333,44.435c1.1,12.043,3.928,21.025,6.94,27.49h9.571V.172A30.513,30.513,0,0,0,38.723.007" transform="translate(-1.907 0)" fill="#f5cd7d"/><path d="M48.663.007c7.2.127,22.186,2.318,31.289,17.278,17.8,29.258-12.626,49.357-18.014,54.641H54.113c3.012-6.465,5.843-15.447,6.94-27.49C63.286,19.928,59.159,10.143,48.663.007" transform="translate(-3.605 0)" fill="#5a907a"/><path d="M48.333.007c10.5,10.136,14.623,19.921,12.39,44.429-1.1,12.043-3.928,21.025-6.94,27.49H44.212V.172A30.514,30.514,0,0,1,48.333.007" transform="translate(-3.275 0)" fill="#f5cd7d"/><path d="M49.465,97.118H36.176L30.694,86.183H54.946Z" transform="translate(-2.274 -6.383)" fill="#ed6f26"/></g></g></g></svg>