<svg xmlns="http://www.w3.org/2000/svg" width="85" height="85" viewBox="0 0 85 85"><g transform="translate(-360 -3799)"><path d="M42.5,0A42.5,42.5,0,1,1,0,42.5,42.5,42.5,0,0,1,42.5,0Z" transform="translate(360 3799)" fill="#137ed5"/><path d="M40,0h.251q.375,0,.749.011l-.049,2C40.636,2,40.316,2,40,2V0Zm3.994.2c.289.029.579.061.866.1l.014,0,.013,0L44.9.3l.013,0h.013l.061.007-.247,1.985c-.313-.039-.63-.074-.944-.106l.2-1.99ZM47.948.79c.328.066.652.136.978.21l-.444,1.95c-.307-.07-.62-.137-.929-.2l.4-1.961Zm3.875.986.13.04h0l.014,0h0l.014,0h0l.013,0h0l.013,0h0l.013,0h0l.013,0h0l.014,0h0l.014,0h0l.014,0h0l.014,0h0l.014,0h0l.014,0h0q.324.1.645.211l-.638,1.9c-.3-.1-.6-.2-.9-.292l.59-1.911Zm3.756,1.371.057.024h0l.014.006h0l.014.006h0l.014.006h0l.013.005h0l.014.006h0l.013.006h0l.013.005h0l.01,0,.008,0c.209.089.415.18.622.273h0l.009,0,.005,0,.006,0,.009,0h0l.012.005h0l.071.032L55.669,5.37c-.287-.13-.58-.258-.87-.381Zm3.6,1.741c.217.119.434.24.648.363l.006,0,0,0,.009.005h0l.012.007h0l.189.109-1,1.73c-.273-.158-.551-.315-.827-.466Zm3.407,2.093.128.088.006,0,.006,0,.01.007,0,0,.011.008h0l.011.008h0q.323.224.641.453L62.231,9.178c-.256-.185-.517-.369-.777-.547ZM65.766,9.4l.293.25,0,0,0,0,.009.008h0l.022.019h0l.318.277h0l.01.009,0,0,.008.007,0,0,.007.007.005,0,.005,0,.007.006,0,0,.009.008h0l.01.009h0l.03.026-1.327,1.5c-.236-.209-.478-.418-.719-.621L65.766,9.4Zm2.925,2.726q.349.359.688.726l-1.469,1.358c-.214-.232-.434-.464-.654-.69Zm2.64,3h0l.009.011v0l.008.01,0,0,.007.009,0,0,.006.007,0,.005.005.007,0,.006,0,.006.005.006,0,.005.006.007,0,0,.007.008,0,0,.007.009,0,0,.007.009v0l.008.01h0l.148.189h0l.009.012h0l.009.011h0l.008.01,0,0,.008.01v0l.008.01h0l.008.011h0l.008.01,0,0,.007.01,0,0,.007.009,0,0,.007.009,0,0,.006.008,0,0,.006.007,0,0,.005.007,0,.005.005.007.227.3-1.6,1.205c-.19-.252-.386-.5-.582-.751Zm2.329,3.25q.186.289.367.581h0l.007.012,0,.007,0,.005.006.009,0,0,.015.025h0l.016.025h0l.108.177-1.708,1.04c-.164-.269-.333-.54-.5-.805Zm1.993,3.466c.1.192.194.384.289.578h0l.006.012,0,0,0,.01,0,0,0,.009,0,.006,0,.007,0,.009,0,0,.006.011v0l.115.239-1.8.864c-.136-.284-.278-.571-.421-.851l1.782-.909ZM77.29,25.5c.078.2.155.4.23.606h0l0,.013h0l0,.013v0l0,.013h0l0,.013v0l0,.013v0l0,.012v0l0,.012v0l0,.012v0l0,.012v0l0,.011,0,0,0,.011v0l0,.012v0l0,.012v0l0,.012v0l0,.012h0l.005.014h0l.036.1-1.881.678c-.107-.3-.219-.6-.333-.889Zm1.261,3.795q.133.481.255.967l-1.94.486c-.076-.306-.158-.615-.242-.918l1.927-.534Zm.873,3.9.021.122h0l0,.013v0l0,.012v0l0,.011v0l0,.009v.045l0,.009v.005l0,.011v0l0,.012v0l0,.012v0l0,.013v0l0,.014v0l0,.014v0l0,.014h0l0,.014h0l0,.031h0l0,.015h0l0,.015h0l0,.015h0l0,.031h0l.01.062h0l.007.046h0l0,.015h0l0,.015h0l0,.015h0l0,.015h0l0,.014v0l0,.014h0l0,.014h0l0,.014v0l0,.014v0l0,.014h0l0,.015h0l0,.015h0l0,.015h0l0,.015h0l0,.015h0l0,.015h0l.024.164-1.979.288c-.045-.312-.1-.628-.149-.938Zm.478,3.97v.014c.023.327.042.654.057.984l-2,.09c-.014-.315-.033-.635-.055-.949ZM77.984,41.1l2,.057q0,.085-.005.171v.362q-.01.233-.022.466l-2-.106C77.962,41.739,77.975,41.42,77.984,41.1Zm-.3,3.788,1.984.255c-.043.331-.089.662-.14.99l-1.977-.3C77.6,45.522,77.648,45.205,77.688,44.892Zm-.672,3.738,1.948.452c-.02.084-.039.168-.059.252h0l0,.013v0l0,.011v.006l0,.008,0,.008v.006l0,.011v0l0,.012v0l0,.014h0q-.075.311-.155.621l-1.936-.5C76.869,49.248,76.945,48.937,77.016,48.63Zm-1.044,3.651,1.893.646c-.108.315-.22.63-.335.942l-1.876-.693C75.764,52.88,75.871,52.579,75.972,52.281Zm-1.406,3.527,1.818.833-.082.178v0l-.005.011,0,0,0,.009,0,.006,0,.007,0,.008,0,.005,0,.01v0l-.006.012h0q-.1.212-.2.423h0l-.006.013h0l-.006.012v0l-.005.011v0l0,.01,0,0,0,.009,0,.005,0,.008,0,.006,0,.007,0,.007,0,.006,0,.008,0,0,0,.009,0,0,0,.01v0l-.005.011v0l-.032.065-1.8-.878C74.3,56.383,74.435,56.095,74.566,55.808Zm-1.753,3.369,1.726,1.011-.119.2h0l-.006.011,0,0-.006.01,0,0-.005.009,0,0,0,.007c-.121.2-.244.406-.369.607l-1.7-1.054C72.489,59.723,72.654,59.449,72.814,59.177Zm-2.081,3.178,1.616,1.178-.083.113h0l-.008.011,0,0-.006.009,0,0-.005.007,0,.006,0,.006-.005.007,0,0-.006.008,0,0-.007.009v0l-.008.011h0q-.177.24-.359.478v0l-.006.007,0,.005,0,0-.006.008h0l-.066.086-1.587-1.218C70.355,62.866,70.547,62.61,70.732,62.355ZM68.345,65.31l1.491,1.333-.026.029h0l-.008.009,0,0-.006.007,0,.005,0,.005-.007.008,0,0-.009.01h0l-.209.231h0l-.009.01,0,0-.008.009,0,0-.008.008,0,0L69.514,67l0,.005,0,.005-.006.006,0,0-.007.007,0,0-.008.009h0c-.1.109-.2.217-.3.325l-.015.016L67.7,66.011C67.918,65.781,68.134,65.546,68.345,65.31Zm-2.669,2.7,1.352,1.474-.308.279,0,0-.008.007,0,0-.007.006,0,0-.006.005-.006.005-.005,0-.006.006,0,0-.006.006,0,0-.007.006,0,0-.008.007,0,0-.009.008,0,0-.009.008,0,0-.01.009h0l-.011.01h0l-.3.269-1.315-1.507C65.2,68.441,65.443,68.228,65.675,68.014ZM62.751,70.44l1.2,1.6c-.205.154-.413.306-.622.456h0l-.011.008h0l-.01.007,0,0-.009.007,0,0-.008.006-.005,0-.007,0-.007,0-.005,0-.008.006,0,0-.01.007h0l-.089.063L61.983,71C62.24,70.817,62.5,70.629,62.751,70.44ZM59.6,72.562l1.033,1.712q-.207.125-.416.247h0l-.012.007h0l-.011.007h0l-.012.007h0l-.012.007h0l-.011.006h0l-.011.007h0l-.012.007h0l-.012.007h0l-.012.007h0l-.013.008h0l-.312.179-.99-1.738C59.054,72.887,59.33,72.725,59.6,72.562Zm-3.346,1.8.857,1.807q-.288.136-.579.269h0l-.009,0,0,0-.007,0-.007,0-.006,0-.008,0-.005,0-.009,0,0,0-.011,0h0l-.011,0h0l-.012.005h0l-.012.005h0l-.213.1-.811-1.828C55.678,74.627,55.969,74.494,56.254,74.359Zm-3.509,1.452.671,1.884-.181.064h0l-.014,0h0l-.013,0h0l-.011,0,0,0-.01,0-.014.005-.014,0-.011,0h0l-.014,0h0l-.162.056h0l-.012,0,0,0-.01,0-.014,0-.014,0-.009,0-.006,0-.01,0h0l-.011,0h0l-.012,0h0l-.013,0h0l-.36.12-.623-1.9C52.146,76.02,52.448,75.916,52.745,75.811ZM49.108,76.9l.478,1.942q-.485.119-.974.227l-.429-1.954C48.491,77.05,48.8,76.977,49.108,76.9Zm-3.728.72.28,1.98-.144.02-.014,0-.014,0-.014,0-.014,0q-.394.054-.79.1l-.231-1.987C44.751,77.707,45.068,77.667,45.38,77.622Zm-3.784.345.082,2-.2.008h-.116q-.343.012-.688.017l-.033-2C40.961,77.989,41.281,77.98,41.6,77.967Zm-4.751-.1c.314.026.633.048.948.066l-.114,2-.151-.009h-.068q-.312-.02-.622-.044h-.106l-.05,0Zm-3.766-.5c.31.057.625.111.936.16L33.7,79.507q-.495-.078-.986-.169Zm-3.7-.874c.3.088.61.173.915.253l-.509,1.934-.166-.044h0l-.014,0h0l-.013,0h0l-.013,0h0l-.012,0h0l-.012,0h0l-.012,0h0l-.013,0h0l-.013,0h0l-.012,0h0l-.012,0h0l-.012,0h0l-.012,0h0l-.012,0h0l-.013,0h0l-.014,0h0l-.014,0h0l-.013,0h0l-.014,0h0l-.015,0h0l-.015,0h0l-.015,0h0l-.27-.076h0l-.014,0h0l-.011,0-.013,0-.012,0-.01,0h0l-.148-.043ZM25.8,75.257c.292.118.59.234.885.344l-.7,1.873-.3-.114,0,0-.009,0-.013-.005-.006,0-.008,0-.006,0-.008,0-.014-.005-.014-.005-.014-.006-.007,0-.007,0-.015-.006-.006,0-.008,0-.015-.006-.005,0-.009,0-.015-.006,0,0-.01,0,0,0-.011,0h0l-.011,0h0l-.012,0h0l-.012,0h0l-.013-.005h0l-.014-.005h0l-.341-.136Zm-3.446-1.6c.279.147.564.292.846.431l-.886,1.793-.3-.152h0l-.012-.006h0l-.011-.006h0l-.01,0,0,0-.008,0-.006,0-.008,0-.006,0-.007,0-.006,0-.007,0-.007,0-.006,0-.008,0-.006,0-.008,0-.006,0-.007,0-.007,0-.007,0-.006,0-.008,0-.006,0-.007,0-.006,0-.007,0-.007,0-.007,0-.007,0-.007,0-.007,0-.005,0-.008,0,0,0-.01,0,0,0-.01-.005h0l-.314-.163Zm-3.27-1.933c.263.174.532.347.8.514l-1.061,1.7q-.424-.265-.841-.541Zm-3.061-2.25c.244.2.495.4.744.591l-1.224,1.582-.163-.127h0l-.011-.008,0,0-.01-.007,0,0L15.34,71.5l0,0-.008-.007-.005,0-.007-.005-.024-.019,0,0-.009-.007,0,0-.009-.007,0,0-.008-.006,0,0-.007-.006-.006,0-.006,0-.006,0-.006,0-.007-.005-.006,0-.007-.006,0,0-.008-.006,0,0-.009-.007,0,0-.01-.008,0,0-.011-.008h0q-.2-.158-.4-.318ZM13.2,66.936c.224.222.453.445.682.662L12.5,69.05l-.013-.012h0l-.085-.081,0,0-.009-.009,0,0-.009-.008,0,0-.009-.008,0,0-.008-.008,0,0-.008-.007,0,0-.008-.007,0,0-.007-.007,0,0-.007-.007,0,0-.007-.006,0,0-.006-.006,0,0-.006-.006,0,0-.006-.006-.006-.005-.005-.005-.006-.006,0,0-.007-.007,0,0-.008-.007,0,0-.009-.009,0,0-.011-.01h0q-.213-.206-.424-.416Zm-2.557-2.811c.2.243.406.488.613.726L9.739,66.16q-.184-.212-.364-.427h0l-.01-.012c-.091-.108-.18-.215-.27-.325Zm-2.265-3.05c.175.262.356.526.537.783L7.277,63.01q-.288-.409-.566-.825Zm-1.949-3.26c.148.278.3.559.456.833L5.14,59.63q-.088-.156-.175-.314h0L4.958,59.3l0,0,0-.009,0,0,0-.009,0-.006,0-.007,0-.008,0-.006,0-.009,0,0,0-.009,0,0-.005-.01,0,0L4.9,59.2l0,0-.006-.011,0,0-.005-.01,0,0-.005-.01,0,0-.006-.01,0,0-.006-.01,0,0-.006-.01,0,0-.005-.01,0,0-.005-.01,0,0-.005-.01,0,0,0-.009,0-.005,0-.009,0,0,0-.009,0-.005,0-.008,0-.006,0-.007,0-.007,0-.006-.006-.01v0l-.125-.234ZM4.813,54.376c.119.292.244.586.371.874l-1.832.8L3.3,55.933h0l-.006-.013v0l0-.011,0,0,0-.009,0-.007,0-.007,0-.009,0,0,0-.011v0l-.006-.014h0q-.133-.308-.261-.619H3l0-.011,0,0,0-.006-.027-.066ZM3.554,50.794c.089.3.184.607.281.907l-1.9.615q-.153-.475-.3-.955ZM2.662,47.1c.059.31.122.623.188.931L.9,48.455l0-.009v0l0-.008,0-.008V48.42l0-.01v0l0-.011v0Q.8,48.02.73,47.644v0l0-.012v-.005l0-.009,0-.008V47.6l0-.011v0l0-.014h0l-.018-.1ZM2.145,43.34c.027.314.059.632.094.945l-1.988.223q-.01-.093-.02-.186v-.045q-.038-.362-.07-.725h0v-.039ZM0,39.517l2,.024Q2,39.77,2,40q0,.247,0,.493l-2,.025q0-.078,0-.155v-.007H0c0-.118,0-.236,0-.354H0v-.016s0,0,0,0,0-.007,0-.011v-.006s0-.006,0-.01,0,0,0-.005,0-.007,0-.011v-.005s0-.006,0-.01,0,0,0-.005,0-.008,0-.011,0,0,0-.005v-.011s0,0,0,0v-.031c0-.005,0-.008,0-.014s0,0,0,0c0-.043,0-.085,0-.129H0v-.016H0V39.56Q0,39.538,0,39.517Zm.245-3.991,1.988.221c-.035.313-.066.631-.093.946L.149,36.521q.008-.093.017-.187v-.046c.023-.255.049-.508.077-.763Zm.64-3.947L2.844,32c-.066.308-.129.621-.187.931L.691,32.56q.049-.261.1-.521h0l0-.014v0l0-.012v0l0-.011v0l0-.01v-.006l0-.008,0-.007V31.95l0-.009v-.006l0-.01v0l0-.012v0l0-.013h0l0-.015h0C.846,31.778.867,31.678.888,31.579Zm1.033-3.862,1.9.614c-.1.3-.191.605-.28.907l-1.918-.565.011-.037v0l0-.012v0l0-.011,0-.005,0-.008,0-.008,0-.006,0-.01v0l0-.01v0l0-.011v0l0-.013v0l0-.014h0Q1.794,28.111,1.921,27.717Zm1.417-3.739,1.832.8c-.126.289-.251.583-.37.875L2.949,24.9q.173-.425.356-.845v0l0-.01,0,0,0-.007,0-.007,0,0,0-.01v0ZM5.123,20.4l1.743.981c-.155.275-.308.555-.456.833l-1.767-.937,0-.008,0,0,0-.007,0-.007,0-.005,0-.009,0,0,.005-.01,0,0,.006-.011v0l.006-.012v0l.006-.012v0l.006-.012v0l.007-.013h0l.007-.013h0l.007-.013h0l.007-.013h0l.007-.012h0l.006-.012v0l.006-.011v0l.006-.011,0,0,.005-.01,0,0,.005-.01,0,0,0-.009,0-.005,0-.007,0-.007,0,0,0-.009,0,0c.106-.195.214-.391.323-.584Zm2.134-3.381,1.636,1.15c-.181.258-.362.522-.537.784L6.692,17.844l.005-.008h0l.017-.025h0l.016-.025h0l.008-.012h0l.008-.011h0l.007-.011h0l.007-.011,0,0,.007-.01,0,0,.007-.01,0,0,.007-.01,0,0,.006-.009,0,0,.005-.008,0-.006,0-.006.006-.009,0,0Q7.037,17.332,7.257,17.019Zm2.46-3.152,1.514,1.307c-.206.239-.412.483-.612.727L9.072,14.631q.26-.316.525-.626h0l.009-.011h0l.009-.01,0,0,.008-.009,0,0,.007-.008.005-.006,0-.005.009-.011h0Zm2.761-2.892,1.376,1.451c-.229.217-.458.44-.681.662L11.76,11.671l.021-.021,0,0,.008-.008,0,0,.006-.006.006-.006,0,0,.008-.008,0,0,.009-.009h0c.213-.211.427-.419.644-.625Zm3.034-2.6,1.225,1.581c-.249.193-.5.392-.744.592l-1.264-1.55.129-.105h0l.01-.008,0,0,.008-.007,0,0,.007-.005.006,0,.006,0,.007-.005,0,0,.008-.006,0,0,.009-.007,0,0,.01-.008,0,0,.011-.009h0q.225-.181.452-.358l0,0,.007-.006.006,0,.006,0,.007-.006,0,0,.009-.007,0,0,.01-.008h0l.011-.009h0l.012-.009h0l.017-.013Zm3.278-2.29,1.062,1.695c-.267.167-.536.34-.8.514l-1.1-1.668c.278-.184.558-.364.841-.542Zm3.49-1.951.887,1.792c-.282.14-.567.285-.846.432l-.932-1.77.064-.034h0l.011-.006,0,0,.01-.005,0,0,.009,0,0,0,.009,0,.006,0,.007,0,.007,0,.006,0,.008,0,0,0,.009,0,0,0,.01-.005,0,0,.011-.006h0l.012-.006h0l.013-.007h0q.249-.129.5-.255h0l.012-.006h0l.01-.005,0,0,.008,0,.006,0,0,0Zm3.668-1.591.7,1.872c-.295.111-.593.227-.885.345L25.016,2.9c.2-.081.4-.16.6-.238h0l.014-.005h0l.013,0h0l.012,0h0l.011,0,0,0,.009,0,.014-.005.008,0,.006,0,.01,0h0l.013,0h0Zm3.809-1.215.511,1.934c-.3.08-.612.166-.915.254l-.559-1.92.089-.026h0l.012,0,.013,0,.013,0,.008,0h.005l.011,0h0c.173-.05.345-.1.518-.145h0l.291-.078ZM33.669.5l.314,1.975c-.311.05-.626.1-.936.161L32.683.668Q33.174.577,33.669.5Zm3.975-.43.116,2c-.315.018-.634.041-.948.067L36.646.139q.279-.023.56-.043h.257l.032,0h0l.063,0,.032,0a.251.251,0,0,0,.032,0h.022Z" transform="translate(363 3802)" fill="#ffd400"/><g transform="translate(-1)"><path d="M17.42-23.46a5.248,5.248,0,0,0-4.82-2.62,5.248,5.248,0,0,0-4.82,2.62Q6.2-20.84,6.2-14.6T7.78-5.74A5.248,5.248,0,0,0,12.6-3.12a5.248,5.248,0,0,0,4.82-2.62Q19-8.36,19-14.6T17.42-23.46ZM20.7-3.16Q18,.4,12.6.4T4.5-3.16Q1.8-6.72,1.8-14.6T4.5-26.04q2.7-3.56,8.1-3.56t8.1,3.56q2.7,3.56,2.7,11.44T20.7-3.16ZM37.2-16.28a5.905,5.905,0,0,0-4.42,1.74A6.22,6.22,0,0,0,31.08-10,6.972,6.972,0,0,0,32.8-5.04,5.756,5.756,0,0,0,37.2-3.2a5.963,5.963,0,0,0,4.56-1.74A7.11,7.11,0,0,0,43.4-10a6.189,6.189,0,0,0-1.7-4.58A6.083,6.083,0,0,0,37.2-16.28ZM37.2.4Q26.6.4,26.6-12.8q0-8.44,3.2-12.62T39-29.6a19.951,19.951,0,0,1,3.76.36,2.119,2.119,0,0,1,1.34.82,2.479,2.479,0,0,1,.5,1.54,1.26,1.26,0,0,1-.56,1.08,1.534,1.534,0,0,1-1.28.24A16.451,16.451,0,0,0,39-26a6.712,6.712,0,0,0-5.18,2.26,10.859,10.859,0,0,0-2.46,6.46q0,.08.04.08h.08a9.085,9.085,0,0,1,6.72-2.4A9.444,9.444,0,0,1,45.22-17a9.5,9.5,0,0,1,2.58,7,10.081,10.081,0,0,1-2.88,7.64A10.691,10.691,0,0,1,37.2.4Z" transform="translate(378 3863)" fill="#fff"/><path d="M3.328-1.392a2.547,2.547,0,0,0,1.12-.184A.654.654,0,0,0,4.8-2.208.819.819,0,0,0,4.424-2.9a5.518,5.518,0,0,0-1.24-.592A9.8,9.8,0,0,1,2.216-3.9a3.3,3.3,0,0,1-.76-.5,2.067,2.067,0,0,1-.5-.7,2.427,2.427,0,0,1-.184-1,2.181,2.181,0,0,1,.848-1.816,3.642,3.642,0,0,1,2.3-.664,7.085,7.085,0,0,1,1.408.136,6.852,6.852,0,0,1,1.008.264L5.984-6.608a4.744,4.744,0,0,0-.816-.264,4.932,4.932,0,0,0-1.152-.12,2.005,2.005,0,0,0-.96.2.657.657,0,0,0-.368.616.888.888,0,0,0,.072.368.793.793,0,0,0,.248.3,2.54,2.54,0,0,0,.464.272,7.157,7.157,0,0,0,.7.28,10.726,10.726,0,0,1,1.168.5,3.162,3.162,0,0,1,.792.56,1.915,1.915,0,0,1,.456.712,2.843,2.843,0,0,1,.144.96A2.068,2.068,0,0,1,5.848-.408,4.42,4.42,0,0,1,3.312.208,6.942,6.942,0,0,1,1.536.024a9.208,9.208,0,0,1-.944-.3L.928-1.888a8.725,8.725,0,0,0,1.032.336A5.323,5.323,0,0,0,3.328-1.392Zm5.6-9.184,1.936-.32v2.528H13.84v1.616H10.864v3.408a2.476,2.476,0,0,0,.32,1.44,1.267,1.267,0,0,0,1.088.432,3.546,3.546,0,0,0,.936-.112,6.324,6.324,0,0,0,.648-.208l.32,1.536a7.261,7.261,0,0,1-.88.3,4.786,4.786,0,0,1-1.28.152,4.051,4.051,0,0,1-1.5-.24,2.206,2.206,0,0,1-.952-.7,2.759,2.759,0,0,1-.5-1.1,6.859,6.859,0,0,1-.144-1.48Zm6.656,6.432a5.258,5.258,0,0,1,.328-1.936,4.066,4.066,0,0,1,.872-1.384A3.609,3.609,0,0,1,18.032-8.3a3.865,3.865,0,0,1,1.44-.28,3.447,3.447,0,0,1,2.7,1.072,4.639,4.639,0,0,1,.968,3.2q0,.16-.008.36t-.024.36h-5.52a2.207,2.207,0,0,0,.712,1.56,2.705,2.705,0,0,0,1.832.552A6.023,6.023,0,0,0,21.416-1.6a5.3,5.3,0,0,0,.92-.272l.256,1.584a3.1,3.1,0,0,1-.44.168,6.215,6.215,0,0,1-.64.16q-.36.072-.776.12a7.393,7.393,0,0,1-.848.048,5.131,5.131,0,0,1-1.92-.328,3.575,3.575,0,0,1-1.344-.912,3.738,3.738,0,0,1-.784-1.376A5.618,5.618,0,0,1,15.584-4.144ZM21.2-5.008a2.544,2.544,0,0,0-.112-.76,1.833,1.833,0,0,0-.328-.624,1.551,1.551,0,0,0-.528-.416,1.683,1.683,0,0,0-.744-.152,1.732,1.732,0,0,0-.784.168,1.787,1.787,0,0,0-.568.44,2.011,2.011,0,0,0-.36.624,3.38,3.38,0,0,0-.176.72Zm10.016.864a3.119,3.119,0,0,0-.584-2.016,2.282,2.282,0,0,0-1.88-.72q-.272,0-.568.024a3.119,3.119,0,0,0-.584.1v4.784a3,3,0,0,0,.68.328,2.659,2.659,0,0,0,.9.152,1.732,1.732,0,0,0,1.544-.72A3.4,3.4,0,0,0,31.216-4.144ZM33.2-4.176a5.923,5.923,0,0,1-.248,1.76A4.1,4.1,0,0,1,32.24-1.04a3.162,3.162,0,0,1-1.16.9A3.731,3.731,0,0,1,29.5.176,3.891,3.891,0,0,1,28.416.032a4.066,4.066,0,0,1-.816-.32V2.96H25.664V-8.1q.592-.16,1.456-.3a11.09,11.09,0,0,1,1.824-.144,4.883,4.883,0,0,1,1.776.3,3.7,3.7,0,0,1,1.336.872A3.84,3.84,0,0,1,32.9-5.992,5.252,5.252,0,0,1,33.2-4.176Z" transform="translate(387 3826)" fill="#fff"/></g></g></svg>